<?xml version="1.0" encoding="UTF-8" standalone="no"?>
<svg
   xmlns:dc="http://purl.org/dc/elements/1.1/"
   xmlns:cc="http://creativecommons.org/ns#"
   xmlns:rdf="http://www.w3.org/1999/02/22-rdf-syntax-ns#"
   xmlns:svg="http://www.w3.org/2000/svg"
   xmlns="http://www.w3.org/2000/svg"
   xmlns:xlink="http://www.w3.org/1999/xlink"
   xmlns:sodipodi="http://sodipodi.sourceforge.net/DTD/sodipodi-0.dtd"
   xmlns:inkscape="http://www.inkscape.org/namespaces/inkscape"
   width="32"
   height="32"
   version="1"
   id="svg16"
   sodipodi:docname="computer.svg"
   inkscape:version="0.92.4 (5da689c313, 2019-01-14)">
  <metadata
     id="metadata22">
    <rdf:RDF>
      <cc:Work
         rdf:about="">
        <dc:format>image/svg+xml</dc:format>
        <dc:type
           rdf:resource="http://purl.org/dc/dcmitype/StillImage" />
      </cc:Work>
    </rdf:RDF>
  </metadata>
  <defs
     id="defs20">
    <linearGradient
       inkscape:collect="always"
       id="linearGradient36">
      <stop
         style="stop-color:#ff00ff;stop-opacity:1"
         offset="0"
         id="stop32" />
      <stop
         style="stop-color:#00ffff;stop-opacity:1"
         offset="1"
         id="stop34" />
    </linearGradient>
    <linearGradient
       inkscape:collect="always"
       id="linearGradient28">
      <stop
         style="stop-color:#ff00ff;stop-opacity:1"
         offset="0"
         id="stop24" />
      <stop
         style="stop-color:#00ffff;stop-opacity:1"
         offset="1"
         id="stop26" />
    </linearGradient>
    <linearGradient
       inkscape:collect="always"
       xlink:href="#linearGradient28"
       id="linearGradient30"
       x1="3"
       y1="15.5"
       x2="29"
       y2="15.5"
       gradientUnits="userSpaceOnUse" />
    <linearGradient
       inkscape:collect="always"
       xlink:href="#linearGradient36"
       id="linearGradient38"
       x1="33"
       y1="15.5"
       x2="63"
       y2="15.5"
       gradientUnits="userSpaceOnUse" />
  </defs>
  <sodipodi:namedview
     pagecolor="#ffffff"
     bordercolor="#666666"
     borderopacity="1"
     objecttolerance="10"
     gridtolerance="10"
     guidetolerance="10"
     inkscape:pageopacity="0"
     inkscape:pageshadow="2"
     inkscape:window-width="1920"
     inkscape:window-height="1000"
     id="namedview18"
     showgrid="false"
     inkscape:zoom="7.375"
     inkscape:cx="16"
     inkscape:cy="16"
     inkscape:window-x="0"
     inkscape:window-y="0"
     inkscape:window-maximized="1"
     inkscape:current-layer="svg16" />
  <g
     id="computer"
     transform="translate(-2e-4,34)">
    <rect
       style="opacity:0.001"
       width="32"
       height="32"
       x="0"
       y="-34"
       id="rect2" />
    <g
       transform="translate(2e-4,-35)"
       id="g6">
      <path
         style="fill:url(#linearGradient30)"
         transform="translate(0,1)"
         d="M 4.3007812,4 C 3.5805813,4 3,4.5575 3,5.25 v 17.5 C 3,23.4425 3.5805813,24 4.3007812,24 H 8 v 1.6875 C 8,26.414902 8.5935493,27 9.3320312,27 H 22.667969 C 23.406451,27 24,26.414902 24,25.6875 V 24 h 3.699219 C 28.419419,24 29,23.4425 29,22.75 V 5.25 C 29,4.5575 28.419419,4 27.699219,4 Z M 6,7 H 26 V 21 H 24 8 6 Z"
         id="path4" />
    </g>
  </g>
  <g
     id="computer-laptop"
     transform="translate(-4.0002,34)">
    <rect
       style="opacity:0.001"
       width="32"
       height="32"
       x="36"
       y="-34"
       id="rect9" />
    <g
       transform="translate(36,-35)"
       id="g13">
      <path
         style="fill:url(#linearGradient38)"
         transform="translate(-31.9998,1)"
         d="M 36.298828,5 C 35.578628,5 35,5.5575 35,6.25 v 15.5 C 35,22.442 35.578628,23 36.298828,23 H 34 c -0.554,0 -1,0.446 -1,1 v 1 c 0,0.554 0.446,1 1,1 h 28 c 0.554,0 1,-0.446 1,-1 v -1 c 0,-0.554 -0.446,-1 -1,-1 H 59.699219 C 60.419419,23 61,22.4425 61,21.75 V 6.25 C 61,5.5575 60.419219,5 59.699219,5 Z M 38,8 H 58 V 20 H 38 Z"
         id="path11" />
    </g>
  </g>
</svg>
