<?xml version="1.0" encoding="UTF-8" standalone="no"?>
<svg
   xmlns:dc="http://purl.org/dc/elements/1.1/"
   xmlns:cc="http://creativecommons.org/ns#"
   xmlns:rdf="http://www.w3.org/1999/02/22-rdf-syntax-ns#"
   xmlns:svg="http://www.w3.org/2000/svg"
   xmlns="http://www.w3.org/2000/svg"
   xmlns:xlink="http://www.w3.org/1999/xlink"
   xmlns:sodipodi="http://sodipodi.sourceforge.net/DTD/sodipodi-0.dtd"
   xmlns:inkscape="http://www.inkscape.org/namespaces/inkscape"
   width="32"
   height="32"
   version="1.1"
   id="svg20"
   sodipodi:docname="emblem.svg"
   inkscape:version="0.92.4 (5da689c313, 2019-01-14)">
  <metadata
     id="metadata26">
    <rdf:RDF>
      <cc:Work
         rdf:about="">
        <dc:format>image/svg+xml</dc:format>
        <dc:type
           rdf:resource="http://purl.org/dc/dcmitype/StillImage" />
      </cc:Work>
    </rdf:RDF>
  </metadata>
  <defs
     id="defs24">
    <linearGradient
       inkscape:collect="always"
       id="linearGradient42">
      <stop
         style="stop-color:#ff00ff;stop-opacity:1"
         offset="0"
         id="stop38" />
      <stop
         style="stop-color:#00ffff;stop-opacity:1"
         offset="1"
         id="stop40" />
    </linearGradient>
    <linearGradient
       inkscape:collect="always"
       id="linearGradient34">
      <stop
         style="stop-color:#ff00ff;stop-opacity:1"
         offset="0"
         id="stop30" />
      <stop
         style="stop-color:#00ffff;stop-opacity:1"
         offset="1"
         id="stop32" />
    </linearGradient>
    <linearGradient
       inkscape:collect="always"
       xlink:href="#linearGradient34"
       id="linearGradient36"
       x1="5"
       y1="15.5"
       x2="26"
       y2="15.5"
       gradientUnits="userSpaceOnUse" />
    <linearGradient
       inkscape:collect="always"
       xlink:href="#linearGradient42"
       id="linearGradient44"
       x1="36"
       y1="21"
       x2="50"
       y2="21"
       gradientUnits="userSpaceOnUse" />
  </defs>
  <sodipodi:namedview
     pagecolor="#ffffff"
     bordercolor="#666666"
     borderopacity="1"
     objecttolerance="10"
     gridtolerance="10"
     guidetolerance="10"
     inkscape:pageopacity="0"
     inkscape:pageshadow="2"
     inkscape:window-width="1920"
     inkscape:window-height="1000"
     id="namedview22"
     showgrid="false"
     inkscape:zoom="7.375"
     inkscape:cx="16"
     inkscape:cy="16"
     inkscape:window-x="0"
     inkscape:window-y="0"
     inkscape:window-maximized="1"
     inkscape:current-layer="svg20" />
  <g
     id="22-22-emblem-shared-symbolic"
     transform="translate(27,5.0000005)">
    <rect
       style="opacity:0.001"
       width="22"
       height="22"
       x="5"
       y="5"
       id="rect2" />
    <path
       style="fill:url(#linearGradient44)"
       d="M 47 13 A 3 3 0 0 0 44 16 A 3 3 0 0 0 44.074219 16.650391 L 40.869141 18.652344 A 3 3 0 0 0 39 18 A 3 3 0 0 0 36 21 A 3 3 0 0 0 39 24 A 3 3 0 0 0 40.867188 23.345703 L 44.074219 25.349609 A 3 3 0 0 0 44 26 A 3 3 0 0 0 47 29 A 3 3 0 0 0 50 26 A 3 3 0 0 0 47 23 A 3 3 0 0 0 45.132812 23.654297 L 41.925781 21.650391 A 3 3 0 0 0 42 21 A 3 3 0 0 0 41.925781 20.349609 L 45.130859 18.345703 A 3 3 0 0 0 47 19 A 3 3 0 0 0 50 16 A 3 3 0 0 0 47 13 z "
       transform="translate(-27,-5.0000005)"
       id="path4" />
  </g>
  <g
     id="emblem-shared-symbolic">
    <rect
       style="opacity:0.001"
       width="32"
       height="32"
       x="0"
       y="0"
       id="rect9" />
    <path
       style="fill:url(#linearGradient36)"
       d="M 21.5 4 A 4.5000001 4.5000001 0 0 0 17 8.5 A 4.5000001 4.5000001 0 0 0 17.082031 9.3417969 L 12.404297 12.070312 A 4.5000001 4.5000001 0 0 0 9.5 11 A 4.5000001 4.5000001 0 0 0 5 15.5 A 4.5000001 4.5000001 0 0 0 9.5 20 A 4.5000001 4.5000001 0 0 0 12.408203 18.931641 L 17.083984 21.660156 A 4.5000001 4.5000001 0 0 0 17 22.5 A 4.5000001 4.5000001 0 0 0 21.5 27 A 4.5000001 4.5000001 0 0 0 26 22.5 A 4.5000001 4.5000001 0 0 0 21.5 18 A 4.5000001 4.5000001 0 0 0 18.591797 19.068359 L 13.916016 16.339844 A 4.5000001 4.5000001 0 0 0 14 15.5 A 4.5000001 4.5000001 0 0 0 13.917969 14.658203 L 18.595703 11.929688 A 4.5000001 4.5000001 0 0 0 21.5 13 A 4.5000001 4.5000001 0 0 0 26 8.5 A 4.5000001 4.5000001 0 0 0 21.5 4 z "
       id="path11" />
  </g>
</svg>
