<?xml version="1.0" encoding="UTF-8" standalone="no"?>
<svg
   xmlns:dc="http://purl.org/dc/elements/1.1/"
   xmlns:cc="http://creativecommons.org/ns#"
   xmlns:rdf="http://www.w3.org/1999/02/22-rdf-syntax-ns#"
   xmlns:svg="http://www.w3.org/2000/svg"
   xmlns="http://www.w3.org/2000/svg"
   xmlns:xlink="http://www.w3.org/1999/xlink"
   xmlns:sodipodi="http://sodipodi.sourceforge.net/DTD/sodipodi-0.dtd"
   xmlns:inkscape="http://www.inkscape.org/namespaces/inkscape"
   width="32"
   height="32"
   version="1.1"
   id="svg16"
   sodipodi:docname="klipper.svg"
   inkscape:version="0.92.4 (5da689c313, 2019-01-14)">
  <metadata
     id="metadata22">
    <rdf:RDF>
      <cc:Work
         rdf:about="">
        <dc:format>image/svg+xml</dc:format>
        <dc:type
           rdf:resource="http://purl.org/dc/dcmitype/StillImage" />
      </cc:Work>
    </rdf:RDF>
  </metadata>
  <defs
     id="defs20">
    <linearGradient
       inkscape:collect="always"
       id="linearGradient52">
      <stop
         style="stop-color:#ff00ff;stop-opacity:1"
         offset="0"
         id="stop48" />
      <stop
         style="stop-color:#00ffff;stop-opacity:1"
         offset="1"
         id="stop50" />
    </linearGradient>
    <linearGradient
       inkscape:collect="always"
       id="linearGradient44">
      <stop
         style="stop-color:#ff00ff;stop-opacity:1"
         offset="0"
         id="stop40" />
      <stop
         style="stop-color:#00ffff;stop-opacity:1"
         offset="1"
         id="stop42" />
    </linearGradient>
    <linearGradient
       inkscape:collect="always"
       id="linearGradient36">
      <stop
         style="stop-color:#ff00ff;stop-opacity:1"
         offset="0"
         id="stop32" />
      <stop
         style="stop-color:#00ffff;stop-opacity:1"
         offset="1"
         id="stop34" />
    </linearGradient>
    <linearGradient
       inkscape:collect="always"
       id="linearGradient28">
      <stop
         style="stop-color:#ff00ff;stop-opacity:1"
         offset="0"
         id="stop24" />
      <stop
         style="stop-color:#00ffff;stop-opacity:1"
         offset="1"
         id="stop26" />
    </linearGradient>
    <linearGradient
       inkscape:collect="always"
       xlink:href="#linearGradient28"
       id="linearGradient30"
       x1="4"
       y1="19.5"
       x2="19"
       y2="19.5"
       gradientUnits="userSpaceOnUse" />
    <linearGradient
       inkscape:collect="always"
       xlink:href="#linearGradient36"
       id="linearGradient38"
       x1="13"
       y1="12.5"
       x2="28"
       y2="12.5"
       gradientUnits="userSpaceOnUse" />
    <linearGradient
       inkscape:collect="always"
       xlink:href="#linearGradient44"
       id="linearGradient46"
       x1="3"
       y1="13.5"
       x2="13"
       y2="13.5"
       gradientUnits="userSpaceOnUse" />
    <linearGradient
       inkscape:collect="always"
       xlink:href="#linearGradient52"
       id="linearGradient54"
       x1="9"
       y1="8.5"
       x2="19"
       y2="8.5"
       gradientUnits="userSpaceOnUse" />
  </defs>
  <sodipodi:namedview
     pagecolor="#ffffff"
     bordercolor="#666666"
     borderopacity="1"
     objecttolerance="10"
     gridtolerance="10"
     guidetolerance="10"
     inkscape:pageopacity="0"
     inkscape:pageshadow="2"
     inkscape:window-width="1920"
     inkscape:window-height="1000"
     id="namedview18"
     showgrid="false"
     inkscape:zoom="7.375"
     inkscape:cx="16"
     inkscape:cy="16"
     inkscape:window-x="0"
     inkscape:window-y="0"
     inkscape:window-maximized="1"
     inkscape:current-layer="svg16" />
  <g
     id="22-22-klipper"
     transform="translate(32.000001,10.000001)">
    <rect
       style="opacity:0.001"
       width="22"
       height="22"
       x="0"
       y="0"
       id="rect2" />
    <path
       style="fill:url(#linearGradient46)"
       d="M 5,8 C 3.892,8 3,8.892 3,10 v 7 c 0,1.108 0.892,2 2,2 h 6 c 1.108,0 2,-0.892 2,-2 V 10 C 13,8.892 12.108,8 11,8 Z m 0,2 h 6 v 1 H 5 Z m 0,2 h 6 v 1 H 5 Z m 0,2 h 6 v 1 H 5 Z m 0,2 h 4 v 1 H 5 Z"
       id="path4" />
    <path
       style="opacity:0.3;fill:url(#linearGradient54)"
       d="M 11,3 C 9.892,3 9,3.892 9,5 v 7 c 0,1.108 0.892,2 2,2 h 6 c 1.108,0 2,-0.892 2,-2 V 5 C 19,3.892 18.108,3 17,3 Z m 0,2 h 6 v 1 h -6 z m 0,2 h 6 v 1 h -6 z m 0,2 h 6 v 1 h -6 z m 0,2 h 4 v 1 h -4 z"
       id="path6" />
  </g>
  <g
     id="klipper">
    <rect
       style="opacity:0.001"
       width="32"
       height="32"
       x="0"
       y="0"
       id="rect9" />
    <path
       style="fill:url(#linearGradient30)"
       d="M 7 11 C 5.3379999 11 4 12.379434 4 14.091797 L 4 24.908203 C 4 26.620567 5.3379999 28 7 28 L 16 28 C 17.662 28 19 26.620567 19 24.908203 L 19 14.091797 C 19 12.379434 17.662 11 16 11 L 7 11 z M 7 14 L 16 14 L 16 16 L 7 16 L 7 14 z M 7 17 L 16 17 L 16 19 L 7 19 L 7 17 z M 7 20 L 16 20 L 16 22 L 7 22 L 7 20 z M 7 23 L 13 23 L 13 25 L 7 25 L 7 23 z"
       id="path11" />
    <path
       style="fill:url(#linearGradient38);opacity:0.3"
       d="M 16,4 C 14.338,4 13,5.379434 13,7.091797 V 17.908203 C 13,19.620567 14.338,21 16,21 h 9 c 1.662,0 3,-1.379433 3,-3.091797 V 7.091797 C 28,5.379434 26.662,4 25,4 Z m 0,3 h 9 v 2 h -9 z m 0,3 h 9 v 2 h -9 z m 0,3 h 9 v 2 h -9 z m 0,3 h 6 v 2 h -6 z"
       id="path13" />
  </g>
</svg>
