<?xml version="1.0" encoding="UTF-8" standalone="no"?>
<svg
   xmlns:dc="http://purl.org/dc/elements/1.1/"
   xmlns:cc="http://creativecommons.org/ns#"
   xmlns:rdf="http://www.w3.org/1999/02/22-rdf-syntax-ns#"
   xmlns:svg="http://www.w3.org/2000/svg"
   xmlns="http://www.w3.org/2000/svg"
   xmlns:xlink="http://www.w3.org/1999/xlink"
   xmlns:sodipodi="http://sodipodi.sourceforge.net/DTD/sodipodi-0.dtd"
   xmlns:inkscape="http://www.inkscape.org/namespaces/inkscape"
   width="32"
   height="32"
   version="1.1"
   id="svg16"
   sodipodi:docname="konv_message.svg"
   inkscape:version="0.92.4 (5da689c313, 2019-01-14)">
  <metadata
     id="metadata22">
    <rdf:RDF>
      <cc:Work
         rdf:about="">
        <dc:format>image/svg+xml</dc:format>
        <dc:type
           rdf:resource="http://purl.org/dc/dcmitype/StillImage" />
      </cc:Work>
    </rdf:RDF>
  </metadata>
  <defs
     id="defs20">
    <linearGradient
       inkscape:collect="always"
       id="linearGradient36">
      <stop
         style="stop-color:#ff00ff;stop-opacity:1"
         offset="0"
         id="stop32" />
      <stop
         style="stop-color:#00ffff;stop-opacity:1"
         offset="1"
         id="stop34" />
    </linearGradient>
    <linearGradient
       inkscape:collect="always"
       id="linearGradient28">
      <stop
         style="stop-color:#ff00ff;stop-opacity:1"
         offset="0"
         id="stop24" />
      <stop
         style="stop-color:#00ffff;stop-opacity:1"
         offset="1"
         id="stop26" />
    </linearGradient>
    <linearGradient
       inkscape:collect="always"
       xlink:href="#linearGradient28"
       id="linearGradient30"
       x1="4.0000003"
       y1="15.974964"
       x2="28"
       y2="15.974964"
       gradientUnits="userSpaceOnUse" />
    <linearGradient
       inkscape:collect="always"
       xlink:href="#linearGradient36"
       id="linearGradient38"
       x1="35"
       y1="21.49998"
       x2="51"
       y2="21.49998"
       gradientUnits="userSpaceOnUse"
       gradientTransform="translate(0,-1.9073486e-6)" />
  </defs>
  <sodipodi:namedview
     pagecolor="#ffffff"
     bordercolor="#666666"
     borderopacity="1"
     objecttolerance="10"
     gridtolerance="10"
     guidetolerance="10"
     inkscape:pageopacity="0"
     inkscape:pageshadow="2"
     inkscape:window-width="1920"
     inkscape:window-height="1000"
     id="namedview18"
     showgrid="false"
     inkscape:zoom="7.375"
     inkscape:cx="16"
     inkscape:cy="16"
     inkscape:window-x="0"
     inkscape:window-y="0"
     inkscape:window-maximized="1"
     inkscape:current-layer="svg16" />
  <g
     id="22-22-konv_message"
     transform="translate(0,-1.9073486e-6)">
    <rect
       style="opacity:0.001"
       width="22"
       height="22"
       x="32"
       y="10"
       id="rect2" />
    <path
       style="fill:url(#linearGradient38)"
       d="M 35 12 A 2 2 0 0 0 33 14 A 2 2 0 0 0 35 16 A 2 2 0 0 0 37 14 A 2 2 0 0 0 35 12 z M 48.240234 14 A 0.73690325 0.65014443 0 0 0 48.054688 14.025391 L 35.529297 17.275391 A 0.73690325 0.65014443 0 0 0 35 17.898438 L 35 23.101562 A 0.73690325 0.65014443 0 0 0 35.529297 23.724609 L 37 24.105469 L 37 29 L 39 29 L 39 24.625 L 48.054688 26.974609 A 0.73690325 0.65014443 0 0 0 49 26.351562 L 49 23 L 51 23 L 51 17.998047 L 49 17.998047 L 49 17.992188 L 49 14.648438 A 0.73690325 0.65014443 0 0 0 48.240234 14 z "
       transform="translate(0,1.9073486e-6)"
       id="path4" />
  </g>
  <g
     id="konv_message">
    <rect
       style="opacity:0.001"
       width="32"
       height="32"
       x="0"
       y="0"
       id="rect9" />
    <path
       style="fill:url(#linearGradient30)"
       d="M 5 2 A 3 3 0 0 0 2 5 A 3 3 0 0 0 5 8 A 3 3 0 0 0 8 5 A 3 3 0 0 0 5 2 z M 23.861328 4.9511719 C 23.767098 4.9533419 23.672584 4.9651672 23.582031 4.9882812 L 4.7949219 9.8632812 C 4.3246784 9.9850986 4.0005234 10.366434 4 10.798828 L 4 18.201172 C 4.0005242 18.633565 4.324679 19.012949 4.7949219 19.134766 L 7 19.707031 L 7 27 L 10 27 L 10 20.486328 L 23.582031 24.011719 C 24.289816 24.195844 24.999448 23.727205 25 23.076172 L 25 18 L 28 18 L 28 11.003906 L 25 11.003906 L 25 10.996094 L 25 5.9238281 C 24.9987 5.3741748 24.484031 4.9341179 23.861328 4.9511719 z "
       id="path11" />
  </g>
</svg>
