<?xml version="1.0" encoding="UTF-8" standalone="no"?>
<svg
   xmlns:dc="http://purl.org/dc/elements/1.1/"
   xmlns:cc="http://creativecommons.org/ns#"
   xmlns:rdf="http://www.w3.org/1999/02/22-rdf-syntax-ns#"
   xmlns:svg="http://www.w3.org/2000/svg"
   xmlns="http://www.w3.org/2000/svg"
   xmlns:xlink="http://www.w3.org/1999/xlink"
   xmlns:sodipodi="http://sodipodi.sourceforge.net/DTD/sodipodi-0.dtd"
   xmlns:inkscape="http://www.inkscape.org/namespaces/inkscape"
   width="32"
   height="32"
   version="1.1"
   id="svg12"
   sodipodi:docname="korgac.svg"
   inkscape:version="0.92.4 (5da689c313, 2019-01-14)">
  <metadata
     id="metadata18">
    <rdf:RDF>
      <cc:Work
         rdf:about="">
        <dc:format>image/svg+xml</dc:format>
        <dc:type
           rdf:resource="http://purl.org/dc/dcmitype/StillImage" />
      </cc:Work>
    </rdf:RDF>
  </metadata>
  <defs
     id="defs16">
    <linearGradient
       inkscape:collect="always"
       id="linearGradient32">
      <stop
         style="stop-color:#ff00ff;stop-opacity:1"
         offset="0"
         id="stop28" />
      <stop
         style="stop-color:#00ffff;stop-opacity:1"
         offset="1"
         id="stop30" />
    </linearGradient>
    <linearGradient
       inkscape:collect="always"
       id="linearGradient24">
      <stop
         style="stop-color:#ff00ff;stop-opacity:1"
         offset="0"
         id="stop20" />
      <stop
         style="stop-color:#00ffff;stop-opacity:1"
         offset="1"
         id="stop22" />
    </linearGradient>
    <linearGradient
       inkscape:collect="always"
       xlink:href="#linearGradient24"
       id="linearGradient26"
       x1="3"
       y1="15.5"
       x2="28"
       y2="15.5"
       gradientUnits="userSpaceOnUse" />
    <linearGradient
       inkscape:collect="always"
       xlink:href="#linearGradient32"
       id="linearGradient34"
       x1="33.998047"
       y1="20.996094"
       x2="51.998047"
       y2="20.996094"
       gradientUnits="userSpaceOnUse" />
  </defs>
  <sodipodi:namedview
     pagecolor="#ffffff"
     bordercolor="#666666"
     borderopacity="1"
     objecttolerance="10"
     gridtolerance="10"
     guidetolerance="10"
     inkscape:pageopacity="0"
     inkscape:pageshadow="2"
     inkscape:window-width="1920"
     inkscape:window-height="1000"
     id="namedview14"
     showgrid="false"
     inkscape:zoom="7.375"
     inkscape:cx="16"
     inkscape:cy="16"
     inkscape:window-x="0"
     inkscape:window-y="0"
     inkscape:window-maximized="1"
     inkscape:current-layer="svg12" />
  <g
     id="22-22-korgac">
    <rect
       style="opacity:0.001"
       width="22"
       height="22"
       x="32"
       y="10"
       id="rect2" />
    <path
       style="fill:url(#linearGradient34)"
       d="m 42.998047,11.996094 c -4.970563,0 -9,4.029437 -9,9 0,4.970563 4.029437,9 9,9 4.970563,0 9,-4.029437 9,-9 0,-4.970563 -4.029437,-9 -9,-9 z m 0,3 c 3.313708,0 6,2.686292 6,6 0,3.313708 -2.686292,6 -6,6 -3.313708,0 -6,-2.686292 -6,-6 0,-3.313708 2.686292,-6 6,-6 z M 42,16 v 4 2 h 2 4 v -2 h -4 v -4 z"
       id="path4" />
  </g>
  <g
     id="korgac">
    <rect
       style="opacity:0.001"
       width="32"
       height="32"
       x="0"
       y="0"
       id="rect7" />
    <path
       style="fill:url(#linearGradient26)"
       d="M 15.5 3 C 8.5964401 3 3 8.5964401 3 15.5 C 3 22.40356 8.5964401 28 15.5 28 C 22.40356 28 28 22.40356 28 15.5 C 28 8.5964401 22.40356 3 15.5 3 z M 15.5 7 C 20.19442 7 24 10.80558 24 15.5 C 24 20.194419 20.19442 24 15.5 24 C 10.805581 24 7 20.194419 7 15.5 C 7 10.80558 10.805581 7 15.5 7 z M 14 9 L 14 14 L 14 17 L 17 17 L 22 17 L 22 14 L 17 14 L 17 9 L 14 9 z"
       id="path9" />
  </g>
</svg>
