<?xml version="1.0" encoding="UTF-8" standalone="no"?>
<svg
   xmlns:dc="http://purl.org/dc/elements/1.1/"
   xmlns:cc="http://creativecommons.org/ns#"
   xmlns:rdf="http://www.w3.org/1999/02/22-rdf-syntax-ns#"
   xmlns:svg="http://www.w3.org/2000/svg"
   xmlns="http://www.w3.org/2000/svg"
   xmlns:xlink="http://www.w3.org/1999/xlink"
   xmlns:sodipodi="http://sodipodi.sourceforge.net/DTD/sodipodi-0.dtd"
   xmlns:inkscape="http://www.inkscape.org/namespaces/inkscape"
   width="32"
   height="32"
   version="1.1"
   id="svg40"
   sodipodi:docname="mail.svg"
   inkscape:version="0.92.4 (5da689c313, 2019-01-14)">
  <metadata
     id="metadata46">
    <rdf:RDF>
      <cc:Work
         rdf:about="">
        <dc:format>image/svg+xml</dc:format>
        <dc:type
           rdf:resource="http://purl.org/dc/dcmitype/StillImage" />
      </cc:Work>
    </rdf:RDF>
  </metadata>
  <defs
     id="defs44">
    <linearGradient
       inkscape:collect="always"
       id="linearGradient926">
      <stop
         style="stop-color:#ff00ff;stop-opacity:1;"
         offset="0"
         id="stop922" />
      <stop
         style="stop-color:#ff00ff;stop-opacity:0;"
         offset="1"
         id="stop924" />
    </linearGradient>
    <linearGradient
       inkscape:collect="always"
       id="linearGradient910">
      <stop
         style="stop-color:#ff00ff;stop-opacity:1"
         offset="0"
         id="stop906" />
      <stop
         style="stop-color:#00ffff;stop-opacity:1"
         offset="1"
         id="stop908" />
    </linearGradient>
    <linearGradient
       inkscape:collect="always"
       id="linearGradient902">
      <stop
         style="stop-color:#ff00ff;stop-opacity:1"
         offset="0"
         id="stop898" />
      <stop
         style="stop-color:#00ffff;stop-opacity:1"
         offset="1"
         id="stop900" />
    </linearGradient>
    <linearGradient
       inkscape:collect="always"
       id="linearGradient92">
      <stop
         style="stop-color:#000000;stop-opacity:1;"
         offset="0"
         id="stop88" />
      <stop
         style="stop-color:#000000;stop-opacity:0;"
         offset="1"
         id="stop90" />
    </linearGradient>
    <linearGradient
       inkscape:collect="always"
       id="linearGradient84">
      <stop
         style="stop-color:#000000;stop-opacity:1;"
         offset="0"
         id="stop80" />
      <stop
         style="stop-color:#000000;stop-opacity:0;"
         offset="1"
         id="stop82" />
    </linearGradient>
    <linearGradient
       inkscape:collect="always"
       id="linearGradient68">
      <stop
         style="stop-color:#ff00ff;stop-opacity:1"
         offset="0"
         id="stop64" />
      <stop
         style="stop-color:#00ffff;stop-opacity:1"
         offset="1"
         id="stop66" />
    </linearGradient>
    <linearGradient
       inkscape:collect="always"
       id="linearGradient60">
      <stop
         style="stop-color:#ff00ff;stop-opacity:1"
         offset="0"
         id="stop56" />
      <stop
         style="stop-color:#00ffff;stop-opacity:1"
         offset="1"
         id="stop58" />
    </linearGradient>
    <linearGradient
       inkscape:collect="always"
       id="linearGradient52">
      <stop
         style="stop-color:#000000;stop-opacity:1;"
         offset="0"
         id="stop48" />
      <stop
         style="stop-color:#000000;stop-opacity:0;"
         offset="1"
         id="stop50" />
    </linearGradient>
    <linearGradient
       inkscape:collect="always"
       xlink:href="#linearGradient52"
       id="linearGradient54"
       x1="-2.9544998e-07"
       y1="16"
       x2="32"
       y2="16"
       gradientUnits="userSpaceOnUse" />
    <linearGradient
       inkscape:collect="always"
       xlink:href="#linearGradient60"
       id="linearGradient62"
       x1="3"
       y1="-11"
       x2="19"
       y2="-11"
       gradientUnits="userSpaceOnUse" />
    <linearGradient
       inkscape:collect="always"
       xlink:href="#linearGradient68"
       id="linearGradient70"
       x1="3"
       y1="-11"
       x2="19"
       y2="-11"
       gradientUnits="userSpaceOnUse" />
    <linearGradient
       inkscape:collect="always"
       xlink:href="#linearGradient84"
       id="linearGradient86"
       x1="64"
       y1="16"
       x2="96.000001"
       y2="16"
       gradientUnits="userSpaceOnUse"
       gradientTransform="translate(64.000001,-3e-6)" />
    <linearGradient
       inkscape:collect="always"
       xlink:href="#linearGradient92"
       id="linearGradient94"
       x1="-2.9544998e-07"
       y1="16"
       x2="32"
       y2="16"
       gradientUnits="userSpaceOnUse"
       gradientTransform="translate(32)" />
    <linearGradient
       inkscape:collect="always"
       xlink:href="#linearGradient902"
       id="linearGradient904"
       x1="4"
       y1="16"
       x2="28"
       y2="16"
       gradientUnits="userSpaceOnUse" />
    <linearGradient
       inkscape:collect="always"
       xlink:href="#linearGradient910"
       id="linearGradient912"
       x1="36"
       y1="16"
       x2="60"
       y2="16"
       gradientUnits="userSpaceOnUse" />
    <linearGradient
       inkscape:collect="always"
       xlink:href="#linearGradient926"
       id="linearGradient928"
       x1="64"
       y1="-11"
       x2="86"
       y2="-11"
       gradientUnits="userSpaceOnUse" />
  </defs>
  <sodipodi:namedview
     pagecolor="#ffffff"
     bordercolor="#666666"
     borderopacity="1"
     objecttolerance="10"
     gridtolerance="10"
     guidetolerance="10"
     inkscape:pageopacity="0"
     inkscape:pageshadow="2"
     inkscape:window-width="1920"
     inkscape:window-height="1000"
     id="namedview42"
     showgrid="false"
     inkscape:zoom="7.375"
     inkscape:cx="35.509366"
     inkscape:cy="16.520776"
     inkscape:window-x="0"
     inkscape:window-y="0"
     inkscape:window-maximized="1"
     inkscape:current-layer="svg40" />
  <path
     inkscape:connector-curvature="0"
     id="path2"
     d="m 68.99989,-17 c -1.108,0 -2,0.892 -2,2 v 8 c 0,1.108 0.892,2 2,2 h 12 c 1.108,0 2,-0.892 2,-2 v -8 c 0,-1.108 -0.892,-2 -2,-2 z m 0,2 6,3 6,-3 v 2 l -6,3 -6,-3 z"
     style="fill:#dedede" />
  <path
     inkscape:connector-curvature="0"
     id="path4"
     d="M 64,-22 H 86 V 0 H 64 Z"
     style="opacity:0.00100002;fill:url(#linearGradient928);fill-opacity:1" />
  <g
     id="22-22-mail-unread-new"
     transform="translate(31.99989)">
    <path
       style="opacity:0.001"
       d="m 1.1e-4,-22 h 22 V 0 h -22 z"
       id="path7" />
    <path
       style="fill:url(#linearGradient70)"
       d="m 5,-17 c -1.108,0 -2,0.892 -2,2 v 8 c 0,1.108 0.892,2 2,2 h 11 c -1.645,0 -3,-1.355 -3,-3 0,-1.645 1.355,-3 3,-3 1.645,0 3,1.355 3,3 v -7 c 0,-1.108 -0.892,-2 -2,-2 z m 0,2 6,3 6,-3 v 2 l -6,3 -6,-3 z"
       id="path9" />
    <path
       style="fill:#00a698"
       d="m 16,-10 a 2,2 0 0 0 -2,2 2,2 0 0 0 2,2 2,2 0 0 0 2,-2 2,2 0 0 0 -2,-2 z"
       id="path11" />
  </g>
  <g
     id="22-22-mail-mark-unread-new"
     transform="translate(-1.1029545e-4)">
    <path
       style="opacity:0.001"
       d="m 1.1e-4,-22 h 22 V 0 h -22 z"
       id="path14" />
    <path
       style="fill:url(#linearGradient62)"
       d="m 5,-17 c -1.108,0 -2,0.892 -2,2 v 8 c 0,1.108 0.892,2 2,2 h 11 c -1.645,0 -3,-1.355 -3,-3 0,-1.645 1.355,-3 3,-3 1.645,0 3,1.355 3,3 v -7 c 0,-1.108 -0.892,-2 -2,-2 z m 0,2 6,3 6,-3 v 2 l -6,3 -6,-3 z"
       id="path16" />
    <path
       style="fill:#00a698"
       d="m 16,-10 a 2,2 0 0 0 -2,2 2,2 0 0 0 2,2 2,2 0 0 0 2,-2 2,2 0 0 0 -2,-2 z"
       id="path18" />
  </g>
  <path
     inkscape:connector-curvature="0"
     id="path21"
     d="m 71.000001,6.999997 c -1.662,0 -3,1.3380001 -3,3 v 12 c 0,1.662 1.338,3 3,3 h 18 c 1.661999,0 3,-1.338 3,-3 v -12 c 0,-1.662 -1.338001,-3 -3,-3 z m 0,3 9,4.5 9,-4.5 v 3 l -9,4.500001 -9,-4.500001 z"
     style="fill:#dedede" />
  <path
     inkscape:connector-curvature="0"
     id="path23"
     d="M 64,-5e-7 H 96.000001 V 32 H 64 Z"
     style="opacity:0.00100002;fill:url(#linearGradient86)" />
  <path
     inkscape:connector-curvature="0"
     id="path26"
     d="M 7,7 C 5.338,7 4,8.3380001 4,10 v 12 c 0,1.662 1.338,3 3,3 h 16 a 5,5 0 0 1 -5,-5 5,5 0 0 1 5,-5 5,5 0 0 1 5,5 V 10 C 28,8.3379999 26.661999,7 25,7 Z m 0,3 9,4.5 9,-4.5 v 3 L 16,17.5 7,13 Z M 28,20.007812 A 5,5 0 0 1 27.894531,21 H 28 Z"
     style="fill:url(#linearGradient904)" />
  <path
     inkscape:connector-curvature="0"
     id="path28"
     d="M -2.9544998e-7,-2.5e-7 H 32 V 32 H -2.9544998e-7 Z"
     style="opacity:0.00100002;fill:url(#linearGradient54)" />
  <path
     inkscape:connector-curvature="0"
     id="path30"
     d="m 23,17 a 3,3 0 0 0 -3,3 3,3 0 0 0 3,3 3,3 0 0 0 3,-3 3,3 0 0 0 -3,-3 z"
     style="fill:#00a698" />
  <path
     inkscape:connector-curvature="0"
     id="path33"
     d="m 39,7 c -1.662,0 -3,1.3380001 -3,3 v 12 c 0,1.662 1.338,3 3,3 h 16 a 5,5 0 0 1 -5,-5 5,5 0 0 1 5,-5 5,5 0 0 1 5,5 V 10 C 60,8.3379999 58.661999,7 57,7 Z m 0,3 9,4.5 9,-4.5 v 3 L 48,17.5 39,13 Z M 60,20.007812 A 5,5 0 0 1 59.894531,21 H 60 Z"
     style="fill:url(#linearGradient912)" />
  <path
     inkscape:connector-curvature="0"
     id="path35"
     d="M 32,-2.5e-7 H 64 V 32 H 32 Z"
     style="opacity:0.00100002;fill:url(#linearGradient94)" />
  <path
     inkscape:connector-curvature="0"
     id="path37"
     d="m 55,17 a 3,3 0 0 0 -3,3 3,3 0 0 0 3,3 3,3 0 0 0 3,-3 3,3 0 0 0 -3,-3 z"
     style="fill:#00a698" />
</svg>
