<?xml version="1.0" encoding="UTF-8" standalone="no"?>
<svg
   xmlns:dc="http://purl.org/dc/elements/1.1/"
   xmlns:cc="http://creativecommons.org/ns#"
   xmlns:rdf="http://www.w3.org/1999/02/22-rdf-syntax-ns#"
   xmlns:svg="http://www.w3.org/2000/svg"
   xmlns="http://www.w3.org/2000/svg"
   xmlns:xlink="http://www.w3.org/1999/xlink"
   xmlns:sodipodi="http://sodipodi.sourceforge.net/DTD/sodipodi-0.dtd"
   xmlns:inkscape="http://www.inkscape.org/namespaces/inkscape"
   width="32"
   height="32"
   version="1.1"
   id="svg40"
   sodipodi:docname="mail.svg"
   inkscape:version="0.92.4 (5da689c313, 2019-01-14)">
  <metadata
     id="metadata46">
    <rdf:RDF>
      <cc:Work
         rdf:about="">
        <dc:format>image/svg+xml</dc:format>
        <dc:type
           rdf:resource="http://purl.org/dc/dcmitype/StillImage" />
      </cc:Work>
    </rdf:RDF>
  </metadata>
  <defs
     id="defs44">
    <linearGradient
       inkscape:collect="always"
       id="linearGradient92">
      <stop
         style="stop-color:#000000;stop-opacity:1;"
         offset="0"
         id="stop88" />
      <stop
         style="stop-color:#000000;stop-opacity:0;"
         offset="1"
         id="stop90" />
    </linearGradient>
    <linearGradient
       inkscape:collect="always"
       id="linearGradient84">
      <stop
         style="stop-color:#000000;stop-opacity:1;"
         offset="0"
         id="stop80" />
      <stop
         style="stop-color:#000000;stop-opacity:0;"
         offset="1"
         id="stop82" />
    </linearGradient>
    <linearGradient
       inkscape:collect="always"
       id="linearGradient76">
      <stop
         style="stop-color:#ff00ff;stop-opacity:1"
         offset="0"
         id="stop72" />
      <stop
         style="stop-color:#000000;stop-opacity:0;"
         offset="1"
         id="stop74" />
    </linearGradient>
    <linearGradient
       inkscape:collect="always"
       id="linearGradient68">
      <stop
         style="stop-color:#ff00ff;stop-opacity:1"
         offset="0"
         id="stop64" />
      <stop
         style="stop-color:#00ffff;stop-opacity:1"
         offset="1"
         id="stop66" />
    </linearGradient>
    <linearGradient
       inkscape:collect="always"
       id="linearGradient60">
      <stop
         style="stop-color:#ff00ff;stop-opacity:1"
         offset="0"
         id="stop56" />
      <stop
         style="stop-color:#00ffff;stop-opacity:1"
         offset="1"
         id="stop58" />
    </linearGradient>
    <linearGradient
       inkscape:collect="always"
       id="linearGradient52">
      <stop
         style="stop-color:#000000;stop-opacity:1;"
         offset="0"
         id="stop48" />
      <stop
         style="stop-color:#000000;stop-opacity:0;"
         offset="1"
         id="stop50" />
    </linearGradient>
    <linearGradient
       inkscape:collect="always"
       xlink:href="#linearGradient52"
       id="linearGradient54"
       x1="-2.9544998e-07"
       y1="16"
       x2="32"
       y2="16"
       gradientUnits="userSpaceOnUse" />
    <linearGradient
       inkscape:collect="always"
       xlink:href="#linearGradient60"
       id="linearGradient62"
       x1="3"
       y1="-11"
       x2="19"
       y2="-11"
       gradientUnits="userSpaceOnUse" />
    <linearGradient
       inkscape:collect="always"
       xlink:href="#linearGradient68"
       id="linearGradient70"
       x1="3"
       y1="-11"
       x2="19"
       y2="-11"
       gradientUnits="userSpaceOnUse" />
    <linearGradient
       inkscape:collect="always"
       xlink:href="#linearGradient76"
       id="linearGradient78"
       x1="467.0002"
       y1="146"
       x2="489.0002"
       y2="146"
       gradientUnits="userSpaceOnUse" />
    <linearGradient
       inkscape:collect="always"
       xlink:href="#linearGradient84"
       id="linearGradient86"
       x1="-5.9089996e-07"
       y1="16.000003"
       x2="32"
       y2="16.000003"
       gradientUnits="userSpaceOnUse" />
    <linearGradient
       inkscape:collect="always"
       xlink:href="#linearGradient92"
       id="linearGradient94"
       x1="-2.9544998e-07"
       y1="16"
       x2="32"
       y2="16"
       gradientUnits="userSpaceOnUse" />
  </defs>
  <sodipodi:namedview
     pagecolor="#ffffff"
     bordercolor="#666666"
     borderopacity="1"
     objecttolerance="10"
     gridtolerance="10"
     guidetolerance="10"
     inkscape:pageopacity="0"
     inkscape:pageshadow="2"
     inkscape:window-width="1920"
     inkscape:window-height="1000"
     id="namedview42"
     showgrid="false"
     inkscape:zoom="7.375"
     inkscape:cx="16"
     inkscape:cy="16"
     inkscape:window-x="0"
     inkscape:window-y="0"
     inkscape:window-maximized="1"
     inkscape:current-layer="svg40" />
  <g
     id="22-22-mail-unread"
     transform="translate(-403.0002,-157)">
    <path
       style="fill:#dedede"
       d="m 472.00009,140 c -1.108,0 -2,0.892 -2,2 v 8 c 0,1.108 0.892,2 2,2 h 12 c 1.108,0 2,-0.892 2,-2 v -8 c 0,-1.108 -0.892,-2 -2,-2 z m 0,2 6,3 6,-3 v 2 l -6,3 -6,-3 z"
       id="path2" />
    <path
       style="opacity:0.001;fill:url(#linearGradient78)"
       d="m 467.0002,135 h 22 v 22 h -22 z"
       id="path4" />
  </g>
  <g
     id="22-22-mail-unread-new"
     transform="translate(31.99989)">
    <path
       style="opacity:0.001"
       d="m 1.1e-4,-22 h 22 V 0 h -22 z"
       id="path7" />
    <path
       style="fill:url(#linearGradient70)"
       d="m 5,-17 c -1.108,0 -2,0.892 -2,2 v 8 c 0,1.108 0.892,2 2,2 h 11 c -1.645,0 -3,-1.355 -3,-3 0,-1.645 1.355,-3 3,-3 1.645,0 3,1.355 3,3 v -7 c 0,-1.108 -0.892,-2 -2,-2 z m 0,2 6,3 6,-3 v 2 l -6,3 -6,-3 z"
       id="path9" />
    <path
       style="fill:#00a698"
       d="m 16,-10 a 2,2 0 0 0 -2,2 2,2 0 0 0 2,2 2,2 0 0 0 2,-2 2,2 0 0 0 -2,-2 z"
       id="path11" />
  </g>
  <g
     id="22-22-mail-mark-unread-new"
     transform="translate(-1.1029545e-4)">
    <path
       style="opacity:0.001"
       d="m 1.1e-4,-22 h 22 V 0 h -22 z"
       id="path14" />
    <path
       style="fill:url(#linearGradient62)"
       d="m 5,-17 c -1.108,0 -2,0.892 -2,2 v 8 c 0,1.108 0.892,2 2,2 h 11 c -1.645,0 -3,-1.355 -3,-3 0,-1.645 1.355,-3 3,-3 1.645,0 3,1.355 3,3 v -7 c 0,-1.108 -0.892,-2 -2,-2 z m 0,2 6,3 6,-3 v 2 l -6,3 -6,-3 z"
       id="path16" />
    <path
       style="fill:#00a698"
       d="m 16,-10 a 2,2 0 0 0 -2,2 2,2 0 0 0 2,2 2,2 0 0 0 2,-2 2,2 0 0 0 -2,-2 z"
       id="path18" />
  </g>
  <g
     id="mail-unread"
     transform="translate(64.000001,-3e-6)">
    <path
       style="fill:#dedede"
       d="M 7,7 C 5.338,7 4,8.3380001 4,10 v 12 c 0,1.662 1.338,3 3,3 h 18 c 1.661999,0 3,-1.338 3,-3 V 10 C 28,8.338 26.661999,7 25,7 Z m 0,3 9,4.5 9,-4.5 v 3 L 16,17.500001 7,13 Z"
       id="path21" />
    <path
       style="opacity:0.001;fill:url(#linearGradient86)"
       d="M -5.9089996e-7,2.5e-6 H 32 V 32.000003 H -5.9089996e-7 Z"
       id="path23" />
  </g>
  <g
     id="mail-mark-unread-new">
    <path
       style="fill:#dedede"
       d="M 7 7 C 5.338 7 4 8.3380001 4 10 L 4 22 C 4 23.662 5.338 25 7 25 L 23 25 A 5 5 0 0 1 18 20 A 5 5 0 0 1 23 15 A 5 5 0 0 1 28 20 L 28 10 C 28 8.3379999 26.661999 7 25 7 L 7 7 z M 7 10 L 16 14.5 L 25 10 L 25 13 L 16 17.5 L 7 13 L 7 10 z M 28 20.007812 A 5 5 0 0 1 27.894531 21 L 28 21 L 28 20.007812 z"
       id="path26" />
    <path
       style="opacity:0.001;fill:url(#linearGradient54)"
       d="M -2.9544998e-7,-2.5e-7 H 32 V 32 H -2.9544998e-7 Z"
       id="path28" />
    <path
       style="fill:#00a698"
       d="m 23,17 a 3,3 0 0 0 -3,3 3,3 0 0 0 3,3 3,3 0 0 0 3,-3 3,3 0 0 0 -3,-3 z"
       id="path30" />
  </g>
  <g
     id="mail-unread-new"
     transform="translate(32)">
    <path
       style="fill:#dedede"
       d="M 7,7 C 5.338,7 4,8.3380001 4,10 v 12 c 0,1.662 1.338,3 3,3 h 16 a 5,5 0 0 1 -5,-5 5,5 0 0 1 5,-5 5,5 0 0 1 5,5 V 10 C 28,8.3379999 26.661999,7 25,7 Z m 0,3 9,4.5 9,-4.5 v 3 L 16,17.5 7,13 Z M 28,20.007812 A 5,5 0 0 1 27.894531,21 H 28 Z"
       id="path33" />
    <path
       style="opacity:0.001;fill:url(#linearGradient94)"
       d="M -2.9544998e-7,-2.5e-7 H 32 V 32 H -2.9544998e-7 Z"
       id="path35" />
    <path
       style="fill:#00a698"
       d="m 23,17 a 3,3 0 0 0 -3,3 3,3 0 0 0 3,3 3,3 0 0 0 3,-3 3,3 0 0 0 -3,-3 z"
       id="path37" />
  </g>
</svg>
