<?xml version="1.0" encoding="UTF-8" standalone="no"?>
<svg
   xmlns:dc="http://purl.org/dc/elements/1.1/"
   xmlns:cc="http://creativecommons.org/ns#"
   xmlns:rdf="http://www.w3.org/1999/02/22-rdf-syntax-ns#"
   xmlns:svg="http://www.w3.org/2000/svg"
   xmlns="http://www.w3.org/2000/svg"
   xmlns:xlink="http://www.w3.org/1999/xlink"
   xmlns:sodipodi="http://sodipodi.sourceforge.net/DTD/sodipodi-0.dtd"
   xmlns:inkscape="http://www.inkscape.org/namespaces/inkscape"
   width="32"
   height="32"
   x="0"
   y="0"
   version="1.1"
   id="svg16"
   sodipodi:docname="mellowplayer.svg"
   inkscape:version="0.92.4 (5da689c313, 2019-01-14)">
  <metadata
     id="metadata22">
    <rdf:RDF>
      <cc:Work
         rdf:about="">
        <dc:format>image/svg+xml</dc:format>
        <dc:type
           rdf:resource="http://purl.org/dc/dcmitype/StillImage" />
      </cc:Work>
    </rdf:RDF>
  </metadata>
  <defs
     id="defs20">
    <linearGradient
       inkscape:collect="always"
       id="linearGradient28">
      <stop
         style="stop-color:#ff00ff;stop-opacity:1"
         offset="0"
         id="stop24" />
      <stop
         style="stop-color:#00ffff;stop-opacity:1"
         offset="1"
         id="stop26" />
    </linearGradient>
    <linearGradient
       inkscape:collect="always"
       xlink:href="#linearGradient28"
       id="linearGradient30"
       x1="-2.01"
       y1="16"
       x2="29.99"
       y2="16"
       gradientUnits="userSpaceOnUse" />
  </defs>
  <sodipodi:namedview
     pagecolor="#ffffff"
     bordercolor="#666666"
     borderopacity="1"
     objecttolerance="10"
     gridtolerance="10"
     guidetolerance="10"
     inkscape:pageopacity="0"
     inkscape:pageshadow="2"
     inkscape:window-width="1920"
     inkscape:window-height="1000"
     id="namedview18"
     showgrid="false"
     inkscape:zoom="7.375"
     inkscape:cx="16"
     inkscape:cy="16"
     inkscape:window-x="0"
     inkscape:window-y="0"
     inkscape:window-maximized="1"
     inkscape:current-layer="svg16" />
  <g
     id="22-22-mellowplayer"
     transform="translate(34.01,10)">
    <rect
       style="opacity:0.001"
       width="22"
       height="22"
       x="-2.01"
       y="0"
       id="rect2" />
    <path
       style="fill:#dedede"
       d="M 6.99,3 A 5,5 0 0 0 1.99,8 5,5 0 0 0 2.2947,9.6875 3,3 0 0 1 4.99,8 3,3 0 0 1 4.9959,8 V 5.4043 C 4.9962,5.4043 4.9732,5.138 5.1814,5.0332 5.3837,4.9315 5.5779,5.0938 5.5779,5.0938 L 7.5466,6.2637 A 3,3 0 0 1 9.99,5 3,3 0 0 1 11.142,5.2324 5,5 0 0 0 6.99,3 Z M 12.23,6.0078 A 3,3 0 0 1 12.99,8 3,3 0 0 1 12.681,9.3184 L 14.707,10.523 C 14.707,10.523 14.99,10.663 14.99,10.996 14.99,11.33 14.703,11.439 14.703,11.439 L 12.668,12.648 A 3,3 0 0 1 12.99,14 3,3 0 0 1 12.232,15.988 5,5 0 0 0 16.99,11 5,5 0 0 0 12.23,6.0078 Z M 2.2927,12.303 A 5,5 0 0 0 1.99,14 5,5 0 0 0 6.99,19 5,5 0 0 0 11.148,16.768 3,3 0 0 1 9.99,17 3,3 0 0 1 7.5252,15.705 L 5.4646,16.93 C 5.4646,16.93 5.3247,17.052 5.1462,16.973 4.9425,16.882 4.9959,16.65 4.9959,16.65 V 14 A 3,3 0 0 1 4.99,14 3,3 0 0 1 2.2927,12.303 Z"
       id="path4" />
    <path
       style="opacity:0.3;fill:#dedede"
       d="M 9.99,5 A 3,3 0 0 0 7.5466,6.2656 L 10.219,7.8535 12.683,9.3203 A 3,3 0 0 0 12.99,8 3,3 0 0 0 9.99,5 Z M 4.99,8 A 3,3 0 0 0 1.99,11 3,3 0 0 0 4.99,14 3,3 0 0 0 4.9959,14 V 10.982 8 A 3,3 0 0 0 4.99,8 Z M 12.666,12.65 10.209,14.109 7.5232,15.705 A 3,3 0 0 0 9.99,17 3,3 0 0 0 12.99,14 3,3 0 0 0 12.666,12.65 Z"
       id="path6" />
  </g>
  <g
     id="mellowplayer"
     transform="translate(2.01)">
    <rect
       style="opacity:0.001;fill:url(#linearGradient30)"
       width="32"
       height="32"
       x="-2.01"
       y="0"
       id="rect9" />
    <path
       style="opacity:0.3;fill:#00ffff"
       d="M 14.99,7 A 5,5 0 0 0 11.293,8.6445 L 19.677,13.717 A 5,5 0 0 0 19.99,12 5,5 0 0 0 14.99,7 Z M 7.99,11 A 5,5 0 0 0 2.99,16 5,5 0 0 0 7.99,21 Z M 19.678,18.283 11.295,23.354 A 5,5 0 0 0 14.99,25 5,5 0 0 0 19.99,20 5,5 0 0 0 19.678,18.283 Z"
       id="path11" />
    <path
       style="fill:#ff00ff"
       d="M 10.49,4 A 7.5,7.5 0 0 0 2.99,11.5 7.5,7.5 0 0 0 3.4236,13.979 5,5 0 0 1 7.99,11 V 7.4824 A 0.4604,0.48243 0 0 1 8.4607,7 0.4604,0.48243 0 0 1 8.6814,7.0645 L 11.293,8.6445 A 5,5 0 0 1 14.99,7 5,5 0 0 1 16.693,7.3027 7.5,7.5 0 0 0 10.49,4 Z M 18.556,8.502 A 5,5 0 0 1 19.99,12 5,5 0 0 1 19.677,13.717 L 22.76,15.582 A 0.4604,0.48243 0 0 1 22.76,16.418 L 19.677,18.283 A 5,5 0 0 1 19.99,20 5,5 0 0 1 18.562,23.496 7.5,7.5 0 0 0 25.99,16 7.5,7.5 0 0 0 18.556,8.502 Z M 3.4197,18.02 A 7.5,7.5 0 0 0 2.99,20.5 7.5,7.5 0 0 0 10.49,28 7.5,7.5 0 0 0 16.701,24.691 5,5 0 0 1 14.99,25 5,5 0 0 1 11.295,23.354 L 8.6814,24.936 A 0.4604,0.48243 0 0 1 7.99,24.518 V 21 A 5,5 0 0 1 3.4197,18.02 Z"
       id="path13" />
  </g>
  <path
     style="fill:#00ffff;fill-opacity:1;stroke:#00ffde;stroke-width:0.13559322;stroke-opacity:0.93189967"
     d="M 8.7050847,20.745602 C 7.1811001,20.338403 5.9107482,19.153328 5.3040571,17.572881 4.8664032,16.432781 4.9754213,14.943021 5.5794268,13.809885 6.3523841,12.35979 7.7829519,11.321204 9.2923517,11.114318 l 0.633072,-0.08677 v 4.967583 c 0,5.632617 0.1336743,5.112256 -1.220339,4.750473 z"
     id="path50"
     inkscape:connector-curvature="0" />
  <path
     style="fill:#00ffff;fill-opacity:1;stroke:#00ffde;stroke-width:0.13559322;stroke-opacity:0.93189967"
     d="m 17.518644,11.188309 c -2.2,-1.3381457 -4.018483,-2.4875402 -4.041073,-2.5542097 -0.09332,-0.275415 1.539014,-1.2464676 2.413954,-1.4360263 1.247828,-0.2703458 2.916025,0.026421 3.937593,0.7004837 1.156389,0.763022 2.047035,2.4804283 2.063721,3.9794093 0.01023,0.919351 -0.127168,1.769658 -0.283274,1.753024 -0.05001,-0.0053 -1.890921,-1.104535 -4.090921,-2.442681 z"
     id="path52"
     inkscape:connector-curvature="0" />
  <path
     style="fill:#00ffff;fill-opacity:1;stroke:#00ffde;stroke-width:0.13559322;stroke-opacity:0.93189967"
     d=""
     id="path54"
     inkscape:connector-curvature="0" />
  <path
     style="fill:#00ffff;fill-opacity:1;stroke:#00ffde;stroke-width:0.13559322;stroke-opacity:0.93189967"
     d="m 15.329075,24.635737 c -0.742207,-0.290282 -1.902333,-1.092234 -1.84198,-1.273293 0.05397,-0.161902 8.092184,-5.028362 8.17268,-4.947867 0.03319,0.03319 0.121787,0.384332 0.196884,0.780318 0.140341,0.740016 0.02775,1.879609 -0.259405,2.625534 -0.345984,0.898743 -1.349127,2.089502 -2.092505,2.483859 -1.175441,0.623564 -3.048614,0.772249 -4.175674,0.331449 z"
     id="path56"
     inkscape:connector-curvature="0" />
  <path
     style="fill:#00ffff;fill-opacity:1;stroke:#00ffde;stroke-width:0.13559322;stroke-opacity:0.93189967"
     d="M 8.5483638,20.641131 C 7.1741341,20.141968 6.1290795,19.19829 5.5314941,17.916918 4.1984574,15.058555 6.0992368,11.745336 9.4169492,11.144242 l 0.5084745,-0.09212 -0.010051,4.243433 c -0.00553,2.333888 -0.051291,4.518008 -0.101695,4.853602 -0.078671,0.523793 -0.1396309,0.614548 -0.4306274,0.641101 -0.1864406,0.01701 -0.5620499,-0.05009 -0.834687,-0.149123 z"
     id="path58"
     inkscape:connector-curvature="0" />
  <path
     style="fill:#00ffff;fill-opacity:1;stroke:#00ffde;stroke-width:0.13559322;stroke-opacity:0.93189967"
     d="m 38.942373,25.369492 v -1.423729 h -0.352389 c -0.846189,0 -2.204838,-1.086693 -2.508313,-2.006233 -0.526047,-1.593937 0.547719,-3.409647 2.273343,-3.844164 l 0.578202,-0.145593 0.04378,-1.374887 c 0.02408,-0.756187 0.05665,1.233589 0.07238,4.421724 0.01573,3.188136 -0.0019,5.79661 -0.0392,5.79661 -0.03729,0 -0.0678,-0.640678 -0.0678,-1.423728 z"
     id="path60"
     inkscape:connector-curvature="0" />
  <path
     style="fill:#00ffff;fill-opacity:1;stroke:#00ffde;stroke-width:0.13559322;stroke-opacity:0.93189967"
     d="m 44.091874,17.841152 c -1.377988,-0.81783 -2.554907,-1.487335 -2.615375,-1.487787 -0.294918,-0.0022 1.203672,-1.095791 1.675844,-1.222934 0.567106,-0.152705 2.026023,-0.133607 2.026844,0.02653 2.57e-4,0.05091 0.11526,0.12899 0.255555,0.173518 0.140294,0.04453 0.393698,0.201181 0.56312,0.34812 0.169421,0.146938 0.466499,0.27547 0.660173,0.285626 0.330128,0.01731 0.33258,0.0222 0.03924,0.07825 -0.172094,0.03288 -0.290911,0.100844 -0.264036,0.151027 0.426488,0.796366 0.532396,1.239094 0.482786,2.018194 -0.02984,0.468573 -0.113753,0.911456 -0.186481,0.984184 -0.08591,0.08591 -1.009827,-0.388616 -2.637665,-1.354732 z"
     id="path62"
     inkscape:connector-curvature="0" />
  <path
     style="fill:#ff00ff;fill-opacity:1;stroke:#00ffde;stroke-width:0.13559322;stroke-opacity:0.93189967"
     d="m 43.428553,26.913847 c -0.652626,-0.124402 -1.552232,-0.654463 -1.754833,-1.033971 -0.132163,-0.247567 0.02759,-0.355469 3.950076,-2.667954 l 1.054304,-0.621561 0.132136,0.347545 c 0.07267,0.191149 0.131564,0.69442 0.130864,1.118379 -0.0021,1.283111 -0.97185,2.649223 -1.998248,2.815036 -0.205349,0.03317 -0.495394,0.08199 -0.644547,0.108469 -0.149152,0.02648 -0.540541,-0.0032 -0.869752,-0.06594 z"
     id="path64"
     inkscape:connector-curvature="0" />
  <path
     style="fill:#ff00ff;fill-opacity:1;stroke:#00ffde;stroke-width:0.13559322;stroke-opacity:0.93189967"
     d="m 46.713214,25.415367 c 0.333089,-0.673233 0.440213,-1.649251 0.254742,-2.320973 l -0.138897,-0.503042 1.073606,-0.643388 c 1.570007,-0.94087 1.561832,-0.966524 -0.76929,-2.414314 -0.262986,-0.163333 -0.274007,-0.235521 -0.151809,-0.994304 0.10582,-0.657079 0.08823,-0.95127 -0.08931,-1.494073 -0.12159,-0.371739 -0.221073,-0.745544 -0.221073,-0.830677 0,-0.235674 0.761373,-0.03176 1.669504,0.447125 1.891293,0.997344 2.949925,3.172356 2.531003,5.200073 -0.216402,1.047459 -0.692598,1.965891 -1.37107,2.644362 -0.558882,0.558883 -1.873198,1.248084 -2.639204,1.383947 l -0.419937,0.07448 z"
     id="path66"
     inkscape:connector-curvature="0" />
  <path
     style="fill:#ff00ff;fill-opacity:1;stroke:#00ffde;stroke-width:0.13559322;stroke-opacity:0.93189967"
     d="m 36.150189,18.977545 c -0.04925,-0.262507 -0.06125,-0.918099 -0.02667,-1.456871 0.109425,-1.705076 1.182245,-3.253543 2.789521,-4.026288 0.472944,-0.227382 0.957346,-0.322351 1.859844,-0.364632 1.519041,-0.07117 2.455841,0.23673 3.419711,1.123949 l 0.648086,0.596546 -0.474576,0.0086 c -0.825418,0.01499 -1.491015,0.234602 -2.2615,0.746175 l -0.747539,0.496338 -0.954105,-0.552385 c -0.817139,-0.473089 -1.282917,-0.653433 -1.339107,-0.518488 -0.0078,0.01865 -0.08403,0.668282 -0.169491,1.443639 l -0.155377,1.40974 -0.654897,0.190741 c -0.436759,0.127207 -0.852993,0.388838 -1.249627,0.785471 l -0.594731,0.594731 z"
     id="path68"
     inkscape:connector-curvature="0" />
  <path
     style="fill:#00ffff;fill-opacity:1;stroke:#00ffde;stroke-width:0.13559322;stroke-opacity:0.93189967"
     d="m 39.417272,28.682977 c -2.100411,-0.745289 -3.322357,-2.460468 -3.322357,-4.663414 0,-1.49811 0.0493,-1.547562 0.822118,-0.824678 0.423695,0.396317 0.872582,0.670666 1.272221,0.777554 l 0.617526,0.165162 v 1.250328 c 0,0.958955 0.04994,1.300272 0.214321,1.464649 0.117877,0.117877 0.255165,0.192009 0.305085,0.164738 0.04992,-0.02727 0.538794,-0.308403 1.086386,-0.624739 l 0.995623,-0.575156 0.360309,0.344313 c 0.577655,0.552009 1.486725,0.895731 2.394208,0.905256 l 0.813559,0.0085 -0.590091,0.5336 c -1.379949,1.247844 -3.305662,1.664016 -4.968908,1.073847 z"
     id="path70"
     inkscape:connector-curvature="0" />
  <path
     style="fill:#00ffff;fill-opacity:1;stroke:#00ffde;stroke-width:0.13559322;stroke-opacity:0.93189967"
     d="m 42.501695,26.382425 c -0.391526,-0.224537 -0.711864,-0.468432 -0.711864,-0.541989 0,-0.147884 1.06904,-0.847181 3.300517,-2.158985 1.638686,-0.963323 1.710695,-0.957343 1.714355,0.142383 0.0026,0.768275 -0.202331,1.405358 -0.642524,1.99788 -0.539089,0.725639 -1.061298,0.970601 -2.067264,0.969727 -0.73113,-6.35e-4 -1.002692,-0.07035 -1.59322,-0.409016 z"
     id="path72"
     inkscape:connector-curvature="0" />
  <path
     style="fill:#00ffff;fill-opacity:1;stroke:#00ffde;stroke-width:0.13559322;stroke-opacity:0.93189967"
     d="m 43.441932,26.646813 c -0.600137,-0.116586 -1.516508,-0.600934 -1.516508,-0.801551 0,-0.262159 4.535112,-2.968906 4.699286,-2.804733 0.165278,0.165279 0.06308,1.552189 -0.152447,2.068893 -0.316636,0.759091 -0.979175,1.394243 -1.555122,1.490838 -0.265783,0.04458 -0.574768,0.09886 -0.686633,0.12064 -0.111864,0.02178 -0.466724,-0.01156 -0.788576,-0.07409 z"
     id="path74"
     inkscape:connector-curvature="0" />
  <path
     style="fill:#ff00ff;fill-opacity:1;stroke:#00ffde;stroke-width:0.13559322;stroke-opacity:0.93189967"
     d="m 39.620339,28.707902 c -1.392634,-0.456298 -2.659619,-1.604236 -3.121688,-2.828371 -0.296835,-0.786388 -0.45159,-2.743492 -0.234192,-2.961694 0.05596,-0.05617 0.340013,0.08935 0.631227,0.323379 0.488609,0.392657 1.08692,0.712144 1.673806,0.893782 0.202555,0.06269 0.237288,0.248892 0.237288,1.272119 0,0.832222 0.0598,1.279144 0.195594,1.461882 0.210288,0.282976 0.196418,0.288127 1.992621,-0.739937 0.337341,-0.193079 0.386826,-0.182526 0.869125,0.185342 0.681037,0.519452 1.330344,0.736851 2.222265,0.744051 l 0.737233,0.006 -0.379206,0.395805 c -0.208563,0.217693 -0.753877,0.596286 -1.211809,0.841317 -0.738835,0.395338 -0.970038,0.449562 -2.052942,0.481476 -0.671186,0.01978 -1.372881,-0.01402 -1.559322,-0.0751 z"
     id="path76"
     inkscape:connector-curvature="0" />
</svg>
