<?xml version="1.0" encoding="UTF-8" standalone="no"?>
<svg
   xmlns:dc="http://purl.org/dc/elements/1.1/"
   xmlns:cc="http://creativecommons.org/ns#"
   xmlns:rdf="http://www.w3.org/1999/02/22-rdf-syntax-ns#"
   xmlns:svg="http://www.w3.org/2000/svg"
   xmlns="http://www.w3.org/2000/svg"
   xmlns:xlink="http://www.w3.org/1999/xlink"
   xmlns:sodipodi="http://sodipodi.sourceforge.net/DTD/sodipodi-0.dtd"
   xmlns:inkscape="http://www.inkscape.org/namespaces/inkscape"
   width="32"
   height="32"
   x="0"
   y="0"
   version="1.1"
   id="svg16"
   sodipodi:docname="mellowplayer.svg"
   inkscape:version="0.92.4 (5da689c313, 2019-01-14)">
  <metadata
     id="metadata22">
    <rdf:RDF>
      <cc:Work
         rdf:about="">
        <dc:format>image/svg+xml</dc:format>
        <dc:type
           rdf:resource="http://purl.org/dc/dcmitype/StillImage" />
      </cc:Work>
    </rdf:RDF>
  </metadata>
  <defs
     id="defs20">
    <linearGradient
       inkscape:collect="always"
       id="linearGradient60">
      <stop
         style="stop-color:#ff00ff;stop-opacity:1"
         offset="0"
         id="stop56" />
      <stop
         style="stop-color:#00ffff;stop-opacity:1"
         offset="1"
         id="stop58" />
    </linearGradient>
    <linearGradient
       inkscape:collect="always"
       id="linearGradient52">
      <stop
         style="stop-color:#ff00ff;stop-opacity:1"
         offset="0"
         id="stop48" />
      <stop
         style="stop-color:#00ffff;stop-opacity:1"
         offset="1"
         id="stop50" />
    </linearGradient>
    <linearGradient
       inkscape:collect="always"
       id="linearGradient44">
      <stop
         style="stop-color:#000000;stop-opacity:1;"
         offset="0"
         id="stop40" />
      <stop
         style="stop-color:#000000;stop-opacity:0;"
         offset="1"
         id="stop42" />
    </linearGradient>
    <linearGradient
       inkscape:collect="always"
       id="linearGradient36">
      <stop
         style="stop-color:#ff00ff;stop-opacity:1"
         offset="0"
         id="stop32" />
      <stop
         style="stop-color:#00ffff;stop-opacity:1"
         offset="1"
         id="stop34" />
    </linearGradient>
    <linearGradient
       inkscape:collect="always"
       id="linearGradient28">
      <stop
         style="stop-color:#ff00ff;stop-opacity:1"
         offset="0"
         id="stop24" />
      <stop
         style="stop-color:#00ffff;stop-opacity:1"
         offset="1"
         id="stop26" />
    </linearGradient>
    <linearGradient
       inkscape:collect="always"
       xlink:href="#linearGradient28"
       id="linearGradient30"
       x1="2.99"
       y1="16"
       x2="25.99"
       y2="16"
       gradientUnits="userSpaceOnUse" />
    <linearGradient
       inkscape:collect="always"
       xlink:href="#linearGradient36"
       id="linearGradient38"
       x1="2.99"
       y1="16"
       x2="19.99"
       y2="16"
       gradientUnits="userSpaceOnUse" />
    <linearGradient
       inkscape:collect="always"
       xlink:href="#linearGradient44"
       id="linearGradient46"
       x1="-2.01"
       y1="16"
       x2="29.99"
       y2="16"
       gradientUnits="userSpaceOnUse" />
    <linearGradient
       inkscape:collect="always"
       xlink:href="#linearGradient52"
       id="linearGradient54"
       x1="1.99"
       y1="11"
       x2="16.99"
       y2="11"
       gradientUnits="userSpaceOnUse" />
    <linearGradient
       inkscape:collect="always"
       xlink:href="#linearGradient60"
       id="linearGradient62"
       x1="1.99"
       y1="11"
       x2="12.99"
       y2="11"
       gradientUnits="userSpaceOnUse" />
  </defs>
  <sodipodi:namedview
     pagecolor="#ffffff"
     bordercolor="#666666"
     borderopacity="1"
     objecttolerance="10"
     gridtolerance="10"
     guidetolerance="10"
     inkscape:pageopacity="0"
     inkscape:pageshadow="2"
     inkscape:window-width="1920"
     inkscape:window-height="1000"
     id="namedview18"
     showgrid="false"
     inkscape:zoom="7.375"
     inkscape:cx="16"
     inkscape:cy="16"
     inkscape:window-x="0"
     inkscape:window-y="0"
     inkscape:window-maximized="1"
     inkscape:current-layer="svg16" />
  <g
     id="22-22-mellowplayer"
     transform="translate(34.01,10)">
    <rect
       style="opacity:0.001"
       width="22"
       height="22"
       x="-2.01"
       y="0"
       id="rect2" />
    <path
       style="fill:url(#linearGradient54)"
       d="M 6.99,3 A 5,5 0 0 0 1.99,8 5,5 0 0 0 2.2947,9.6875 3,3 0 0 1 4.99,8 3,3 0 0 1 4.9959,8 V 5.4043 C 4.9962,5.4043 4.9732,5.138 5.1814,5.0332 5.3837,4.9315 5.5779,5.0938 5.5779,5.0938 L 7.5466,6.2637 A 3,3 0 0 1 9.99,5 3,3 0 0 1 11.142,5.2324 5,5 0 0 0 6.99,3 Z M 12.23,6.0078 A 3,3 0 0 1 12.99,8 3,3 0 0 1 12.681,9.3184 L 14.707,10.523 C 14.707,10.523 14.99,10.663 14.99,10.996 14.99,11.33 14.703,11.439 14.703,11.439 L 12.668,12.648 A 3,3 0 0 1 12.99,14 3,3 0 0 1 12.232,15.988 5,5 0 0 0 16.99,11 5,5 0 0 0 12.23,6.0078 Z M 2.2927,12.303 A 5,5 0 0 0 1.99,14 5,5 0 0 0 6.99,19 5,5 0 0 0 11.148,16.768 3,3 0 0 1 9.99,17 3,3 0 0 1 7.5252,15.705 L 5.4646,16.93 C 5.4646,16.93 5.3247,17.052 5.1462,16.973 4.9425,16.882 4.9959,16.65 4.9959,16.65 V 14 A 3,3 0 0 1 4.99,14 3,3 0 0 1 2.2927,12.303 Z"
       id="path4" />
    <path
       style="opacity:0.3;fill:url(#linearGradient62)"
       d="M 9.99,5 A 3,3 0 0 0 7.5466,6.2656 L 10.219,7.8535 12.683,9.3203 A 3,3 0 0 0 12.99,8 3,3 0 0 0 9.99,5 Z M 4.99,8 A 3,3 0 0 0 1.99,11 3,3 0 0 0 4.99,14 3,3 0 0 0 4.9959,14 V 10.982 8 A 3,3 0 0 0 4.99,8 Z M 12.666,12.65 10.209,14.109 7.5232,15.705 A 3,3 0 0 0 9.99,17 3,3 0 0 0 12.99,14 3,3 0 0 0 12.666,12.65 Z"
       id="path6" />
  </g>
  <g
     id="mellowplayer"
     transform="translate(2.01)">
    <rect
       style="opacity:0.001;fill:url(#linearGradient46)"
       width="32"
       height="32"
       x="-2.01"
       y="0"
       id="rect9" />
    <path
       style="opacity:0.3;fill:url(#linearGradient38)"
       d="M 14.99,7 A 5,5 0 0 0 11.293,8.6445 L 19.677,13.717 A 5,5 0 0 0 19.99,12 5,5 0 0 0 14.99,7 Z M 7.99,11 A 5,5 0 0 0 2.99,16 5,5 0 0 0 7.99,21 Z M 19.678,18.283 11.295,23.354 A 5,5 0 0 0 14.99,25 5,5 0 0 0 19.99,20 5,5 0 0 0 19.678,18.283 Z"
       id="path11" />
    <path
       style="fill:url(#linearGradient30)"
       d="M 10.49,4 A 7.5,7.5 0 0 0 2.99,11.5 7.5,7.5 0 0 0 3.4236,13.979 5,5 0 0 1 7.99,11 V 7.4824 A 0.4604,0.48243 0 0 1 8.4607,7 0.4604,0.48243 0 0 1 8.6814,7.0645 L 11.293,8.6445 A 5,5 0 0 1 14.99,7 5,5 0 0 1 16.693,7.3027 7.5,7.5 0 0 0 10.49,4 Z M 18.556,8.502 A 5,5 0 0 1 19.99,12 5,5 0 0 1 19.677,13.717 L 22.76,15.582 A 0.4604,0.48243 0 0 1 22.76,16.418 L 19.677,18.283 A 5,5 0 0 1 19.99,20 5,5 0 0 1 18.562,23.496 7.5,7.5 0 0 0 25.99,16 7.5,7.5 0 0 0 18.556,8.502 Z M 3.4197,18.02 A 7.5,7.5 0 0 0 2.99,20.5 7.5,7.5 0 0 0 10.49,28 7.5,7.5 0 0 0 16.701,24.691 5,5 0 0 1 14.99,25 5,5 0 0 1 11.295,23.354 L 8.6814,24.936 A 0.4604,0.48243 0 0 1 7.99,24.518 V 21 A 5,5 0 0 1 3.4197,18.02 Z"
       id="path13" />
  </g>
</svg>
