<?xml version="1.0" encoding="UTF-8" standalone="no"?>
<svg
   xmlns:dc="http://purl.org/dc/elements/1.1/"
   xmlns:cc="http://creativecommons.org/ns#"
   xmlns:rdf="http://www.w3.org/1999/02/22-rdf-syntax-ns#"
   xmlns:svg="http://www.w3.org/2000/svg"
   xmlns="http://www.w3.org/2000/svg"
   xmlns:xlink="http://www.w3.org/1999/xlink"
   xmlns:sodipodi="http://sodipodi.sourceforge.net/DTD/sodipodi-0.dtd"
   xmlns:inkscape="http://www.inkscape.org/namespaces/inkscape"
   id="svg54"
   width="32"
   height="32"
   version="1.1"
   sodipodi:docname="update.svg"
   inkscape:version="0.92.4 (5da689c313, 2019-01-14)">
  <metadata
     id="metadata37">
    <rdf:RDF>
      <cc:Work
         rdf:about="">
        <dc:format>image/svg+xml</dc:format>
        <dc:type
           rdf:resource="http://purl.org/dc/dcmitype/StillImage" />
      </cc:Work>
    </rdf:RDF>
  </metadata>
  <defs
     id="defs35">
    <linearGradient
       inkscape:collect="always"
       id="linearGradient72">
      <stop
         style="stop-color:#ff00ff;stop-opacity:1"
         offset="0"
         id="stop68" />
      <stop
         style="stop-color:#00ffff;stop-opacity:1"
         offset="1"
         id="stop70" />
    </linearGradient>
    <linearGradient
       inkscape:collect="always"
       id="linearGradient64">
      <stop
         style="stop-color:#ff00ff;stop-opacity:1"
         offset="0"
         id="stop60" />
      <stop
         style="stop-color:#00ffff;stop-opacity:1"
         offset="1"
         id="stop62" />
    </linearGradient>
    <linearGradient
       inkscape:collect="always"
       id="linearGradient83">
      <stop
         style="stop-color:#ff00ff;stop-opacity:1"
         offset="0"
         id="stop79" />
      <stop
         style="stop-color:#00ffff;stop-opacity:1"
         offset="1"
         id="stop81" />
    </linearGradient>
    <linearGradient
       inkscape:collect="always"
       id="linearGradient75">
      <stop
         style="stop-color:#ff00ff;stop-opacity:1"
         offset="0"
         id="stop71" />
      <stop
         style="stop-color:#00ffff;stop-opacity:1"
         offset="1"
         id="stop73" />
    </linearGradient>
    <linearGradient
       inkscape:collect="always"
       id="linearGradient67">
      <stop
         style="stop-color:#ff00ff;stop-opacity:1"
         offset="0"
         id="stop63" />
      <stop
         style="stop-color:#00ffff;stop-opacity:1"
         offset="1"
         id="stop65" />
    </linearGradient>
    <linearGradient
       inkscape:collect="always"
       id="linearGradient59">
      <stop
         style="stop-color:#ff00ff;stop-opacity:1"
         offset="0"
         id="stop55" />
      <stop
         style="stop-color:#00ffff;stop-opacity:1"
         offset="1"
         id="stop57" />
    </linearGradient>
    <linearGradient
       inkscape:collect="always"
       id="linearGradient51">
      <stop
         style="stop-color:#ff00ff;stop-opacity:1"
         offset="0"
         id="stop47" />
      <stop
         style="stop-color:#00ffff;stop-opacity:1"
         offset="1"
         id="stop49" />
    </linearGradient>
    <linearGradient
       inkscape:collect="always"
       id="linearGradient43">
      <stop
         style="stop-color:#ff00ff;stop-opacity:1"
         offset="0"
         id="stop39" />
      <stop
         style="stop-color:#00ffff;stop-opacity:1"
         offset="1"
         id="stop41" />
    </linearGradient>
    <linearGradient
       inkscape:collect="always"
       xlink:href="#linearGradient43"
       id="linearGradient45"
       x1="4"
       y1="16"
       x2="28"
       y2="16"
       gradientUnits="userSpaceOnUse" />
    <linearGradient
       inkscape:collect="always"
       xlink:href="#linearGradient51"
       id="linearGradient53"
       x1="4"
       y1="16"
       x2="28"
       y2="16"
       gradientUnits="userSpaceOnUse"
       gradientTransform="translate(0,-32)" />
    <linearGradient
       inkscape:collect="always"
       xlink:href="#linearGradient59"
       id="linearGradient61"
       x1="4"
       y1="16"
       x2="28"
       y2="16"
       gradientUnits="userSpaceOnUse"
       gradientTransform="translate(0,-64)" />
    <linearGradient
       inkscape:collect="always"
       xlink:href="#linearGradient67"
       id="linearGradient69"
       x1="3"
       y1="43"
       x2="19"
       y2="43"
       gradientUnits="userSpaceOnUse"
       gradientTransform="translate(32,-22)" />
    <linearGradient
       inkscape:collect="always"
       xlink:href="#linearGradient75"
       id="linearGradient77"
       x1="3"
       y1="43"
       x2="19"
       y2="43"
       gradientUnits="userSpaceOnUse"
       gradientTransform="translate(32,-54)" />
    <linearGradient
       inkscape:collect="always"
       xlink:href="#linearGradient83"
       id="linearGradient85"
       x1="3"
       y1="43"
       x2="19"
       y2="43"
       gradientUnits="userSpaceOnUse"
       gradientTransform="translate(32,-86)" />
    <linearGradient
       inkscape:collect="always"
       xlink:href="#linearGradient64"
       id="linearGradient66"
       x1="4"
       y1="16"
       x2="28"
       y2="16"
       gradientUnits="userSpaceOnUse" />
    <linearGradient
       inkscape:collect="always"
       xlink:href="#linearGradient72"
       id="linearGradient74"
       x1="3"
       y1="43"
       x2="19"
       y2="43"
       gradientUnits="userSpaceOnUse" />
  </defs>
  <sodipodi:namedview
     pagecolor="#ffffff"
     bordercolor="#666666"
     borderopacity="1"
     objecttolerance="10"
     gridtolerance="10"
     guidetolerance="10"
     inkscape:pageopacity="0"
     inkscape:pageshadow="2"
     inkscape:window-width="1920"
     inkscape:window-height="1000"
     id="namedview33"
     showgrid="false"
     inkscape:zoom="7.375"
     inkscape:cx="16"
     inkscape:cy="53.966101"
     inkscape:window-x="0"
     inkscape:window-y="0"
     inkscape:window-maximized="1"
     inkscape:current-layer="svg54" />
  <g
     id="22-22-update-low"
     transform="translate(32,-22)">
    <rect
       id="rect947"
       style="opacity:0.001;fill:#000000"
       width="22"
       height="22"
       x="0"
       y="32" />
    <path
       style="fill:url(#linearGradient69)"
       d="M 43 13 C 38.5817 13 35 16.5817 35 21 C 35 25.418 38.5817 29 43 29 C 47.418 29 51 25.418 51 21 C 51 16.5817 47.418 13 43 13 z M 43 15 C 44.495771 15 45.98909 15.560161 47.148438 16.671875 C 46.777735 16.815699 46.434836 17.049842 46.171875 17.421875 L 45.710938 18.076172 C 44.142097 16.621879 41.697474 16.646276 40.171875 18.171875 C 39.390965 18.952785 39.004009 19.976417 39.003906 21 L 39.300781 21 A 0.69923716 0.5746971 1.1588047e-06 0 1 39.90625 21.861328 L 39.255859 22.787109 L 38.603516 23.712891 A 0.69923716 0.5746971 1.1588047e-06 0 1 37.394531 23.712891 L 36.744141 22.787109 L 36.09375 21.861328 A 0.69923716 0.5746971 1.1588047e-06 0 1 36.492188 21.025391 A 0.69923716 0.5746971 1.1588047e-06 0 1 36.697266 21 L 37.001953 21 C 37.002024 19.464515 37.586364 17.929261 38.757812 16.757812 C 39.929391 15.586234 41.464469 15 43 15 z M 47.962891 18.001953 A 0.69923716 0.5746971 1.1588047e-06 0 1 48.605469 18.287109 L 49.255859 19.212891 L 49.90625 20.138672 A 0.69923716 0.5746971 1.1588047e-06 0 1 49.507812 20.974609 A 0.69923716 0.5746971 1.1588047e-06 0 1 49.302734 21 L 48.998047 21 C 48.997976 22.535485 48.413635 24.070735 47.242188 25.242188 C 46.070608 26.413764 44.535531 27 43 27 C 41.505091 27 40.012577 26.440509 38.853516 25.330078 C 39.217248 25.189133 39.561771 24.956602 39.828125 24.580078 L 39.828125 24.578125 L 40.289062 23.923828 C 41.857902 25.378121 44.302526 25.353721 45.828125 23.828125 C 46.609035 23.047259 46.995991 22.023583 46.996094 21 L 46.699219 21 A 0.69923716 0.5746971 1.1588047e-06 0 1 46.09375 20.138672 L 46.744141 19.212891 L 47.396484 18.287109 A 0.69923716 0.5746971 1.1588047e-06 0 1 47.962891 18.001953 z M 52 26 A 2 2 0 0 0 50 28 A 2 2 0 0 0 52 30 A 2 2 0 0 0 54 28 A 2 2 0 0 0 52 26 z "
       transform="translate(-32,22)"
       id="path931" />
  </g>
  <g
     id="22-22-update-medium"
     transform="translate(32,-54)">
    <rect
       id="rect965"
       style="opacity:0.001;fill:#000000"
       width="22"
       height="22"
       x="0"
       y="32" />
    <path
       style="fill:url(#linearGradient77)"
       d="M 43 -19 C 38.5817 -19 35 -15.4183 35 -11 C 35 -6.582 38.5817 -3 43 -3 C 47.418 -3 51 -6.582 51 -11 C 51 -15.4183 47.418 -19 43 -19 z M 43 -17 C 44.495771 -17 45.98909 -16.439839 47.148438 -15.328125 C 46.777735 -15.184301 46.434836 -14.950158 46.171875 -14.578125 L 45.710938 -13.923828 C 44.142097 -15.378121 41.697474 -15.353724 40.171875 -13.828125 C 39.390965 -13.047215 39.004009 -12.023583 39.003906 -11 L 39.300781 -11 A 0.69923716 0.5746971 1.1588047e-06 0 1 39.90625 -10.138672 L 39.255859 -9.2128906 L 38.603516 -8.2871094 A 0.69923716 0.5746971 1.1588047e-06 0 1 37.394531 -8.2871094 L 36.744141 -9.2128906 L 36.09375 -10.138672 A 0.69923716 0.5746971 1.1588047e-06 0 1 36.492188 -10.974609 A 0.69923716 0.5746971 1.1588047e-06 0 1 36.697266 -11 L 37.001953 -11 C 37.002024 -12.535485 37.586364 -14.070739 38.757812 -15.242188 C 39.929391 -16.413766 41.464469 -17 43 -17 z M 47.962891 -13.998047 A 0.69923716 0.5746971 1.1588047e-06 0 1 48.605469 -13.712891 L 49.255859 -12.787109 L 49.90625 -11.861328 A 0.69923716 0.5746971 1.1588047e-06 0 1 49.507812 -11.025391 A 0.69923716 0.5746971 1.1588047e-06 0 1 49.302734 -11 L 48.998047 -11 C 48.997976 -9.464515 48.413635 -7.9292655 47.242188 -6.7578125 C 46.070608 -5.5862365 44.535531 -5 43 -5 C 41.505091 -5 40.012577 -5.5594909 38.853516 -6.6699219 C 39.217248 -6.8108669 39.561771 -7.0433979 39.828125 -7.4199219 L 39.828125 -7.421875 L 40.289062 -8.0761719 C 41.857902 -6.6218789 44.302526 -6.646279 45.828125 -8.171875 C 46.609035 -8.952741 46.995991 -9.976417 46.996094 -11 L 46.699219 -11 A 0.69923716 0.5746971 1.1588047e-06 0 1 46.09375 -11.861328 L 46.744141 -12.787109 L 47.396484 -13.712891 A 0.69923716 0.5746971 1.1588047e-06 0 1 47.962891 -13.998047 z M 52 -6 A 2 2 0 0 0 50 -4 A 2 2 0 0 0 52 -2 A 2 2 0 0 0 54 -4 A 2 2 0 0 0 52 -6 z "
       transform="translate(-32,54)"
       id="path967" />
  </g>
  <g
     id="22-22-update-high"
     transform="translate(32,-86)">
    <rect
       id="rect973"
       style="opacity:0.001;fill:#000000"
       width="22"
       height="22"
       x="0"
       y="32" />
    <path
       style="fill:url(#linearGradient85)"
       d="M 43 -51 C 38.5817 -51 35 -47.4183 35 -43 C 35 -38.582 38.5817 -35 43 -35 C 47.418 -35 51 -38.582 51 -43 C 51 -47.4183 47.418 -51 43 -51 z M 43 -49 C 44.495771 -49 45.98909 -48.439839 47.148438 -47.328125 C 46.777735 -47.184301 46.434836 -46.950158 46.171875 -46.578125 L 45.710938 -45.923828 C 44.142097 -47.378121 41.697474 -47.353724 40.171875 -45.828125 C 39.390965 -45.047215 39.004009 -44.023583 39.003906 -43 L 39.300781 -43 A 0.69923716 0.5746971 1.1588047e-06 0 1 39.90625 -42.138672 L 39.255859 -41.212891 L 38.603516 -40.287109 A 0.69923716 0.5746971 1.1588047e-06 0 1 37.394531 -40.287109 L 36.744141 -41.212891 L 36.09375 -42.138672 A 0.69923716 0.5746971 1.1588047e-06 0 1 36.492188 -42.974609 A 0.69923716 0.5746971 1.1588047e-06 0 1 36.697266 -43 L 37.001953 -43 C 37.002024 -44.535485 37.586364 -46.070739 38.757812 -47.242188 C 39.929391 -48.413766 41.464469 -49 43 -49 z M 47.962891 -45.998047 A 0.69923716 0.5746971 1.1588047e-06 0 1 48.605469 -45.712891 L 49.255859 -44.787109 L 49.90625 -43.861328 A 0.69923716 0.5746971 1.1588047e-06 0 1 49.507812 -43.025391 A 0.69923716 0.5746971 1.1588047e-06 0 1 49.302734 -43 L 48.998047 -43 C 48.997976 -41.464515 48.413635 -39.929265 47.242188 -38.757812 C 46.070608 -37.586236 44.535531 -37 43 -37 C 41.505091 -37 40.012577 -37.559491 38.853516 -38.669922 C 39.217248 -38.810867 39.561771 -39.043398 39.828125 -39.419922 L 39.828125 -39.421875 L 40.289062 -40.076172 C 41.857902 -38.621879 44.302526 -38.646279 45.828125 -40.171875 C 46.609035 -40.952741 46.995991 -41.976417 46.996094 -43 L 46.699219 -43 A 0.69923716 0.5746971 1.1588047e-06 0 1 46.09375 -43.861328 L 46.744141 -44.787109 L 47.396484 -45.712891 A 0.69923716 0.5746971 1.1588047e-06 0 1 47.962891 -45.998047 z M 52 -38 A 2 2 0 0 0 50 -36 A 2 2 0 0 0 52 -34 A 2 2 0 0 0 54 -36 A 2 2 0 0 0 52 -38 z "
       transform="translate(-32,86)"
       id="path975" />
  </g>
  <g
     id="22-22-update-none"
     transform="translate(32,-118)">
    <rect
       id="rect981"
       style="opacity:0.001;fill:#000000"
       width="22"
       height="22"
       x="0"
       y="32" />
    <path
       id="path983"
       style="opacity:0.3;fill:url(#linearGradient74)"
       d="m 11,35 c -4.4183,0 -8,3.5817 -8,8 0,4.418 3.5817,8 8,8 4.418,0 8,-3.582 8,-8 0,-4.4183 -3.582,-8 -8,-8 z m 0,2 c 1.495771,0 2.989091,0.560161 4.148438,1.671875 -0.370703,0.143824 -0.713602,0.377967 -0.976563,0.75 l -0.460937,0.654297 C 12.142097,38.621879 9.6974738,38.646276 8.171875,40.171875 7.3909653,40.952785 7.0040093,41.976417 7.0039062,43 h 0.296875 A 0.69923716,0.5746971 1.1588047e-6 0 1 7.90625,43.861328 l -0.6503906,0.925781 -0.6523438,0.925782 a 0.69923716,0.5746971 1.1588047e-6 0 1 -1.2089844,0 L 4.7441406,44.787109 4.09375,43.861328 A 0.69923716,0.5746971 1.1588047e-6 0 1 4.4921875,43.025391 0.69923716,0.5746971 1.1588047e-6 0 1 4.6972656,43 H 5.0019531 C 5.0020237,41.464515 5.5863637,39.929261 6.7578125,38.757812 7.9293912,37.586234 9.464469,37 11,37 Z m 4.962891,3.001953 a 0.69923716,0.5746971 1.1588047e-6 0 1 0.642578,0.285156 l 0.65039,0.925782 0.650391,0.925781 A 0.69923716,0.5746971 1.1588047e-6 0 1 17.507812,42.974609 0.69923716,0.5746971 1.1588047e-6 0 1 17.302734,43 h -0.304687 c -7.1e-5,1.535485 -0.584412,3.070735 -1.755859,4.242188 C 14.070609,48.413764 12.535531,49 11,49 9.5050912,49 8.0125771,48.440509 6.8535156,47.330078 c 0.363732,-0.140945 0.7082551,-0.373476 0.9746094,-0.75 v -0.002 l 0.4609375,-0.654297 c 1.5688391,1.454293 4.0134635,1.429896 5.5390625,-0.0957 C 14.609035,45.047215 14.995991,44.023583 14.996094,43 H 14.699219 A 0.69923716,0.5746971 1.1588047e-6 0 1 14.09375,42.138672 l 0.650391,-0.925781 0.652343,-0.925782 a 0.69923716,0.5746971 1.1588047e-6 0 1 0.566407,-0.285156 z" />
  </g>
  <g
     id="update-low">
    <rect
       id="rect901"
       style="opacity:0.001;fill:#000000"
       width="32"
       height="32"
       x="0"
       y="0" />
    <path
       style="fill:url(#linearGradient45);stroke-width:1.5"
       d="M 16 4 C 9.37255 4 4 9.3725503 4 16 C 4 22.627001 9.37255 28 16 28 C 22.627 28 28 22.627001 28 16 C 28 9.3725503 22.627 4 16 4 z M 16 7 C 18.162794 7 20.318577 7.7863716 22.029297 9.3359375 C 21.619921 9.5347459 21.232787 9.8229889 20.916016 10.253906 L 20.914062 10.255859 L 19.984375 11.525391 C 17.628341 9.4247853 14.018161 9.4974664 11.757812 11.757812 C 10.586183 12.92945 10.007754 14.464387 10.007812 16 L 10.878906 16 A 1.1222676 0.88226761 0 0 1 11.849609 17.322266 L 10.660156 18.941406 L 9.4726562 20.560547 A 1.1222676 0.88226761 0 0 1 7.5292969 20.560547 L 6.3398438 18.941406 L 5.1503906 17.322266 A 1.1222676 0.88226761 0 0 1 6.1210938 16 L 7.0039062 16 C 7.0037198 13.696455 7.8791726 11.394265 9.6367188 9.6367188 C 11.394078 7.879359 13.696699 7 16 7 z M 23.439453 11 A 1.1222676 0.88226761 0 0 1 24.470703 11.439453 L 25.660156 13.058594 L 26.849609 14.677734 A 1.1222676 0.88226761 0 0 1 25.878906 16 L 24.996094 16 C 24.99628 18.303545 24.120827 20.605735 22.363281 22.363281 C 20.605922 24.120641 18.303301 25 16 25 C 13.837206 25 11.681423 24.213629 9.9707031 22.664062 C 10.380079 22.465256 10.767213 22.177012 11.083984 21.746094 L 11.085938 21.744141 L 12.015625 20.474609 C 14.371659 22.575214 17.981839 22.502534 20.242188 20.242188 C 21.413816 19.070554 21.992246 17.535613 21.992188 16 L 21.121094 16 A 1.1222676 0.88226761 0 0 1 20.150391 14.677734 L 21.339844 13.058594 L 22.527344 11.439453 A 1.1222676 0.88226761 0 0 1 23.439453 11 z M 29 23 A 3 3 0 0 0 26 26 A 3 3 0 0 0 29 29 A 3 3 0 0 0 32 26 A 3 3 0 0 0 29 23 z "
       id="path921" />
  </g>
  <g
     id="update-medium"
     transform="translate(0,-32)">
    <rect
       id="rect1002"
       style="opacity:0.001;fill:#000000"
       width="32"
       height="32"
       x="0"
       y="0" />
    <path
       style="fill:url(#linearGradient53);stroke-width:1.5"
       d="M 16 -28 C 9.37255 -28 4 -22.62745 4 -16 C 4 -9.372999 9.37255 -4 16 -4 C 22.627 -4 28 -9.372999 28 -16 C 28 -22.62745 22.627 -28 16 -28 z M 16 -25 C 18.162794 -25 20.318577 -24.213628 22.029297 -22.664062 C 21.619921 -22.465254 21.232787 -22.177011 20.916016 -21.746094 L 20.914062 -21.744141 L 19.984375 -20.474609 C 17.628341 -22.575215 14.018161 -22.502534 11.757812 -20.242188 C 10.586182 -19.070551 10.007753 -17.535613 10.007812 -16 L 10.878906 -16 A 1.1222676 0.88226761 0 0 1 11.849609 -14.677734 L 10.660156 -13.058594 L 9.4726562 -11.439453 A 1.1222676 0.88226761 0 0 1 7.5292969 -11.439453 L 6.3398438 -13.058594 L 5.1503906 -14.677734 A 1.1222676 0.88226761 0 0 1 6.1210938 -16 L 7.0039062 -16 C 7.0037198 -18.303545 7.8791726 -20.605735 9.6367188 -22.363281 C 11.394078 -24.120641 13.696699 -25 16 -25 z M 23.439453 -21 A 1.1222676 0.88226761 0 0 1 24.470703 -20.560547 L 25.660156 -18.941406 L 26.849609 -17.322266 A 1.1222676 0.88226761 0 0 1 25.878906 -16 L 24.996094 -16 C 24.99628 -13.696455 24.120827 -11.394265 22.363281 -9.6367188 C 20.605922 -7.8793588 18.303301 -7 16 -7 C 13.837206 -7 11.681423 -7.7863705 9.9707031 -9.3359375 C 10.380079 -9.5347435 10.767213 -9.8229882 11.083984 -10.253906 L 11.085938 -10.255859 L 12.015625 -11.525391 C 14.371659 -9.4247856 17.981838 -9.4974655 20.242188 -11.757812 C 21.413815 -12.929447 21.992247 -14.464387 21.992188 -16 L 21.121094 -16 A 1.1222676 0.88226761 0 0 1 20.150391 -17.322266 L 21.339844 -18.941406 L 22.527344 -20.560547 A 1.1222676 0.88226761 0 0 1 23.439453 -21 z M 29 -9 A 3 3 0 0 0 26 -6 A 3 3 0 0 0 29 -3 A 3 3 0 0 0 32 -6 A 3 3 0 0 0 29 -9 z "
       transform="translate(0,32)"
       id="path1004" />
  </g>
  <g
     id="update-high"
     transform="translate(0,-64)">
    <rect
       id="rect1010"
       style="opacity:0.001;fill:#000000"
       width="32"
       height="32"
       x="0"
       y="0" />
    <path
       style="fill:url(#linearGradient61);stroke-width:1.5"
       d="M 16 -60 C 9.37255 -60 4 -54.62745 4 -48 C 4 -41.372999 9.37255 -36 16 -36 C 22.627 -36 28 -41.372999 28 -48 C 28 -54.62745 22.627 -60 16 -60 z M 16 -57 C 18.162794 -57 20.318577 -56.213628 22.029297 -54.664062 C 21.619921 -54.465254 21.232787 -54.177011 20.916016 -53.746094 L 20.914062 -53.744141 L 19.984375 -52.474609 C 17.628341 -54.575215 14.018161 -54.502534 11.757812 -52.242188 C 10.586182 -51.070551 10.007753 -49.535613 10.007812 -48 L 10.878906 -48 A 1.1222676 0.88226761 0 0 1 11.849609 -46.677734 L 10.660156 -45.058594 L 9.4726562 -43.439453 A 1.1222676 0.88226761 0 0 1 7.5292969 -43.439453 L 6.3398438 -45.058594 L 5.1503906 -46.677734 A 1.1222676 0.88226761 0 0 1 6.1210938 -48 L 7.0039062 -48 C 7.0037198 -50.303545 7.8791726 -52.605735 9.6367188 -54.363281 C 11.394078 -56.120641 13.696699 -57 16 -57 z M 23.439453 -53 A 1.1222676 0.88226761 0 0 1 24.470703 -52.560547 L 25.660156 -50.941406 L 26.849609 -49.322266 A 1.1222676 0.88226761 0 0 1 25.878906 -48 L 24.996094 -48 C 24.99628 -45.696455 24.120827 -43.394265 22.363281 -41.636719 C 20.605922 -39.879359 18.303301 -39 16 -39 C 13.837206 -39 11.681423 -39.786371 9.9707031 -41.335938 C 10.380079 -41.534744 10.767213 -41.822988 11.083984 -42.253906 L 11.085938 -42.255859 L 12.015625 -43.525391 C 14.371659 -41.424786 17.981838 -41.497465 20.242188 -43.757812 C 21.413815 -44.929447 21.992247 -46.464387 21.992188 -48 L 21.121094 -48 A 1.1222676 0.88226761 0 0 1 20.150391 -49.322266 L 21.339844 -50.941406 L 22.527344 -52.560547 A 1.1222676 0.88226761 0 0 1 23.439453 -53 z M 29 -41 A 3 3 0 0 0 26 -38 A 3 3 0 0 0 29 -35 A 3 3 0 0 0 32 -38 A 3 3 0 0 0 29 -41 z "
       transform="translate(0,64)"
       id="path1012" />
  </g>
  <g
     id="update-none"
     transform="translate(0,-96)">
    <rect
       id="rect1018"
       style="opacity:0.001;fill:#000000"
       width="32"
       height="32"
       x="0"
       y="0" />
    <path
       id="path1020"
       style="fill:url(#linearGradient66);stroke-width:1.5;opacity:0.3"
       d="M 16,4 C 9.37255,4 4,9.3725503 4,16 4,22.627001 9.37255,28 16,28 22.627,28 28,22.627001 28,16 28,9.3725503 22.627,4 16,4 Z m 0,3 c 2.162794,0 4.318577,0.7863716 6.029297,2.3359375 -0.409376,0.1988084 -0.79651,0.4870512 -1.113281,0.9179685 l -0.002,0.002 -0.929687,1.269532 c -2.356034,-2.1006053 -5.966214,-2.0279251 -8.226563,0.232421 -1.17163,1.171637 -1.750059,2.706575 -1.75,4.242188 h 0.871094 a 1.1222676,0.88226761 0 0 1 0.970703,1.322266 l -1.189453,1.61914 -1.1874998,1.619141 a 1.1222676,0.88226761 0 0 1 -1.9433593,0 L 6.3398438,18.941406 5.1503906,17.322266 A 1.1222676,0.88226761 0 0 1 6.1210938,16 H 7.0039062 C 7.0037198,13.696455 7.8791726,11.394265 9.6367188,9.6367188 11.394078,7.8793591 13.696699,7 16,7 Z m 7.439453,4 a 1.1222676,0.88226761 0 0 1 1.03125,0.439453 l 1.189453,1.619141 1.189453,1.61914 A 1.1222676,0.88226761 0 0 1 25.878906,16 h -0.882812 c 1.86e-4,2.303545 -0.875267,4.605735 -2.632813,6.363281 C 20.605922,24.120641 18.303301,25 16,25 13.837206,25 11.681423,24.213629 9.9707031,22.664062 10.380079,22.465256 10.767213,22.177012 11.083984,21.746094 l 0.002,-0.002 0.929687,-1.269532 c 2.356034,2.100605 5.966214,2.027926 8.226563,-0.232421 1.171628,-1.171634 1.750059,-2.706575 1.75,-4.242188 H 21.12114 a 1.1222676,0.88226761 0 0 1 -0.970703,-1.322266 l 1.189453,-1.61914 1.1875,-1.619141 A 1.1222676,0.88226761 0 0 1 23.439453,11 Z" />
  </g>
</svg>
