<?xml version="1.0" encoding="UTF-8" standalone="no"?>
<svg
   xmlns:dc="http://purl.org/dc/elements/1.1/"
   xmlns:cc="http://creativecommons.org/ns#"
   xmlns:rdf="http://www.w3.org/1999/02/22-rdf-syntax-ns#"
   xmlns:svg="http://www.w3.org/2000/svg"
   xmlns="http://www.w3.org/2000/svg"
   xmlns:xlink="http://www.w3.org/1999/xlink"
   xmlns:sodipodi="http://sodipodi.sourceforge.net/DTD/sodipodi-0.dtd"
   xmlns:inkscape="http://www.inkscape.org/namespaces/inkscape"
   width="32"
   height="32"
   version="1.1"
   id="svg120"
   sodipodi:docname="user.svg"
   inkscape:version="0.92.4 (5da689c313, 2019-01-14)">
  <metadata
     id="metadata126">
    <rdf:RDF>
      <cc:Work
         rdf:about="">
        <dc:format>image/svg+xml</dc:format>
        <dc:type
           rdf:resource="http://purl.org/dc/dcmitype/StillImage" />
      </cc:Work>
    </rdf:RDF>
  </metadata>
  <defs
     id="defs124">
    <linearGradient
       inkscape:collect="always"
       id="linearGradient292">
      <stop
         style="stop-color:#ff00ff;stop-opacity:1"
         offset="0"
         id="stop288" />
      <stop
         style="stop-color:#00ffff;stop-opacity:1"
         offset="1"
         id="stop290" />
    </linearGradient>
    <linearGradient
       inkscape:collect="always"
       id="linearGradient284">
      <stop
         style="stop-color:#ff00ff;stop-opacity:1"
         offset="0"
         id="stop280" />
      <stop
         style="stop-color:#00ffff;stop-opacity:1"
         offset="1"
         id="stop282" />
    </linearGradient>
    <linearGradient
       inkscape:collect="always"
       id="linearGradient276">
      <stop
         style="stop-color:#ff00ff;stop-opacity:1"
         offset="0"
         id="stop272" />
      <stop
         style="stop-color:#00ffff;stop-opacity:1"
         offset="1"
         id="stop274" />
    </linearGradient>
    <linearGradient
       inkscape:collect="always"
       id="linearGradient268">
      <stop
         style="stop-color:#ff00ff;stop-opacity:1"
         offset="0"
         id="stop264" />
      <stop
         style="stop-color:#00ffff;stop-opacity:1"
         offset="1"
         id="stop266" />
    </linearGradient>
    <linearGradient
       inkscape:collect="always"
       id="linearGradient260">
      <stop
         style="stop-color:#ff00ff;stop-opacity:1"
         offset="0"
         id="stop256" />
      <stop
         style="stop-color:#00ffff;stop-opacity:1"
         offset="1"
         id="stop258" />
    </linearGradient>
    <linearGradient
       inkscape:collect="always"
       id="linearGradient252">
      <stop
         style="stop-color:#ff00ff;stop-opacity:1"
         offset="0"
         id="stop248" />
      <stop
         style="stop-color:#00ffff;stop-opacity:1"
         offset="1"
         id="stop250" />
    </linearGradient>
    <linearGradient
       inkscape:collect="always"
       id="linearGradient244">
      <stop
         style="stop-color:#ff00ff;stop-opacity:1"
         offset="0"
         id="stop240" />
      <stop
         style="stop-color:#00ffff;stop-opacity:1"
         offset="1"
         id="stop242" />
    </linearGradient>
    <linearGradient
       inkscape:collect="always"
       id="linearGradient236">
      <stop
         style="stop-color:#ff00ff;stop-opacity:1"
         offset="0"
         id="stop232" />
      <stop
         style="stop-color:#00ffff;stop-opacity:1"
         offset="1"
         id="stop234" />
    </linearGradient>
    <linearGradient
       inkscape:collect="always"
       id="linearGradient228">
      <stop
         style="stop-color:#ff00ff;stop-opacity:1"
         offset="0"
         id="stop224" />
      <stop
         style="stop-color:#00ffff;stop-opacity:1"
         offset="1"
         id="stop226" />
    </linearGradient>
    <linearGradient
       inkscape:collect="always"
       id="linearGradient220">
      <stop
         style="stop-color:#ff00ff;stop-opacity:1"
         offset="0"
         id="stop216" />
      <stop
         style="stop-color:#00ffff;stop-opacity:1"
         offset="1"
         id="stop218" />
    </linearGradient>
    <linearGradient
       inkscape:collect="always"
       id="linearGradient212">
      <stop
         style="stop-color:#ff00ff;stop-opacity:1"
         offset="0"
         id="stop208" />
      <stop
         style="stop-color:#00ffff;stop-opacity:1"
         offset="1"
         id="stop210" />
    </linearGradient>
    <linearGradient
       inkscape:collect="always"
       id="linearGradient204">
      <stop
         style="stop-color:#ff00ff;stop-opacity:1"
         offset="0"
         id="stop200" />
      <stop
         style="stop-color:#00ffff;stop-opacity:1"
         offset="1"
         id="stop202" />
    </linearGradient>
    <linearGradient
       inkscape:collect="always"
       id="linearGradient196">
      <stop
         style="stop-color:#ff00ff;stop-opacity:1"
         offset="0"
         id="stop192" />
      <stop
         style="stop-color:#00ffff;stop-opacity:1"
         offset="1"
         id="stop194" />
    </linearGradient>
    <linearGradient
       inkscape:collect="always"
       id="linearGradient188">
      <stop
         style="stop-color:#ff00ff;stop-opacity:1"
         offset="0"
         id="stop184" />
      <stop
         style="stop-color:#00ffff;stop-opacity:1"
         offset="1"
         id="stop186" />
    </linearGradient>
    <linearGradient
       inkscape:collect="always"
       id="linearGradient180">
      <stop
         style="stop-color:#ff00ff;stop-opacity:1"
         offset="0"
         id="stop176" />
      <stop
         style="stop-color:#00ffff;stop-opacity:1"
         offset="1"
         id="stop178" />
    </linearGradient>
    <linearGradient
       inkscape:collect="always"
       id="linearGradient172">
      <stop
         style="stop-color:#ff00ff;stop-opacity:1"
         offset="0"
         id="stop168" />
      <stop
         style="stop-color:#00ffff;stop-opacity:1"
         offset="1"
         id="stop170" />
    </linearGradient>
    <linearGradient
       inkscape:collect="always"
       id="linearGradient164">
      <stop
         style="stop-color:#ff00ff;stop-opacity:1"
         offset="0"
         id="stop160" />
      <stop
         style="stop-color:#00ffff;stop-opacity:1"
         offset="1"
         id="stop162" />
    </linearGradient>
    <linearGradient
       inkscape:collect="always"
       id="linearGradient156">
      <stop
         style="stop-color:#ff00ff;stop-opacity:1"
         offset="0"
         id="stop152" />
      <stop
         style="stop-color:#00ffff;stop-opacity:1"
         offset="1"
         id="stop154" />
    </linearGradient>
    <linearGradient
       inkscape:collect="always"
       id="linearGradient148">
      <stop
         style="stop-color:#ff00ff;stop-opacity:1"
         offset="0"
         id="stop144" />
      <stop
         style="stop-color:#00ffff;stop-opacity:1"
         offset="1"
         id="stop146" />
    </linearGradient>
    <linearGradient
       inkscape:collect="always"
       id="linearGradient140">
      <stop
         style="stop-color:#ff00ff;stop-opacity:1"
         offset="0"
         id="stop136" />
      <stop
         style="stop-color:#00ffff;stop-opacity:1"
         offset="1"
         id="stop138" />
    </linearGradient>
    <linearGradient
       inkscape:collect="always"
       id="linearGradient132">
      <stop
         style="stop-color:#ff00ff;stop-opacity:1"
         offset="0"
         id="stop128" />
      <stop
         style="stop-color:#00ffff;stop-opacity:1"
         offset="1"
         id="stop130" />
    </linearGradient>
    <linearGradient
       inkscape:collect="always"
       xlink:href="#linearGradient132"
       id="linearGradient134"
       x1="4"
       y1="16"
       x2="28"
       y2="16"
       gradientUnits="userSpaceOnUse" />
    <linearGradient
       inkscape:collect="always"
       xlink:href="#linearGradient140"
       id="linearGradient142"
       x1="4"
       y1="16.5"
       x2="29"
       y2="16.5"
       gradientUnits="userSpaceOnUse" />
    <linearGradient
       inkscape:collect="always"
       xlink:href="#linearGradient148"
       id="linearGradient150"
       x1="4"
       y1="16.5"
       x2="29"
       y2="16.5"
       gradientUnits="userSpaceOnUse" />
    <linearGradient
       inkscape:collect="always"
       xlink:href="#linearGradient156"
       id="linearGradient158"
       x1="4"
       y1="16"
       x2="28"
       y2="16"
       gradientUnits="userSpaceOnUse"
       gradientTransform="translate(96)" />
    <linearGradient
       inkscape:collect="always"
       xlink:href="#linearGradient164"
       id="linearGradient166"
       x1="4"
       y1="16.500074"
       x2="29.000147"
       y2="16.500074"
       gradientUnits="userSpaceOnUse" />
    <linearGradient
       inkscape:collect="always"
       xlink:href="#linearGradient172"
       id="linearGradient174"
       x1="4"
       y1="16.5"
       x2="29"
       y2="16.5"
       gradientUnits="userSpaceOnUse" />
    <linearGradient
       inkscape:collect="always"
       xlink:href="#linearGradient180"
       id="linearGradient182"
       x1="4"
       y1="16.5"
       x2="29"
       y2="16.5"
       gradientUnits="userSpaceOnUse" />
    <linearGradient
       inkscape:collect="always"
       xlink:href="#linearGradient188"
       id="linearGradient190"
       x1="4.0000011"
       y1="17.000001"
       x2="28"
       y2="17.000001"
       gradientUnits="userSpaceOnUse" />
    <linearGradient
       inkscape:collect="always"
       xlink:href="#linearGradient196"
       id="linearGradient198"
       x1="4.0000004"
       y1="6.5000018"
       x2="28"
       y2="6.5000018"
       gradientUnits="userSpaceOnUse" />
    <linearGradient
       inkscape:collect="always"
       xlink:href="#linearGradient204"
       id="linearGradient206"
       x1="7"
       y1="16"
       x2="25"
       y2="16"
       gradientUnits="userSpaceOnUse" />
    <linearGradient
       inkscape:collect="always"
       xlink:href="#linearGradient212"
       id="linearGradient214"
       x1="7"
       y1="16"
       x2="25"
       y2="16"
       gradientUnits="userSpaceOnUse" />
    <linearGradient
       inkscape:collect="always"
       xlink:href="#linearGradient220"
       id="linearGradient222"
       x1="3"
       y1="11"
       x2="19"
       y2="11"
       gradientUnits="userSpaceOnUse" />
    <linearGradient
       inkscape:collect="always"
       xlink:href="#linearGradient228"
       id="linearGradient230"
       x1="8"
       y1="16"
       x2="23.980469"
       y2="16"
       gradientUnits="userSpaceOnUse"
       gradientTransform="translate(27,-27)" />
    <linearGradient
       inkscape:collect="always"
       xlink:href="#linearGradient236"
       id="linearGradient238"
       x1="8"
       y1="16"
       x2="23.980469"
       y2="16"
       gradientUnits="userSpaceOnUse"
       gradientTransform="translate(59,-27)" />
    <linearGradient
       inkscape:collect="always"
       xlink:href="#linearGradient244"
       id="linearGradient246"
       x1="8"
       y1="16"
       x2="23.980469"
       y2="16"
       gradientUnits="userSpaceOnUse"
       gradientTransform="translate(91,-27)" />
    <linearGradient
       inkscape:collect="always"
       xlink:href="#linearGradient252"
       id="linearGradient254"
       x1="8"
       y1="16"
       x2="23.980469"
       y2="16"
       gradientUnits="userSpaceOnUse"
       gradientTransform="translate(123,-27)" />
    <linearGradient
       inkscape:collect="always"
       xlink:href="#linearGradient260"
       id="linearGradient262"
       x1="8"
       y1="16"
       x2="23.980469"
       y2="16"
       gradientUnits="userSpaceOnUse"
       gradientTransform="translate(155,-27)" />
    <linearGradient
       inkscape:collect="always"
       xlink:href="#linearGradient268"
       id="linearGradient270"
       x1="8"
       y1="16"
       x2="23.980469"
       y2="16"
       gradientUnits="userSpaceOnUse"
       gradientTransform="translate(187,-27)" />
    <linearGradient
       inkscape:collect="always"
       xlink:href="#linearGradient276"
       id="linearGradient278"
       x1="8"
       y1="17"
       x2="24"
       y2="17"
       gradientUnits="userSpaceOnUse" />
    <linearGradient
       inkscape:collect="always"
       xlink:href="#linearGradient284"
       id="linearGradient286"
       x1="9"
       y1="16"
       x2="22"
       y2="16"
       gradientUnits="userSpaceOnUse" />
    <linearGradient
       inkscape:collect="always"
       xlink:href="#linearGradient292"
       id="linearGradient294"
       x1="9"
       y1="16"
       x2="22"
       y2="16"
       gradientUnits="userSpaceOnUse" />
  </defs>
  <sodipodi:namedview
     pagecolor="#ffffff"
     bordercolor="#666666"
     borderopacity="1"
     objecttolerance="10"
     gridtolerance="10"
     guidetolerance="10"
     inkscape:pageopacity="0"
     inkscape:pageshadow="2"
     inkscape:window-width="1920"
     inkscape:window-height="1000"
     id="namedview122"
     showgrid="false"
     inkscape:zoom="7.375"
     inkscape:cx="78.033898"
     inkscape:cy="16"
     inkscape:window-x="0"
     inkscape:window-y="0"
     inkscape:window-maximized="1"
     inkscape:current-layer="svg120" />
  <g
     id="22-22-user-identity"
     transform="translate(0,-22)">
    <rect
       style="opacity:0.001"
       width="22"
       height="22"
       x="0"
       y="0"
       id="rect2" />
    <path
       style="fill:url(#linearGradient222)"
       d="m 11,3 c -4.432,0 -8,3.568 -8,8 0,4.432 3.568,8 8,8 4.432,0 8,-3.568 8,-8 0,-4.432 -3.568,-8 -8,-8 z m 0,3 c 1.104533,0 2,0.8954667 2,2 0,1.1044 -0.8956,2 -2,2 C 9.8956,10 9,9.1044 9,8 9,6.8956 9.8956,6 11,6 Z m 0,5 c 3.9992,-0.0015 4,2.460938 4,2.460938 v 1 C 15,14.460937 14.261543,16 11,16 7.7384568,16 7,14.460938 7,14.460938 v -1 C 7,13.460937 7.0003998,11.0023 11,11 Z"
       id="path4" />
  </g>
  <g
     id="22-22-user-online"
     transform="translate(155,-27)">
    <rect
       style="opacity:0.001"
       width="22"
       height="22"
       x="5"
       y="5"
       id="rect7" />
    <path
       style="fill:url(#linearGradient262)"
       d="M 171 -19 C 166.568 -19 163 -15.432 163 -11 C 163 -6.568 166.568 -3 171 -3 C 171.40259 -3 171.79534 -3.0388531 172.18164 -3.0957031 A 5.5 5.5 0 0 1 171.02734 -6.0019531 C 171.01732 -6.0019271 171.01007 -6 171 -6 C 167.73846 -6 167 -7.5390625 167 -7.5390625 L 167 -8.5390625 C 167 -8.5390635 167.0004 -10.9977 171 -11 C 171.82331 -11.000309 172.46901 -10.892125 172.98828 -10.726562 A 5.5 5.5 0 0 1 176.5 -12 A 5.5 5.5 0 0 1 178.98047 -11.402344 C 178.7709 -15.644685 175.29615 -19 171 -19 z M 171 -16 C 172.10453 -16 173 -15.104533 173 -14 C 173 -12.8956 172.1044 -12 171 -12 C 169.8956 -12 169 -12.8956 169 -14 C 169 -15.1044 169.8956 -16 171 -16 z M 176.1875 -10.990234 C 174.74652 -10.888399 173.38017 -10.095198 172.60352 -8.75 C 171.36088 -6.597683 172.09768 -3.8461576 174.25 -2.6035156 C 176.40232 -1.3608756 179.15384 -2.097683 180.39648 -4.25 C 181.63912 -6.402317 180.90232 -9.1538424 178.75 -10.396484 C 177.94288 -10.862474 177.05209 -11.051336 176.1875 -10.990234 z M 178.64648 -8.3535156 L 179.35352 -7.6464844 L 176 -4.2929688 L 173.64648 -6.6464844 L 174.35352 -7.3535156 L 176 -5.7070312 L 178.64648 -8.3535156 z "
       transform="translate(-155,27)"
       id="path9" />
  </g>
  <g
     id="22-22-user-busy"
     transform="translate(27,-27)">
    <rect
       style="opacity:0.001"
       width="22"
       height="22"
       x="5"
       y="5"
       id="rect14" />
    <path
       style="fill:url(#linearGradient230)"
       d="M 43 -19 C 38.568 -19 35 -15.432 35 -11 C 35 -6.568 38.568 -3 43 -3 C 43.402589 -3 43.795337 -3.0388531 44.181641 -3.0957031 A 5.5 5.5 0 0 1 43.027344 -6.0019531 C 43.017318 -6.0019271 43.010073 -6 43 -6 C 39.738457 -6 39 -7.5390625 39 -7.5390625 L 39 -8.5390625 C 39 -8.5390635 39.0004 -10.9977 43 -11 C 43.823311 -11.000309 44.469011 -10.892125 44.988281 -10.726562 A 5.5 5.5 0 0 1 48.5 -12 A 5.5 5.5 0 0 1 50.980469 -11.402344 C 50.7709 -15.644685 47.296148 -19 43 -19 z M 43 -16 C 44.104533 -16 45 -15.104533 45 -14 C 45 -12.8956 44.1044 -12 43 -12 C 41.8956 -12 41 -12.8956 41 -14 C 41 -15.1044 41.8956 -16 43 -16 z M 48.5 -11 A 4.5 4.5 0 0 0 44 -6.5 A 4.5 4.5 0 0 0 48.5 -2 A 4.5 4.5 0 0 0 53 -6.5 A 4.5 4.5 0 0 0 48.5 -11 z M 48 -10 L 49 -10 L 49 -7 L 52 -7 L 52 -6 L 49 -6 L 48 -6 L 48 -7 L 48 -10 z "
       transform="translate(-27,27)"
       id="path16" />
  </g>
  <g
     id="22-22-user-offline"
     transform="translate(91,-27)">
    <rect
       style="opacity:0.001"
       width="22"
       height="22"
       x="5"
       y="5"
       id="rect21" />
    <path
       style="opacity:0.3;fill:url(#linearGradient246)"
       d="M 107 -19 C 102.568 -19 99 -15.432 99 -11 C 99 -6.568 102.568 -3 107 -3 C 107.40259 -3 107.79534 -3.0388531 108.18164 -3.0957031 A 5.5 5.5 0 0 1 107.02734 -6.0019531 C 107.01732 -6.0019271 107.01007 -6 107 -6 C 103.73846 -6 103 -7.5390625 103 -7.5390625 L 103 -8.5390625 C 103 -8.5390635 103.0004 -10.9977 107 -11 C 107.82331 -11.000309 108.46901 -10.892125 108.98828 -10.726562 A 5.5 5.5 0 0 1 112.5 -12 A 5.5 5.5 0 0 1 114.98047 -11.402344 C 114.7709 -15.644685 111.29615 -19 107 -19 z M 107 -16 C 108.10453 -16 109 -15.104533 109 -14 C 109 -12.8956 108.1044 -12 107 -12 C 105.8956 -12 105 -12.8956 105 -14 C 105 -15.1044 105.8956 -16 107 -16 z M 112.5 -11 C 110.01472 -11 108 -8.985281 108 -6.5 C 108 -4.014719 110.01472 -2 112.5 -2 C 114.98528 -2 117 -4.014719 117 -6.5 C 117 -8.985281 114.98528 -11 112.5 -11 z M 110 -7 L 115 -7 L 115 -6 L 110 -6 L 110 -7 z "
       transform="translate(-91,27)"
       id="path23" />
  </g>
  <g
     id="22-22-user-invisible"
     transform="translate(123,-27)">
    <rect
       style="opacity:0.001"
       width="22"
       height="22"
       x="5"
       y="5"
       id="rect28" />
    <path
       style="fill:url(#linearGradient254)"
       d="M 139 -19 C 134.568 -19 131 -15.432 131 -11 C 131 -6.568 134.568 -3 139 -3 C 139.40259 -3 139.79534 -3.0388531 140.18164 -3.0957031 A 5.5 5.5 0 0 1 139.02734 -6.0019531 C 139.01732 -6.0019271 139.01007 -6 139 -6 C 135.73846 -6 135 -7.5390625 135 -7.5390625 L 135 -8.5390625 C 135 -8.5390635 135.0004 -10.9977 139 -11 C 139.82331 -11.000309 140.46901 -10.892125 140.98828 -10.726562 A 5.5 5.5 0 0 1 144.5 -12 A 5.5 5.5 0 0 1 146.98047 -11.402344 C 146.7709 -15.644685 143.29615 -19 139 -19 z M 139 -16 C 140.10453 -16 141 -15.104533 141 -14 C 141 -12.8956 140.1044 -12 139 -12 C 137.8956 -12 137 -12.8956 137 -14 C 137 -15.1044 137.8956 -16 139 -16 z M 144.1875 -10.990234 C 142.74652 -10.888399 141.38017 -10.095198 140.60352 -8.75 C 139.36088 -6.597683 140.09768 -3.8461576 142.25 -2.6035156 C 144.40232 -1.3608756 147.15384 -2.097683 148.39648 -4.25 C 149.63912 -6.402317 148.90232 -9.1538424 146.75 -10.396484 C 145.94288 -10.862474 145.05209 -11.051336 144.1875 -10.990234 z M 145.31641 -8.9160156 L 146.18359 -8.4160156 L 143.68359 -4.0839844 L 142.81641 -4.5839844 L 145.31641 -8.9160156 z "
       transform="translate(-123,27)"
       id="path30" />
  </g>
  <g
     id="22-22-user-away-extended"
     transform="translate(187,-27)">
    <rect
       style="opacity:0.001"
       width="22"
       height="22"
       x="5"
       y="5"
       id="rect35" />
    <path
       style="fill:url(#linearGradient270)"
       d="M 203 -19 C 198.568 -19 195 -15.432 195 -11 C 195 -6.568 198.568 -3 203 -3 C 203.40259 -3 203.79534 -3.0388531 204.18164 -3.0957031 A 5.5 5.5 0 0 1 203.02734 -6.0019531 C 203.01732 -6.0019271 203.01007 -6 203 -6 C 199.73846 -6 199 -7.5390625 199 -7.5390625 L 199 -8.5390625 C 199 -8.5390635 199.0004 -10.9977 203 -11 C 203.82331 -11.000309 204.46901 -10.892125 204.98828 -10.726562 A 5.5 5.5 0 0 1 208.5 -12 A 5.5 5.5 0 0 1 210.98047 -11.402344 C 210.7709 -15.644685 207.29615 -19 203 -19 z M 203 -16 C 204.10453 -16 205 -15.104533 205 -14 C 205 -12.8956 204.1044 -12 203 -12 C 201.8956 -12 201 -12.8956 201 -14 C 201 -15.1044 201.8956 -16 203 -16 z M 208.5 -11 C 206.01472 -11 204 -8.985281 204 -6.5 C 204 -4.014719 206.01472 -2 208.5 -2 C 210.98528 -2 213 -4.014719 213 -6.5 C 213 -8.985281 210.98528 -11 208.5 -11 z M 206 -7 L 207 -7 L 207 -6 L 206 -6 L 206 -7 z M 208 -7 L 209 -7 L 209 -6 L 208 -6 L 208 -7 z M 210 -7 L 211 -7 L 211 -6 L 210 -6 L 210 -7 z "
       transform="translate(-187,27)"
       id="path37" />
  </g>
  <g
     id="22-22-user-away"
     transform="translate(59,-27)">
    <rect
       style="opacity:0.001"
       width="22"
       height="22"
       x="5"
       y="5"
       id="rect42" />
    <path
       style="fill:url(#linearGradient238)"
       d="M 75 -19 C 70.568 -19 67 -15.432 67 -11 C 67 -6.568 70.568 -3 75 -3 C 75.402589 -3 75.795337 -3.0388531 76.181641 -3.0957031 A 5.5 5.5 0 0 1 75.027344 -6.0019531 C 75.017318 -6.0019271 75.010073 -6 75 -6 C 71.738457 -6 71 -7.5390625 71 -7.5390625 L 71 -8.5390625 C 71 -8.5390635 71.0004 -10.9977 75 -11 C 75.823311 -11.000309 76.469011 -10.892125 76.988281 -10.726562 A 5.5 5.5 0 0 1 80.5 -12 A 5.5 5.5 0 0 1 82.980469 -11.402344 C 82.7709 -15.644685 79.296148 -19 75 -19 z M 75 -16 C 76.104533 -16 77 -15.104533 77 -14 C 77 -12.8956 76.1044 -12 75 -12 C 73.8956 -12 73 -12.8956 73 -14 C 73 -15.1044 73.8956 -16 75 -16 z M 80.5 -11 C 78.014719 -11 76 -8.985281 76 -6.5 C 76 -4.014719 78.014719 -2 80.5 -2 C 82.985281 -2 85 -4.014719 85 -6.5 C 85 -8.985281 82.985281 -11 80.5 -11 z M 83 -9 L 81.75 -4.625 L 80.5 -5.25 L 79.875 -4 L 79.25 -5.875 L 78 -6.5 L 83 -9 z "
       transform="translate(-59,27)"
       id="path44" />
  </g>
  <g
     id="22-22-user-trash"
     transform="translate(251,-27)">
    <rect
       style="opacity:0.001"
       width="22"
       height="22"
       x="5"
       y="5"
       id="rect49" />
    <path
       style="fill:url(#linearGradient286)"
       d="m 14,9 c -1,0 -1,1 -1,1 h -3 c 0,0 -1,0 -1,1 v 1 h 13 v -1 c 0,-1 -1,-1 -1,-1 h -3 c 0,0 0,-1 -1,-1 z m -4,4 v 9 c 0,0.52 0.48,1 1,1 h 8 1 c 0.52,0 1,-0.48 1,-1 v -9 z"
       id="path51" />
  </g>
  <g
     id="22-22-user-trash-full"
     transform="translate(283,-27)">
    <rect
       style="opacity:0.001"
       width="22"
       height="22"
       x="5"
       y="5"
       id="rect54" />
    <path
       style="fill:url(#linearGradient294)"
       d="m 14,9.000001 c -1,0 -1,1 -1,1 h -3 c 0,0 -1,0 -1,1 V 12 h 13 v -0.999999 c 0,-1 -1,-1 -1,-1 h -3 c 0,0 0,-1 -1,-1 z M 9,13 v 3 c 0,1 0.05922,2.15 0.199219,3 C 9.339219,19.85 10,22 10,22 c 0,0 0.48,1 1,1 h 9 c 0.52,0 1,-1 1,-1 0,0 0.660781,-2.15 0.800781,-3 C 21.940781,18.15 22,17 22,16 v -3 z"
       id="path56" />
  </g>
  <g
     id="22-22-user-desktop"
     transform="translate(219,-27)">
    <rect
       style="opacity:0.001"
       width="22"
       height="22"
       x="5"
       y="5"
       id="rect59" />
    <path
       style="fill:url(#linearGradient278)"
       d="M 8,11 V 22.205078 C 8,22.64576 8.3575814,23 8.8007812,23 H 12 v -1 c 0,-0.554001 0.412443,-1 0.923828,-1 h 6.152344 C 19.587557,21 20,21.445999 20,22 v 1 h 3.199219 C 23.642419,23 24,22.64576 24,22.205078 V 11 Z"
       id="path61" />
    <path
       style="opacity:0.3;fill:#dedede"
       d="m 8.7999995,8.9999999 c -0.4432,0 -0.8,0.3547728 -0.8,0.7954546 V 11 H 24 V 9.7954545 C 24,9.3547727 23.64288,8.9999999 23.2,8.9999999 Z"
       id="path63" />
  </g>
  <g
     id="user-identity">
    <rect
       style="opacity:0.001"
       width="32"
       height="32"
       x="0"
       y="0"
       id="rect66" />
    <path
       style="fill:url(#linearGradient134)"
       d="M 16,4 C 9.3520004,4 4,9.3520001 4,16 4,22.648 9.3520004,28 16,28 22.648001,28 28,22.648 28,16 28,9.3520001 22.648001,4 16,4 Z m 0,5 c 1.6568,0 3,1.3432 3,3 0,1.6566 -1.343399,3 -3,3 -1.6566,0 -3,-1.3434 -3,-3 0,-1.6566 1.3434,-3 3,-3 z m 0,8 c 5.998801,-0.0021 6,3.445313 6,3.445312 v 1.400391 C 22,21.845702 20.892315,24 16,24 11.107686,24 10,21.845703 10,21.845703 v -1.400391 c 0,-2e-6 6e-4,-3.442092 6,-3.445312 z"
       id="path68" />
  </g>
  <g
     id="user-busy"
     transform="translate(32)">
    <rect
       style="opacity:0.001"
       width="32"
       height="32"
       x="0"
       y="0"
       id="rect71" />
    <path
       style="fill:url(#linearGradient142)"
       d="M 16,4 C 9.3520004,4 4,9.3520001 4,16 c 0,6.648 5.3520004,12 12,12 0.245346,0 0.484951,-0.02273 0.726562,-0.03711 a 8,8 0 0 1 -1.65625,-3.992188 C 10.967655,23.719437 10,21.845703 10,21.845703 v -1.400391 c 0,-1e-6 6e-4,-3.442092 6,-3.445312 0.59769,-2.09e-4 1.120925,0.04206 1.605469,0.103516 A 8,8 0 0 1 23,15 8,8 0 0 1 27.962891,16.734375 C 27.977573,16.490214 28,16.247978 28,16 28,9.3520001 22.648001,4 16,4 Z m 0,5 c 1.6568,0 3,1.3432 3,3 0,1.6566 -1.343399,3 -3,3 -1.6566,0 -3,-1.3434 -3,-3 0,-1.6566 1.3434,-3 3,-3 z m 7,8 c -3.313708,0 -6,2.686292 -6,6 0,3.313708 2.686292,6 6,6 3.313708,0 6,-2.686292 6,-6 0,-3.313708 -2.686292,-6 -6,-6 z m -1,2 h 2 v 3 h 3 v 2 h -3 -2 v -2 z"
       id="path73" />
  </g>
  <g
     id="user-away"
     transform="translate(64)">
    <rect
       style="opacity:0.001"
       width="32"
       height="32"
       x="0"
       y="0"
       id="rect76" />
    <path
       style="fill:url(#linearGradient150)"
       d="M 16,4 C 9.3520004,4 4,9.3520001 4,16 c 0,6.648 5.3520004,12 12,12 0.245346,0 0.484951,-0.02273 0.726562,-0.03711 -0.907909,-1.153564 -1.480904,-2.534703 -1.65625,-3.992188 C 10.967655,23.719438 10,21.845703 10,21.845703 v -1.400391 c 0,-1e-6 6e-4,-3.442092 6,-3.445312 0.59769,-2.09e-4 1.120925,0.04206 1.605469,0.103516 C 19.077928,15.753382 21.002254,15.00302 23,15 c 1.802442,0.0025 3.551213,0.613674 4.962891,1.734375 C 27.977573,16.490214 28,16.247978 28,16 28,9.3520001 22.648001,4 16,4 Z m 0,5 c 1.6568,0 3,1.3432 3,3 0,1.6566 -1.343399,3 -3,3 -1.6566,0 -3,-1.3434 -3,-3 0,-1.6566 1.3434,-3 3,-3 z m 7,8 c -3.313708,0 -6,2.686292 -6,6 0,3.313708 2.686292,6 6,6 3.313708,0 6,-2.686292 6,-6 0,-3.313708 -2.686292,-6 -6,-6 z m 3,3 -1.5,5.25 L 23,24.5 22.25,26 21.5,23.75 20,23 Z"
       id="path78" />
  </g>
  <g
     id="user-offline"
     transform="translate(96)">
    <rect
       style="opacity:0.001"
       width="32"
       height="32"
       x="0"
       y="0"
       id="rect81" />
    <path
       style="opacity:0.3;fill:url(#linearGradient158)"
       d="M 112 4 C 105.352 4 100 9.3520001 100 16 C 100 22.648 105.352 28 112 28 C 112.24535 28 112.48495 27.977271 112.72656 27.962891 C 111.81865 26.809327 111.24566 25.428188 111.07031 23.970703 C 106.96766 23.719439 106 21.845703 106 21.845703 L 106 20.445312 C 106 20.445311 106.0006 17.00322 112 17 C 112.59769 16.999791 113.12092 17.04206 113.60547 17.103516 C 115.07793 15.753382 117.00225 15.00302 119 15 C 120.80244 15.0025 122.55121 15.613674 123.96289 16.734375 C 123.97757 16.490214 124 16.247978 124 16 C 124 9.3520001 118.648 4 112 4 z M 112 9 C 113.6568 9 115 10.3432 115 12 C 115 13.6566 113.6566 15 112 15 C 110.3434 15 109 13.6566 109 12 C 109 10.3434 110.3434 9 112 9 z M 119 17 C 115.68629 17 113 19.686292 113 23 C 113 26.313708 115.68629 29 119 29 C 122.31371 29 125 26.313708 125 23 C 125 19.686292 122.31371 17 119 17 z M 115 22 L 120 22 L 123 22 L 123 24 L 120 24 L 115 24 L 115 22 z "
       transform="translate(-96)"
       id="path83" />
  </g>
  <g
     id="user-invisible"
     transform="translate(128)">
    <rect
       style="opacity:0.001"
       width="32"
       height="32"
       x="0"
       y="0"
       id="rect88" />
    <path
       style="fill:url(#linearGradient166)"
       d="M 16,4 C 9.3520004,4 4,9.3520001 4,16 c 0,6.648 5.3520004,12 12,12 0.245346,0 0.484951,-0.02273 0.726562,-0.03711 -0.907909,-1.153564 -1.480904,-2.534703 -1.65625,-3.992188 C 10.967655,23.719439 10,21.845703 10,21.845703 v -1.400391 c 0,-1e-6 6e-4,-3.442092 6,-3.445312 0.59769,-2.09e-4 1.120925,0.04206 1.605469,0.103516 C 19.077928,15.753382 21.002254,15.00302 23,15 c 1.802442,0.0025 3.551213,0.613674 4.962891,1.734375 C 27.977573,16.490214 28,16.247978 28,16 28,9.3520001 22.648001,4 16,4 Z m 0,5 c 1.6568,0 3,1.3432 3,3 0,1.6566 -1.343399,3 -3,3 -1.6566,0 -3,-1.3434 -3,-3 0,-1.6566 1.3434,-3 3,-3 z m 7.160156,8.001953 C 21.032722,16.9467 18.943584,18.027373 17.804688,20 16.14811,22.869276 17.130724,26.538736 20,28.195312 22.869276,29.85189 26.538735,28.869276 28.195312,26 29.851889,23.130724 28.869276,19.461265 26,17.804688 25.103351,17.287007 24.127172,17.027068 23.160156,17.001953 Z m 0.972656,2.035156 1.732422,1 -1.5,2.597657 -2.498046,4.328125 -1.732422,-1 2.5,-4.328125 z"
       id="path90" />
  </g>
  <g
     id="user-online"
     transform="translate(160)">
    <rect
       style="opacity:0.001"
       width="32"
       height="32"
       x="0"
       y="0"
       id="rect93" />
    <path
       style="fill:url(#linearGradient174)"
       d="M 16,4 C 9.3520004,4 4,9.3520001 4,16 c 0,6.648 5.3520004,12 12,12 0.245346,0 0.484951,-0.02273 0.726562,-0.03711 -0.907909,-1.153564 -1.480904,-2.534703 -1.65625,-3.992188 C 10.967655,23.719438 10,21.845703 10,21.845703 v -1.400391 c 0,-1e-6 6e-4,-3.442092 6,-3.445312 0.59769,-2.09e-4 1.120925,0.04206 1.605469,0.103516 C 19.077928,15.753382 21.002254,15.00302 23,15 c 1.802442,0.0025 3.551213,0.613674 4.962891,1.734375 C 27.977573,16.490214 28,16.247978 28,16 28,9.3520001 22.648001,4 16,4 Z m 0,5 c 1.6568,0 3,1.3432 3,3 0,1.6566 -1.343399,3 -3,3 -1.6566,0 -3,-1.3434 -3,-3 0,-1.6566 1.3434,-3 3,-3 z m 7,8 c -3.313708,0 -6,2.686292 -6,6 0,3.313708 2.686292,6 6,6 3.313708,0 6,-2.686292 6,-6 0,-3.313708 -2.686292,-6 -6,-6 z m 2.642578,2.953125 1.408203,1.421875 -4.720703,4.671875 -3.380859,-3.380859 1.414062,-1.414063 1.972657,1.972656 z"
       id="path95" />
  </g>
  <g
     id="user-away-extended"
     transform="translate(192)">
    <rect
       style="opacity:0.001"
       width="32"
       height="32"
       x="0"
       y="0"
       id="rect98" />
    <path
       style="fill:url(#linearGradient182)"
       d="M 16,4 C 9.3520004,4 4,9.3520001 4,16 c 0,6.648 5.3520004,12 12,12 0.245346,0 0.484951,-0.02273 0.726562,-0.03711 -0.907909,-1.153564 -1.480904,-2.534703 -1.65625,-3.992188 C 10.967655,23.719439 10,21.845703 10,21.845703 v -1.400391 c 0,-1e-6 6e-4,-3.442092 6,-3.445312 0.59769,-2.09e-4 1.120925,0.04206 1.605469,0.103516 C 19.077928,15.753382 21.002254,15.00302 23,15 c 1.802442,0.0025 3.551213,0.613674 4.962891,1.734375 C 27.977573,16.490214 28,16.247978 28,16 28,9.3520001 22.648001,4 16,4 Z m 0,5 c 1.6568,0 3,1.3432 3,3 0,1.6566 -1.343399,3 -3,3 -1.6566,0 -3,-1.3434 -3,-3 0,-1.6566 1.3434,-3 3,-3 z m 7,8 c -3.313708,0 -6,2.686292 -6,6 0,3.313708 2.686292,6 6,6 3.313708,0 6,-2.686292 6,-6 0,-3.313708 -2.686292,-6 -6,-6 z m -4,5 h 2 v 2 h -2 z m 3,0 h 2 v 2 h -2 z m 3,0 h 2 v 2 h -2 z"
       id="path100" />
  </g>
  <g
     id="user-trash"
     transform="translate(256)">
    <rect
       style="opacity:0.001"
       width="32"
       height="32"
       x="0"
       y="0"
       id="rect103" />
    <path
       style="fill:url(#linearGradient206)"
       d="M 14.324219,6 C 12.939605,6 12.939453,7 12.939453,7 H 8.3847656 C 8.3847656,7 7,6.9907697 7,8.4453125 V 10 H 25 V 8.4453125 C 25,6.990767 23.615234,7 23.615234,7 h -4.554687 c 0,0 -1.51e-4,-1 -1.384766,-1 z M 8,12 V 24.544922 C 8,25.301286 8.6987144,26 9.4550781,26 H 21.091797 22.544922 C 23.301287,26 24,25.301286 24,24.544922 V 12 Z"
       id="path105" />
  </g>
  <g
     id="user-trash-full"
     transform="translate(288)">
    <rect
       style="opacity:0.001"
       width="32"
       height="32"
       x="0"
       y="0"
       id="rect108" />
    <path
       style="fill:url(#linearGradient214)"
       d="M 14.324219,6 C 12.939605,6 12.939453,7 12.939453,7 H 8.3847656 C 8.3847656,7 7,6.9907697 7,8.4453125 V 10 H 25 V 8.4453125 C 25,6.990767 23.615234,7 23.615234,7 h -4.554687 c 0,0 -1.51e-4,-1 -1.384766,-1 z M 7,12 v 4.199219 c 0,1.4 0.081549,3.011172 0.2753906,4.201172 0.193846,1.19 1.109375,4.199218 1.109375,4.199218 0,0 0.6647656,1.400391 1.3847656,1.400391 H 22.230469 c 0.72,0 1.384765,-1.400391 1.384765,-1.400391 0,0 0.915529,-3.009218 1.109375,-4.199218 C 24.918455,19.210391 25,17.599219 25,16.199219 V 12 Z"
       id="path110" />
  </g>
  <g
     id="user-desktop"
     transform="translate(224)">
    <rect
       style="opacity:0.001"
       width="32"
       height="32"
       x="0"
       y="0"
       id="rect113" />
    <path
       style="fill:url(#linearGradient190)"
       d="M 4.0000011,8.0000017 V 24.807617 C 4.0000011,25.46864 4.5363732,26 5.2011729,26 h 4.7988281 v -1.499999 c 0,-0.831002 0.618664,-1.5 1.385742,-1.5 h 9.228515 c 0.767078,0 1.385742,0.668998 1.385742,1.5 V 26 h 4.798829 C 27.463628,26 28,25.46864 28,24.807617 V 8.0000017 Z"
       id="path115" />
    <path
       style="opacity:0.3;fill:url(#linearGradient198)"
       d="m 5.2000003,5.0000018 c -0.6647999,0 -1.1999999,0.5321591 -1.1999999,1.1931818 V 8.0000017 H 28 V 6.1931836 C 28,5.5321609 27.46432,5.0000018 26.8,5.0000018 Z"
       id="path117" />
  </g>
</svg>
