<?xml version="1.0" encoding="UTF-8" standalone="no"?>
<svg
   xmlns:dc="http://purl.org/dc/elements/1.1/"
   xmlns:cc="http://creativecommons.org/ns#"
   xmlns:rdf="http://www.w3.org/1999/02/22-rdf-syntax-ns#"
   xmlns:svg="http://www.w3.org/2000/svg"
   xmlns="http://www.w3.org/2000/svg"
   xmlns:xlink="http://www.w3.org/1999/xlink"
   xmlns:sodipodi="http://sodipodi.sourceforge.net/DTD/sodipodi-0.dtd"
   xmlns:inkscape="http://www.inkscape.org/namespaces/inkscape"
   width="44"
   height="44"
   version="1.1"
   viewBox="0 0 11.64 11.64"
   id="svg24"
   sodipodi:docname="arrows.svg"
   inkscape:version="0.92.4 (5da689c313, 2019-01-14)">
  <metadata
     id="metadata30">
    <rdf:RDF>
      <cc:Work
         rdf:about="">
        <dc:format>image/svg+xml</dc:format>
        <dc:type
           rdf:resource="http://purl.org/dc/dcmitype/StillImage" />
      </cc:Work>
    </rdf:RDF>
  </metadata>
  <defs
     id="defs28">
    <linearGradient
       inkscape:collect="always"
       id="linearGradient37">
      <stop
         style="stop-color:#ff00ff;stop-opacity:1"
         offset="0"
         id="stop33" />
      <stop
         style="stop-color:#00ffff;stop-opacity:1"
         offset="1"
         id="stop35" />
    </linearGradient>
    <linearGradient
       inkscape:collect="always"
       xlink:href="#linearGradient37"
       id="linearGradient39"
       x1="5"
       y1="22.00293"
       x2="39.005859"
       y2="22.00293"
       gradientUnits="userSpaceOnUse" />
  </defs>
  <sodipodi:namedview
     pagecolor="#ffffff"
     bordercolor="#666666"
     borderopacity="1"
     objecttolerance="10"
     gridtolerance="10"
     guidetolerance="10"
     inkscape:pageopacity="0"
     inkscape:pageshadow="2"
     inkscape:window-width="1920"
     inkscape:window-height="1000"
     id="namedview26"
     showgrid="false"
     inkscape:zoom="5.3636364"
     inkscape:cx="22"
     inkscape:cy="22"
     inkscape:window-x="0"
     inkscape:window-y="0"
     inkscape:window-maximized="1"
     inkscape:current-layer="g22" />
  <g
     transform="translate(-11.641649,-261.54584)"
     id="g22">
    <g
       id="up-arrow"
       transform="translate(-1.3769874e-5,6.6146114)">
      <rect
         style="fill:none"
         width="3.704"
         height="3.704"
         x="254.93"
         y="15.61"
         transform="matrix(0,1,1,0,0,0)"
         id="rect2" />
      <path
         style="fill:url(#linearGradient39);stroke-width:3.78006864"
         d="M 22.003906 5 L 18.001953 9.0019531 L 26.003906 9.0019531 L 22.003906 5 z M 9.0019531 18.001953 L 5 22.003906 L 9.0019531 26.003906 L 9.0019531 18.001953 z M 35.005859 18.001953 L 35.005859 26.003906 L 39.005859 22.003906 L 35.005859 18.001953 z M 18.001953 35.005859 L 22.003906 39.005859 L 26.003906 35.005859 L 18.001953 35.005859 z "
         transform="matrix(0.26454545,0,0,0.26454545,11.641663,254.93123)"
         id="path4" />
    </g>
    <g
       id="down-arrow"
       transform="matrix(1,0,0,-1,-1.4008293e-5,528.11874)">
      <rect
         style="fill:none"
         width="3.704"
         height="3.704"
         x="254.93"
         y="15.61"
         transform="matrix(0,1,1,0,0,0)"
         id="rect7" />
    </g>
    <g
       id="right-arrow"
       transform="matrix(0,1,-1,0,278.21454,249.90418)">
      <rect
         style="fill:none"
         width="3.704"
         height="3.704"
         x="254.93"
         y="15.61"
         transform="matrix(0,1,1,0,0,0)"
         id="rect12" />
    </g>
    <g
       id="left-arrow"
       transform="matrix(0,1,1,0,-243.28958,249.90418)">
      <rect
         style="fill:none"
         width="3.704"
         height="3.704"
         x="254.93"
         y="15.61"
         transform="matrix(0,1,1,0,0,0)"
         id="rect17" />
    </g>
  </g>
</svg>
