<?xml version="1.0" encoding="UTF-8" standalone="no"?>
<svg
   xmlns:dc="http://purl.org/dc/elements/1.1/"
   xmlns:cc="http://creativecommons.org/ns#"
   xmlns:rdf="http://www.w3.org/1999/02/22-rdf-syntax-ns#"
   xmlns:svg="http://www.w3.org/2000/svg"
   xmlns="http://www.w3.org/2000/svg"
   xmlns:xlink="http://www.w3.org/1999/xlink"
   xmlns:sodipodi="http://sodipodi.sourceforge.net/DTD/sodipodi-0.dtd"
   xmlns:inkscape="http://www.inkscape.org/namespaces/inkscape"
   width="136"
   height="40"
   version="1.1"
   viewBox="0 0 35.98 10.58"
   id="svg23"
   sodipodi:docname="busywidget.svg"
   inkscape:version="0.92.4 (5da689c313, 2019-01-14)">
  <metadata
     id="metadata29">
    <rdf:RDF>
      <cc:Work
         rdf:about="">
        <dc:format>image/svg+xml</dc:format>
        <dc:type
           rdf:resource="http://purl.org/dc/dcmitype/StillImage" />
      </cc:Work>
    </rdf:RDF>
  </metadata>
  <defs
     id="defs27">
    <linearGradient
       inkscape:collect="always"
       id="linearGradient59">
      <stop
         style="stop-color:#ff00ff;stop-opacity:1"
         offset="0"
         id="stop55" />
      <stop
         style="stop-color:#00ffff;stop-opacity:1"
         offset="1"
         id="stop57" />
    </linearGradient>
    <linearGradient
       inkscape:collect="always"
       id="linearGradient51">
      <stop
         style="stop-color:#ff00ff;stop-opacity:1"
         offset="0"
         id="stop47" />
      <stop
         style="stop-color:#00ffff;stop-opacity:1"
         offset="1"
         id="stop49" />
    </linearGradient>
    <linearGradient
       inkscape:collect="always"
       id="linearGradient43">
      <stop
         style="stop-color:#ff00ff;stop-opacity:1"
         offset="0"
         id="stop39" />
      <stop
         style="stop-color:#00ffff;stop-opacity:1"
         offset="1"
         id="stop41" />
    </linearGradient>
    <linearGradient
       inkscape:collect="always"
       id="linearGradient35">
      <stop
         style="stop-color:#ff00ff;stop-opacity:1"
         offset="0"
         id="stop31" />
      <stop
         style="stop-color:#00ffff;stop-opacity:1"
         offset="1"
         id="stop33" />
    </linearGradient>
    <linearGradient
       inkscape:collect="always"
       xlink:href="#linearGradient35"
       id="linearGradient37"
       x1="24.339412"
       y1="6.3482351"
       x2="32.805295"
       y2="6.3482351"
       gradientUnits="userSpaceOnUse" />
    <linearGradient
       inkscape:collect="always"
       xlink:href="#linearGradient43"
       id="linearGradient45"
       x1="0"
       y1="8.4647056"
       x2="4.2329413"
       y2="8.4647056"
       gradientUnits="userSpaceOnUse" />
    <linearGradient
       inkscape:collect="always"
       xlink:href="#linearGradient51"
       id="linearGradient53"
       x1="25"
       y1="29"
       x2="47"
       y2="29"
       gradientUnits="userSpaceOnUse" />
    <linearGradient
       inkscape:collect="always"
       xlink:href="#linearGradient59"
       id="linearGradient61"
       x1="0"
       y1="8.4647056"
       x2="4.2329413"
       y2="8.4647056"
       gradientUnits="userSpaceOnUse" />
  </defs>
  <sodipodi:namedview
     pagecolor="#ffffff"
     bordercolor="#666666"
     borderopacity="1"
     objecttolerance="10"
     gridtolerance="10"
     guidetolerance="10"
     inkscape:pageopacity="0"
     inkscape:pageshadow="2"
     inkscape:window-width="1920"
     inkscape:window-height="1000"
     id="namedview25"
     showgrid="false"
     inkscape:zoom="2.2720588"
     inkscape:cx="68"
     inkscape:cy="2.394822"
     inkscape:window-x="0"
     inkscape:window-y="0"
     inkscape:window-maximized="1"
     inkscape:current-layer="svg23" />
  <rect
     id="hint-rotation-angle"
     style="fill:#0000ff"
     width="3.704"
     height="3.704"
     x="0"
     y="10.59" />
  <g
     id="22-22-busywidget">
    <rect
       style="opacity:0.001"
       width="5.82"
       height="5.82"
       x="6.61"
       y="4.76"
       id="rect3" />
    <path
       style="fill:url(#linearGradient53)"
       transform="matrix(0.26455883,0,0,0.26455881,0,-0.00117624)"
       d="M 36 18 A 2 2.0000001 0 0 0 34 20 A 2 2.0000001 0 0 0 36 22 A 2 2.0000001 0 0 0 38 20 A 2 2.0000001 0 0 0 36 18 z M 29.607422 20.636719 A 2.0000001 2 0 0 0 28.222656 21.222656 A 2.0000001 2 0 0 0 28.222656 24.050781 A 2.0000001 2 0 0 0 31.050781 24.050781 A 2.0000001 2 0 0 0 31.050781 21.222656 A 2.0000001 2 0 0 0 29.607422 20.636719 z M 42.333984 20.636719 A 1.9999999 2.0000002 0 0 0 40.949219 21.222656 A 1.9999999 2.0000002 0 0 0 40.949219 24.050781 A 1.9999999 2.0000002 0 0 0 43.777344 24.050781 A 1.9999999 2.0000002 0 0 0 43.777344 21.222656 A 1.9999999 2.0000002 0 0 0 42.333984 20.636719 z M 27 27 A 2.0000001 2 0 0 0 25 29 A 2.0000001 2 0 0 0 27 31 A 2.0000001 2 0 0 0 29 29 A 2.0000001 2 0 0 0 27 27 z M 45 27 A 2.0000001 2 0 0 0 43 29 A 2.0000001 2 0 0 0 45 31 A 2.0000001 2 0 0 0 47 29 A 2.0000001 2 0 0 0 45 27 z M 29.607422 33.363281 A 1.9999999 2.0000002 0 0 0 28.222656 33.949219 A 1.9999999 2.0000002 0 0 0 28.222656 36.777344 A 1.9999999 2.0000002 0 0 0 31.050781 36.777344 A 1.9999999 2.0000002 0 0 0 31.050781 33.949219 A 1.9999999 2.0000002 0 0 0 29.607422 33.363281 z M 42.333984 33.363281 A 2.0000001 2 0 0 0 40.949219 33.949219 A 2.0000001 2 0 0 0 40.949219 36.777344 A 2.0000001 2 0 0 0 43.777344 36.777344 A 2.0000001 2 0 0 0 43.777344 33.949219 A 2.0000001 2 0 0 0 42.333984 33.363281 z M 36 36 A 2 2.0000001 0 0 0 34 38 A 2 2.0000001 0 0 0 36 40 A 2 2.0000001 0 0 0 38 38 A 2 2.0000001 0 0 0 36 36 z"
       id="path5" />
  </g>
  <g
     id="16-16-busywidget">
    <rect
       style="opacity:0.001"
       width="4.233"
       height="4.233"
       x="0"
       y="6.35"
       id="rect8" />
    <path
       style="fill:url(#linearGradient61)"
       d="M 2.1164706,6.3482352 A 0.39683825,0.39683821 0 0 0 1.7196324,6.7450734 0.39683825,0.39683821 0 0 0 2.1164706,7.1419116 0.39683825,0.39683821 0 0 0 2.5133089,6.7450734 0.39683825,0.39683821 0 0 0 2.1164706,6.3482352 Z M 0.89495292,6.8520337 a 0.39683825,0.39683821 0 0 0 -0.27489316,0.1162612 0.39683825,0.39683821 0 0 0 0,0.5611541 0.39683825,0.39683821 0 0 0 0.56115414,0 0.39683825,0.39683821 0 0 0 0,-0.5611541 0.39683825,0.39683821 0 0 0 -0.28626098,-0.1162612 z m 2.43166778,0 a 0.39683825,0.39683821 0 0 0 -0.2748933,0.1162612 0.39683825,0.39683821 0 0 0 0,0.5611541 0.39683825,0.39683821 0 0 0 0.5611541,0 0.39683825,0.39683821 0 0 0 0,-0.5611541 A 0.39683825,0.39683821 0 0 0 3.3266207,6.8520337 Z M 0.39683825,8.0678675 A 0.39683825,0.39683821 0 0 0 0,8.4647057 0.39683825,0.39683821 0 0 0 0.39683825,8.8615439 0.39683825,0.39683821 0 0 0 0.79367649,8.4647057 0.39683825,0.39683821 0 0 0 0.39683825,8.0678675 Z m 3.43926475,0 A 0.39683825,0.39683821 0 0 0 3.4392648,8.4647057 0.39683825,0.39683821 0 0 0 3.836103,8.8615439 0.39683825,0.39683821 0 0 0 4.2329413,8.4647057 0.39683825,0.39683821 0 0 0 3.836103,8.0678675 Z M 0.89495292,9.2837012 a 0.39683825,0.39683821 0 0 0 -0.27489316,0.1162611 0.39683825,0.39683821 0 0 0 0,0.5611541 0.39683825,0.39683821 0 0 0 0.56115414,0 0.39683825,0.39683821 0 0 0 0,-0.5611541 0.39683825,0.39683821 0 0 0 -0.28626098,-0.1162611 z m 2.43166778,0 a 0.39683825,0.39683821 0 0 0 -0.2748933,0.1162611 0.39683825,0.39683821 0 0 0 0,0.5611541 0.39683825,0.39683821 0 0 0 0.5611541,0 0.39683825,0.39683821 0 0 0 0,-0.5611541 A 0.39683825,0.39683821 0 0 0 3.3266207,9.2837012 Z M 2.1164706,9.7874997 A 0.39683825,0.39683821 0 0 0 1.7196324,10.184338 0.39683825,0.39683821 0 0 0 2.1164706,10.581176 0.39683825,0.39683821 0 0 0 2.5133089,10.184338 0.39683825,0.39683821 0 0 0 2.1164706,9.7874997 Z"
       id="path10" />
  </g>
  <g
     id="busywidget"
     transform="matrix(1.9999723,0,0,1.9999723,13.227941,-10.580883)">
    <rect
       style="opacity:0.001"
       width="4.233"
       height="4.233"
       x="0"
       y="6.35"
       id="rect13" />
    <path
       style="fill:url(#linearGradient45)"
       d="M 2.1164706,6.3482352 A 0.39683825,0.39683821 0 0 0 1.7196324,6.7450734 0.39683825,0.39683821 0 0 0 2.1164706,7.1419116 0.39683825,0.39683821 0 0 0 2.5133089,6.7450734 0.39683825,0.39683821 0 0 0 2.1164706,6.3482352 Z M 0.89495292,6.8520337 a 0.39683825,0.39683821 0 0 0 -0.27489316,0.1162612 0.39683825,0.39683821 0 0 0 0,0.5611541 0.39683825,0.39683821 0 0 0 0.56115414,0 0.39683825,0.39683821 0 0 0 0,-0.5611541 0.39683825,0.39683821 0 0 0 -0.28626098,-0.1162612 z m 2.43166778,0 a 0.39683825,0.39683821 0 0 0 -0.2748933,0.1162612 0.39683825,0.39683821 0 0 0 0,0.5611541 0.39683825,0.39683821 0 0 0 0.5611541,0 0.39683825,0.39683821 0 0 0 0,-0.5611541 A 0.39683825,0.39683821 0 0 0 3.3266207,6.8520337 Z M 0.39683825,8.0678675 A 0.39683825,0.39683821 0 0 0 0,8.4647057 0.39683825,0.39683821 0 0 0 0.39683825,8.8615439 0.39683825,0.39683821 0 0 0 0.79367649,8.4647057 0.39683825,0.39683821 0 0 0 0.39683825,8.0678675 Z m 3.43926475,0 A 0.39683825,0.39683821 0 0 0 3.4392648,8.4647057 0.39683825,0.39683821 0 0 0 3.836103,8.8615439 0.39683825,0.39683821 0 0 0 4.2329413,8.4647057 0.39683825,0.39683821 0 0 0 3.836103,8.0678675 Z M 0.89495292,9.2837012 a 0.39683825,0.39683821 0 0 0 -0.27489316,0.1162611 0.39683825,0.39683821 0 0 0 0,0.5611541 0.39683825,0.39683821 0 0 0 0.56115414,0 0.39683825,0.39683821 0 0 0 0,-0.5611541 0.39683825,0.39683821 0 0 0 -0.28626098,-0.1162611 z m 2.43166778,0 a 0.39683825,0.39683821 0 0 0 -0.2748933,0.1162611 0.39683825,0.39683821 0 0 0 0,0.5611541 0.39683825,0.39683821 0 0 0 0.5611541,0 0.39683825,0.39683821 0 0 0 0,-0.5611541 A 0.39683825,0.39683821 0 0 0 3.3266207,9.2837012 Z M 2.1164706,9.7874997 A 0.39683825,0.39683821 0 0 0 1.7196324,10.184338 0.39683825,0.39683821 0 0 0 2.1164706,10.581176 0.39683825,0.39683821 0 0 0 2.5133089,10.184338 0.39683825,0.39683821 0 0 0 2.1164706,9.7874997 Z"
       id="path15" />
  </g>
  <g
     id="stopped">
    <rect
       style="opacity:0.001"
       width="8.466"
       height="8.466"
       x="24.34"
       y="2.12"
       id="rect18" />
    <path
       style="fill:url(#linearGradient37)"
       d="m 28.572354,2.1152942 a 4.2329413,4.2329412 0 0 0 -4.232942,4.232941 4.2329413,4.2329412 0 0 0 4.232942,4.2329408 4.2329413,4.2329412 0 0 0 4.232941,-4.2329408 4.2329413,4.2329412 0 0 0 -4.232941,-4.232941 z m 0,1.5873529 a 2.6455882,2.6455881 0 0 1 2.645588,2.6455881 2.6455882,2.6455881 0 0 1 -2.645588,2.6455881 2.6455882,2.6455881 0 0 1 -2.645589,-2.6455881 2.6455882,2.6455881 0 0 1 2.645589,-2.6455881 z"
       id="path20" />
  </g>
</svg>
