<?xml version="1.0" encoding="UTF-8" standalone="no"?>
<svg
   xmlns:dc="http://purl.org/dc/elements/1.1/"
   xmlns:cc="http://creativecommons.org/ns#"
   xmlns:rdf="http://www.w3.org/1999/02/22-rdf-syntax-ns#"
   xmlns:svg="http://www.w3.org/2000/svg"
   xmlns="http://www.w3.org/2000/svg"
   xmlns:xlink="http://www.w3.org/1999/xlink"
   xmlns:sodipodi="http://sodipodi.sourceforge.net/DTD/sodipodi-0.dtd"
   xmlns:inkscape="http://www.inkscape.org/namespaces/inkscape"
   width="200"
   height="100"
   version="1"
   id="svg152"
   sodipodi:docname="configuration-icons.svg"
   inkscape:version="0.92.4 (5da689c313, 2019-01-14)">
  <metadata
     id="metadata158">
    <rdf:RDF>
      <cc:Work
         rdf:about="">
        <dc:format>image/svg+xml</dc:format>
        <dc:type
           rdf:resource="http://purl.org/dc/dcmitype/StillImage" />
      </cc:Work>
    </rdf:RDF>
  </metadata>
  <defs
     id="defs156">
    <linearGradient
       inkscape:collect="always"
       id="linearGradient334">
      <stop
         style="stop-color:#ff00ff;stop-opacity:1"
         offset="0"
         id="stop330" />
      <stop
         style="stop-color:#00ffff;stop-opacity:1"
         offset="1"
         id="stop332" />
    </linearGradient>
    <linearGradient
       inkscape:collect="always"
       id="linearGradient326">
      <stop
         style="stop-color:#ff00ff;stop-opacity:1"
         offset="0"
         id="stop322" />
      <stop
         style="stop-color:#00ffff;stop-opacity:1"
         offset="1"
         id="stop324" />
    </linearGradient>
    <linearGradient
       inkscape:collect="always"
       id="linearGradient318">
      <stop
         style="stop-color:#ff00ff;stop-opacity:1"
         offset="0"
         id="stop314" />
      <stop
         style="stop-color:#00ffff;stop-opacity:1"
         offset="1"
         id="stop316" />
    </linearGradient>
    <linearGradient
       inkscape:collect="always"
       id="linearGradient310">
      <stop
         style="stop-color:#ff00ff;stop-opacity:1"
         offset="0"
         id="stop306" />
      <stop
         style="stop-color:#00ffff;stop-opacity:1"
         offset="1"
         id="stop308" />
    </linearGradient>
    <linearGradient
       inkscape:collect="always"
       id="linearGradient302">
      <stop
         style="stop-color:#ff00ff;stop-opacity:1"
         offset="0"
         id="stop298" />
      <stop
         style="stop-color:#00ffff;stop-opacity:1"
         offset="1"
         id="stop300" />
    </linearGradient>
    <linearGradient
       inkscape:collect="always"
       id="linearGradient285">
      <stop
         style="stop-color:#ff00ff;stop-opacity:1"
         offset="0"
         id="stop281" />
      <stop
         style="stop-color:#00ffff;stop-opacity:1"
         offset="1"
         id="stop283" />
    </linearGradient>
    <linearGradient
       inkscape:collect="always"
       id="linearGradient277">
      <stop
         style="stop-color:#ff00ff;stop-opacity:1"
         offset="0"
         id="stop273" />
      <stop
         style="stop-color:#00ffff;stop-opacity:1"
         offset="1"
         id="stop275" />
    </linearGradient>
    <linearGradient
       inkscape:collect="always"
       id="linearGradient269">
      <stop
         style="stop-color:#ff00ff;stop-opacity:1"
         offset="0"
         id="stop265" />
      <stop
         style="stop-color:#00ffff;stop-opacity:1"
         offset="1"
         id="stop267" />
    </linearGradient>
    <linearGradient
       inkscape:collect="always"
       id="linearGradient261">
      <stop
         style="stop-color:#ff00ff;stop-opacity:1"
         offset="0"
         id="stop257" />
      <stop
         style="stop-color:#00ffff;stop-opacity:1"
         offset="1"
         id="stop259" />
    </linearGradient>
    <linearGradient
       inkscape:collect="always"
       id="linearGradient253">
      <stop
         style="stop-color:#ff00ff;stop-opacity:1"
         offset="0"
         id="stop249" />
      <stop
         style="stop-color:#00ffff;stop-opacity:1"
         offset="1"
         id="stop251" />
    </linearGradient>
    <linearGradient
       inkscape:collect="always"
       id="linearGradient245">
      <stop
         style="stop-color:#ff00ff;stop-opacity:1"
         offset="0"
         id="stop241" />
      <stop
         style="stop-color:#00ffff;stop-opacity:1"
         offset="1"
         id="stop243" />
    </linearGradient>
    <linearGradient
       inkscape:collect="always"
       id="linearGradient228">
      <stop
         style="stop-color:#00ffff;stop-opacity:1"
         offset="0"
         id="stop224" />
      <stop
         style="stop-color:#ff00ff;stop-opacity:1"
         offset="1"
         id="stop226" />
    </linearGradient>
    <linearGradient
       inkscape:collect="always"
       id="linearGradient220">
      <stop
         style="stop-color:#ff00ff;stop-opacity:1"
         offset="0"
         id="stop216" />
      <stop
         style="stop-color:#00ffff;stop-opacity:1"
         offset="1"
         id="stop218" />
    </linearGradient>
    <linearGradient
       inkscape:collect="always"
       id="linearGradient212">
      <stop
         style="stop-color:#ff00ff;stop-opacity:1"
         offset="0"
         id="stop208" />
      <stop
         style="stop-color:#00ffff;stop-opacity:1"
         offset="1"
         id="stop210" />
    </linearGradient>
    <linearGradient
       inkscape:collect="always"
       id="linearGradient204">
      <stop
         style="stop-color:#ff00ff;stop-opacity:1"
         offset="0"
         id="stop200" />
      <stop
         style="stop-color:#00ffff;stop-opacity:1"
         offset="1"
         id="stop202" />
    </linearGradient>
    <linearGradient
       inkscape:collect="always"
       id="linearGradient196">
      <stop
         style="stop-color:#ff00ff;stop-opacity:1"
         offset="0"
         id="stop192" />
      <stop
         style="stop-color:#00ffff;stop-opacity:1"
         offset="1"
         id="stop194" />
    </linearGradient>
    <linearGradient
       inkscape:collect="always"
       id="linearGradient188">
      <stop
         style="stop-color:#ff00ff;stop-opacity:1"
         offset="0"
         id="stop184" />
      <stop
         style="stop-color:#00ffff;stop-opacity:1"
         offset="1"
         id="stop186" />
    </linearGradient>
    <linearGradient
       inkscape:collect="always"
       id="linearGradient180">
      <stop
         style="stop-color:#ff00ff;stop-opacity:1"
         offset="0"
         id="stop176" />
      <stop
         style="stop-color:#00ffff;stop-opacity:1"
         offset="1"
         id="stop178" />
    </linearGradient>
    <linearGradient
       inkscape:collect="always"
       id="linearGradient172">
      <stop
         style="stop-color:#ff00ff;stop-opacity:1"
         offset="0"
         id="stop168" />
      <stop
         style="stop-color:#00ffff;stop-opacity:1"
         offset="1"
         id="stop170" />
    </linearGradient>
    <linearGradient
       inkscape:collect="always"
       id="linearGradient164">
      <stop
         style="stop-color:#ff00ff;stop-opacity:1"
         offset="0"
         id="stop160" />
      <stop
         style="stop-color:#00ffff;stop-opacity:1"
         offset="1"
         id="stop162" />
    </linearGradient>
    <linearGradient
       inkscape:collect="always"
       xlink:href="#linearGradient164"
       id="linearGradient166"
       x1="46"
       y1="28"
       x2="50"
       y2="28"
       gradientUnits="userSpaceOnUse" />
    <linearGradient
       inkscape:collect="always"
       xlink:href="#linearGradient172"
       id="linearGradient174"
       x1="425.0625"
       y1="436"
       x2="438.9375"
       y2="436"
       gradientUnits="userSpaceOnUse" />
    <linearGradient
       inkscape:collect="always"
       xlink:href="#linearGradient180"
       id="linearGradient182"
       x1="426.0002"
       y1="-91"
       x2="440.0002"
       y2="-91"
       gradientUnits="userSpaceOnUse" />
    <linearGradient
       inkscape:collect="always"
       xlink:href="#linearGradient188"
       id="linearGradient190"
       x1="55"
       y1="8"
       x2="69"
       y2="8"
       gradientUnits="userSpaceOnUse" />
    <linearGradient
       inkscape:collect="always"
       xlink:href="#linearGradient196"
       id="linearGradient198"
       x1="77"
       y1="8"
       x2="83"
       y2="8"
       gradientUnits="userSpaceOnUse" />
    <linearGradient
       inkscape:collect="always"
       xlink:href="#linearGradient204"
       id="linearGradient206"
       x1="23.547915"
       y1="251.4916"
       x2="27.252082"
       y2="251.4916"
       gradientUnits="userSpaceOnUse" />
    <linearGradient
       inkscape:collect="always"
       xlink:href="#linearGradient212"
       id="linearGradient214"
       x1="109"
       y1="8"
       x2="123"
       y2="8"
       gradientUnits="userSpaceOnUse" />
    <linearGradient
       inkscape:collect="always"
       xlink:href="#linearGradient220"
       id="linearGradient222"
       x1="1"
       y1="26"
       x2="15"
       y2="26"
       gradientUnits="userSpaceOnUse" />
    <linearGradient
       inkscape:collect="always"
       xlink:href="#linearGradient228"
       id="linearGradient230"
       x1="19"
       y1="26"
       x2="33"
       y2="26"
       gradientUnits="userSpaceOnUse" />
    <linearGradient
       inkscape:collect="always"
       xlink:href="#linearGradient245"
       id="linearGradient247"
       x1="77"
       y1="46"
       x2="91"
       y2="46"
       gradientUnits="userSpaceOnUse" />
    <linearGradient
       inkscape:collect="always"
       xlink:href="#linearGradient253"
       id="linearGradient255"
       x1="347.0304"
       y1="69.257638"
       x2="358.99"
       y2="69.257638"
       gradientUnits="userSpaceOnUse" />
    <linearGradient
       inkscape:collect="always"
       xlink:href="#linearGradient261"
       id="linearGradient263"
       x1="73"
       y1="26"
       x2="87"
       y2="26"
       gradientUnits="userSpaceOnUse" />
    <linearGradient
       inkscape:collect="always"
       xlink:href="#linearGradient269"
       id="linearGradient271"
       x1="91"
       y1="26"
       x2="105"
       y2="26"
       gradientUnits="userSpaceOnUse" />
    <linearGradient
       inkscape:collect="always"
       xlink:href="#linearGradient277"
       id="linearGradient279"
       x1="109"
       y1="26"
       x2="123"
       y2="26"
       gradientUnits="userSpaceOnUse" />
    <linearGradient
       inkscape:collect="always"
       xlink:href="#linearGradient285"
       id="linearGradient287"
       x1="447.99983"
       y1="420.00336"
       x2="455.99983"
       y2="420.00336"
       gradientUnits="userSpaceOnUse" />
    <linearGradient
       inkscape:collect="always"
       xlink:href="#linearGradient302"
       id="linearGradient304"
       x1="59"
       y1="63.998047"
       x2="72"
       y2="63.998047"
       gradientUnits="userSpaceOnUse" />
    <linearGradient
       inkscape:collect="always"
       xlink:href="#linearGradient310"
       id="linearGradient312"
       x1="38"
       y1="44"
       x2="50"
       y2="44"
       gradientUnits="userSpaceOnUse" />
    <linearGradient
       inkscape:collect="always"
       xlink:href="#linearGradient318"
       id="linearGradient320"
       x1="260.75"
       y1="-15.872499"
       x2="261.279"
       y2="-15.872499"
       gradientUnits="userSpaceOnUse" />
    <linearGradient
       inkscape:collect="always"
       xlink:href="#linearGradient326"
       id="linearGradient328"
       x1="75.304688"
       y1="63.787156"
       x2="85.304688"
       y2="63.787156"
       gradientUnits="userSpaceOnUse" />
    <linearGradient
       inkscape:collect="always"
       xlink:href="#linearGradient334"
       id="linearGradient336"
       x1="44.996854"
       y1="767.99988"
       x2="53"
       y2="767.99988"
       gradientUnits="userSpaceOnUse" />
  </defs>
  <sodipodi:namedview
     pagecolor="#ffffff"
     bordercolor="#666666"
     borderopacity="1"
     objecttolerance="10"
     gridtolerance="10"
     guidetolerance="10"
     inkscape:pageopacity="0"
     inkscape:pageshadow="2"
     inkscape:window-width="1920"
     inkscape:window-height="1000"
     id="namedview154"
     showgrid="false"
     inkscape:zoom="12.36"
     inkscape:cx="100"
     inkscape:cy="50"
     inkscape:window-x="0"
     inkscape:window-y="0"
     inkscape:window-maximized="1"
     inkscape:current-layer="svg152" />
  <rect
     style="opacity:0"
     width="16"
     height="16"
     x="200"
     y="21"
     id="rect2" />
  <rect
     style="opacity:0;fill:#ffffff"
     width="16"
     height="16"
     x="212.5"
     y="20"
     id="rect4" />
  <g
     id="return-to-source"
     transform="matrix(3.7795277,0,0,3.7795277,42,-922.51949)">
    <rect
       style="fill:#ca5c5c;opacity:0"
       width="4.233"
       height="4.233"
       x="18.52"
       y="254.14"
       id="rect6" />
    <path
       style="fill:url(#linearGradient263)"
       transform="matrix(0.26458333,0,0,0.26458333,-0.52916771,249.37493)"
       d="M 74.890625,19 C 73.843696,19 73,19.843696 73,20.890625 l 0,10.21875 C 73,32.156304 73.843696,33 74.890625,33 l 10.21875,0 C 86.156304,33 87,32.156304 87,31.109375 l 0,-10.21875 C 87,19.843696 86.156304,19 85.109375,19 l -10.21875,0 z M 77,20 l 6,0 c 0,-0.04158 -3,4 -3,4 l -3,-4 z m -3,5 12,0 0,2 -12,0 0,-2 z m 6,3 c 0,0 3,4.041575 3,4 l -6,0 3,-4 z"
       id="path8" />
  </g>
  <g
     id="add"
     transform="matrix(3.7795277,0,0,3.7795277,42,-922.51949)">
    <rect
       style="fill:none"
       width="4.233"
       height="4.233"
       x="9"
       y="258.9"
       id="rect11" />
    <rect
       style="fill:none"
       width="3.175"
       height="3.175"
       x="9.53"
       y="259.43"
       id="rect13" />
    <path
       style="fill:url(#linearGradient312)"
       transform="matrix(0.26458333,0,0,0.26458333,-0.52916771,249.37493)"
       d="m 43,38 0,5 -5,0 0,2 5,0 0,5 2,0 0,-5 5,0 0,-2 -5,0 0,-5 -2,0 z"
       id="path15" />
  </g>
  <g
     id="remove"
     transform="matrix(3.7795277,0,0,3.7795277,42.00002,-922.51949)">
    <rect
       style="fill:none"
       width="4.233"
       height="4.233"
       x="13.76"
       y="258.9"
       id="rect18" />
    <rect
       style="fill:none"
       width="3.175"
       height="3.175"
       x="14.29"
       y="259.43"
       id="rect20" />
    <rect
       style="fill:url(#linearGradient320)"
       width=".529"
       height="3.175"
       x="260.75"
       y="-17.46"
       transform="matrix(0,1,-1,0,0,0)"
       id="rect22" />
  </g>
  <g
     id="filter"
     transform="matrix(3.7795277,0,0,3.7795277,42.00002,-922.51949)">
    <rect
       style="fill:none"
       width="4.233"
       height="4.233"
       x="18.52"
       y="258.9"
       id="rect25" />
    <rect
       style="fill:none"
       width="3.175"
       height="3.175"
       x="19.05"
       y="259.43"
       id="rect27" />
    <path
       style="fill:url(#linearGradient328)"
       transform="matrix(0.26458333,0,0,0.26458333,-0.60971093,244.13962)"
       d="m 76.304688,57.787109 -1,1 0,1 3,5.259766 0,2.740234 0,0.002 3,1.996094 0,0.002 1,0 0,-0.539062 0,-4.201172 3,-5.259766 0,-1 -1,-1 -8,0 z m 1,2 3,0 -1,1 0,1 -2,-2 z"
       id="path29" />
  </g>
  <g
     id="configure"
     transform="matrix(3.7795277,0,0,3.7795277,42,-922.51949)">
    <rect
       style="fill:#ca5c5c;opacity:0"
       width="4.233"
       height="4.233"
       x="4.23"
       y="249.38"
       id="rect32" />
    <g
       transform="matrix(0.26458333,0,0,0.26458333,-107.96654,136.13326)"
       id="g36">
      <path
         style="fill:url(#linearGradient174)"
         d="m 430.25,429 -0.1543,1.84375 a 5.5,5.5 0 0 0 -1.60742,0.92969 l -1.67578,-0.78906 -1.75,3.03124 1.52148,1.05665 a 5.5,5.5 0 0 0 -0.084,0.92773 5.5,5.5 0 0 0 0.0801,0.93164 l -1.51758,1.05274 1.75,3.03124 1.67188,-0.7871 a 5.5,5.5 0 0 0 1.61132,0.92382 L 430.25,443 l 3.5,0 0.1543,-1.84375 a 5.5,5.5 0 0 0 1.60742,-0.92969 l 1.67578,0.78906 1.75,-3.03124 -1.52148,-1.05665 a 5.5,5.5 0 0 0 0.084,-0.92773 5.5,5.5 0 0 0 -0.0801,-0.93164 l 1.51758,-1.05274 -1.75,-3.03124 -1.67188,0.7871 a 5.5,5.5 0 0 0 -1.61132,-0.92382 L 433.75,429 l -3.5,0 z m 1.75,5 a 2,2 0 0 1 2,2 2,2 0 0 1 -2,2 2,2 0 0 1 -2,-2 2,2 0 0 1 2,-2 z"
         id="path34" />
    </g>
  </g>
  <g
     id="rotate"
     transform="matrix(3.7795277,0,0,3.7795277,42,-922.51949)">
    <rect
       style="fill:#ca5c5c;opacity:0"
       width="4.233"
       height="4.233"
       x="9"
       y="249.38"
       id="rect39" />
    <g
       style="enable-background:new"
       transform="matrix(0.26458333,0,0,0.26458333,8.9964326,249.37058)"
       id="g45">
      <g
         transform="translate(-425.00247,99.016457)"
         id="g43">
        <path
           style="fill:url(#linearGradient182)"
           d="m 433.0002,-98 c -3.86599,0 -7,3.13401 -7,7 0,3.86599 3.13401,7 7,7 3.17482,0 5.86154,-2.10317 6.71875,-5 l -2.15625,0 c -0.77427,1.75952 -2.51681,3 -4.5625,3 -2.76142,0 -5,-2.23858 -5,-5 0,-2.76142 2.23858,-5 5,-5 1.38155,0 2.61548,0.575049 3.51562,1.484375 L 434.0002,-92 l 6,0 0,-6 -2.05273,2.052734 C 436.67897,-97.212023 434.93408,-98 433.0002,-98 Z"
           id="path41" />
      </g>
    </g>
  </g>
  <g
     id="size-vertical"
     transform="matrix(3.7795277,0,0,3.7795277,42,-922.51949)">
    <rect
       style="fill:#ca5c5c;opacity:0"
       width="4.233"
       height="4.233"
       x="18.52"
       y="249.38"
       id="rect48" />
    <path
       style="fill:url(#linearGradient198)"
       transform="matrix(0.26458333,0,0,0.26458333,-0.52916771,249.37493)"
       d="m 80,1 -3,4 6,0 C 83,5.041575 80,1 80,1 Z m 0,5 a 2,2 0 0 0 -2,2 2,2 0 0 0 2,2 2,2 0 0 0 2,-2 2,2 0 0 0 -2,-2 z m -3,5 3,4 c 0,0 3,-4.041575 3,-4 l -6,0 z"
       id="path50" />
  </g>
  <g
     id="size-horizontal"
     transform="matrix(3.7795277,0,0,3.7795277,42,-922.51949)">
    <rect
       style="fill:#ca5c5c;opacity:0"
       width="4.233"
       height="4.233"
       x="23.28"
       y="249.38"
       id="rect53" />
    <path
       style="fill:url(#linearGradient206)"
       d="m 27.252082,251.4916 -1.058333,-0.79375 0,1.5875 c -0.011,0 1.058333,-0.79375 1.058333,-0.79375 z m -1.322917,0 a 0.52916666,0.52916666 0 0 0 -0.529166,-0.52917 0.52916666,0.52916666 0 0 0 -0.529167,0.52917 0.52916666,0.52916666 0 0 0 0.529167,0.52916 0.52916666,0.52916666 0 0 0 0.529166,-0.52916 z m -1.322916,-0.79375 -1.058334,0.79375 c 0,0 1.069334,0.79375 1.058334,0.79375 l 0,-1.5875 z"
       id="path55" />
  </g>
  <g
     id="move"
     transform="matrix(3.7795277,0,0,3.7795277,42,-922.51949)">
    <rect
       style="fill:#ca5c5c;opacity:0"
       width="4.233"
       height="4.233"
       x="13.76"
       y="249.38"
       id="rect58" />
    <path
       style="fill:url(#linearGradient190)"
       transform="matrix(0.26458333,0,0,0.26458333,-0.52916771,249.37493)"
       d="m 62,1 -3,4 6,0 C 65,5.041575 62,1 62,1 Z m 3,4 0,6 c -0.04157,0 4,-3 4,-3 L 65,5 Z m 0,6 -6,0 3,4 c 0,0 3,-4.041575 3,-4 z m -6,0 0,-6 -4,3 c 0,0 4.041575,3 4,3 z m 3,-5 a 2,2 0 0 0 -2,2 2,2 0 0 0 2,2 2,2 0 0 0 2,-2 2,2 0 0 0 -2,-2 z"
       id="path60" />
  </g>
  <g
     id="size-diagonal-tl2br"
     transform="matrix(3.7795277,0,0,3.7795277,42,-922.51949)">
    <rect
       style="fill:#ca5c5c;opacity:0"
       width="4.233"
       height="4.233"
       x="-.53"
       y="254.14"
       id="rect63" />
    <g
       style="enable-background:new"
       transform="matrix(0.26458333,0,0,0.26458333,-0.52906453,254.13655)"
       id="g69">
      <g
         transform="translate(-265.00059,79.003339)"
         id="g67">
        <path
           style="fill:url(#linearGradient222)"
           transform="translate(265.0002,-97.000013)"
           d="m 2,20 c -1.00000002,0 -1,1 -1,1 l 0,4 2,0 0,-1.542969 3.2421875,3.242188 L 7.65625,25.285156 4.3710938,22 6,22 6,20 2,20 Z m 8,0 0,2 3,0 0,3 2,0 0,-4 c 0,-1 -1,-1 -1,-1 l -4,0 z m -9,7 0,4 c 0,1 1,1 1,1 l 4,0 0,-2 -3,0 0,-3 -2,0 z m 12,0 0,3 -3,0 0,2 4,0 c 0,0 1,0 1,-1 l 0,-4 -2,0 z"
           id="path65" />
      </g>
    </g>
  </g>
  <g
     id="maximize"
     transform="matrix(3.7795277,0,0,3.7795277,42,-922.51949)">
    <rect
       style="fill:#ca5c5c;opacity:0"
       width="4.233"
       height="4.233"
       x="4.23"
       y="254.14"
       id="rect72" />
    <g
       style="enable-background:new"
       transform="matrix(-0.26458333,0,0,0.26458333,8.4665622,254.13655)"
       id="g78">
      <g
         transform="translate(-265.00059,79.003339)"
         id="g76">
        <path
           style="fill:url(#linearGradient230)"
           transform="translate(247.0002,-97.000013)"
           d="m 20,20 c -1,0 -1,1 -1,1 l 0,4 2,0 0,-1.542969 3.242188,3.242188 L 25.65625,25.285156 22.371094,22 24,22 l 0,-2 -4,0 z m 8,0 0,2 3,0 0,3 2,0 0,-4 c 0,-1 -1,-1 -1,-1 l -4,0 z m -9,7 0,4 c 0,1 1,1 1,1 l 4,0 0,-2 -3,0 0,-3 -2,0 z m 12,0 0,3 -3,0 0,2 4,0 c 0,0 1,0 1,-1 l 0,-4 -2,0 z"
           id="path74" />
      </g>
    </g>
  </g>
  <g
     id="unmaximize"
     transform="matrix(3.7795277,0,0,3.7795277,42,-922.51949)">
    <rect
       style="fill:#ca5c5c;opacity:0"
       width="4.233"
       height="4.233"
       x="9"
       y="254.14"
       id="rect81" />
    <path
       style="fill:url(#linearGradient247);stroke-width:3.77952766"
       d="M 78 40 C 78 40 77 40.000013 77 41 L 77 45 L 79 45 L 79 42 L 82 42 L 82 40 L 78 40 z M 88.242188 40.300781 L 85 43.542969 L 85 42 L 83 42 L 83 46 C 83 46 83.000001 47 84 47 L 88 47 L 88 45 L 86.371094 45 L 89.65625 41.714844 L 88.242188 40.300781 z M 77 47 L 77 51 C 77 51.999987 78 52 78 52 L 82 52 L 82 50 L 79 50 L 79 47 L 77 47 z M 89 47 L 89 50 L 86 50 L 86 52 L 90 52 C 90 52 91 51.999987 91 51 L 91 47 L 89 47 z "
       transform="matrix(0.26458332,0,0,0.26458332,-11.1125,244.08327)"
       id="path83" />
  </g>
  <g
     id="size-diagonal-tr2bl"
     transform="matrix(3.7795277,0,0,3.7795277,42,-922.51949)">
    <rect
       style="fill:#ca5c5c;opacity:0"
       width="4.233"
       height="4.233"
       x="28.05"
       y="249.38"
       id="rect92" />
    <g
       style="enable-background:new"
       transform="matrix(-0.26458333,0,0,0.26458333,32.279062,249.37405)"
       id="g98">
      <g
         transform="translate(-265.00059,79.003339)"
         id="g96">
        <path
           style="fill:url(#linearGradient214)"
           transform="matrix(-0.99999998,0,0,0.99999998,389.0002,-79.000013)"
           d="m 110,2 c 0,0 -1,0 -1,1 l 0,4 2,0 0,-3 3,0 0,-2 -4,0 z m 8,0 0,2 1.62891,0 -3.28516,3.2851562 1.41406,1.4140626 L 121,5.4570312 121,7 l 2,0 0,-4 c 0,0 0,-1 -1,-1 l -4,0 z M 114.24219,7.3007812 111,10.542969 111,9 l -2,0 0,4 c 0,0 0,1 1,1 l 4,0 0,-2 -1.62891,0 3.28516,-3.2851562 -1.41406,-1.4140626 z M 121,9 l 0,3 -3,0 0,2 4,0 c 0,0 1,0 1,-1 l 0,-4 -2,0 z"
           id="path94" />
      </g>
    </g>
  </g>
  <g
     id="status"
     transform="matrix(3.7795277,0,0,3.7795277,42,-922.51949)">
    <rect
       style="fill:#ca5c5c;opacity:0"
       width="4.233"
       height="4.233"
       x="13.76"
       y="254.14"
       id="rect101" />
    <g
       style="enable-background:new"
       transform="matrix(0.26458333,0,0,0.26458333,13.750344,254.00514)"
       id="g107">
      <g
         transform="translate(-345.00021,-61)"
         id="g105">
        <path
           style="fill:url(#linearGradient255)"
           d="m 357.84395,64.03125 c -0.21888,0.0473 -0.42059,0.17053 -0.5625,0.34375 l -6.28125,7.1875 -2.25,-2.25 c -0.37633,-0.37638 -1.06119,-0.3764 -1.43755,-5e-5 -0.37635,0.37636 -0.37633,1.06122 5e-5,1.43755 l 3,3 0.78125,0.75 0.6875,-0.8125 7,-8 c 0.56742,-0.61773 -0.11583,-1.8248 -0.9375,-1.65625 z"
           id="path103" />
      </g>
    </g>
  </g>
  <g
     id="collapse"
     transform="matrix(3.7795277,0,0,3.7795277,42,-922.51949)">
    <rect
       style="fill:#ca5c5c;opacity:0"
       width="4.233"
       height="4.233"
       x="23.28"
       y="254.14"
       id="rect110" />
    <path
       style="fill:url(#linearGradient271)"
       transform="matrix(0.26458333,0,0,0.26458333,-0.52916771,249.37493)"
       d="m 95,19 3,4 c 0,0 3,-4.041575 3,-4 l -6,0 z m -4,6 0,2 14,0 0,-2 -14,0 z m 7,4 -3,4 6,0 c 0,0.04158 -3,-4 -3,-4 z"
       id="path112" />
  </g>
  <g
     id="restore"
     transform="matrix(3.7795277,0,0,3.7795277,42,-922.51949)">
    <rect
       style="fill:#ca5c5c;opacity:0"
       width="4.233"
       height="4.233"
       x="28.05"
       y="254.14"
       id="rect115" />
    <path
       style="fill:url(#linearGradient279)"
       transform="matrix(0.26458333,0,0,0.26458333,-0.52916771,249.37493)"
       d="m 116,19 -3,4 6,0 c 0,0.04158 -3,-4 -3,-4 z m -7,6 0,2 14,0 0,-2 -14,0 z m 4,4 3,4 c 0,0 3,-4.041575 3,-4 l -6,0 z"
       id="path117" />
  </g>
  <g
     id="help"
     transform="matrix(3.7795277,0,0,3.7795277,42,-922.51949)">
    <rect
       style="fill:#ca5c5c;opacity:0"
       width="4.233"
       height="4.233"
       x="-.53"
       y="258.9"
       id="rect120" />
    <g
       transform="matrix(0.26458333,0,0,0.26458333,-118.00412,149.89071)"
       id="g124">
      <path
         style="fill:url(#linearGradient287)"
         d="m 452.99983,427.00336 -2,0 0,-2 2,0 z m 2.07,-7.75 -0.9,0.92 c -0.72,0.73 -1.17,1.33 -1.17,2.83 l -2,0 0,-0.5 c 0,-1.1 0.45,-2.1 1.17,-2.83 l 1.24,-1.26 c 0.37,-0.36 0.59,-0.86 0.59,-1.41 0,-1.1 -0.9,-2 -2,-2 -1.1,0 -2,0.9 -2,2 l -2,0 c 0,-2.21 1.79,-4 4,-4 2.21,0 4,1.79 4,4 0,0.88 -0.36,1.68 -0.93,2.25 z"
         id="path122" />
    </g>
  </g>
  <g
     id="delete"
     transform="matrix(3.7795277,0,0,3.7795277,42,-922.51949)">
    <rect
       style="fill:#ca5c5c;opacity:0"
       width="4.233"
       height="4.233"
       x="4.23"
       y="258.9"
       id="rect127" />
    <g
       style="enable-background:new"
       transform="matrix(0.26458333,0,0,0.26458333,4.233393,258.90089)"
       id="g135">
      <g
         transform="translate(-385.00043,78.996356)"
         id="g133">
        <path
           style="fill:url(#linearGradient304)"
           d="M 64 56.996094 C 63 56.996094 63 57.996094 63 57.996094 L 60 57.996094 C 60 57.996094 59 57.99964 59 59 L 59 60 L 72 59.996094 L 72 59 C 72 58 71 57.996094 71 57.996094 L 68 57.996094 C 68 57.996094 68 56.996094 67 56.996094 L 64 56.996094 z M 60 61 L 60 70 C 60.00005 70.52358 60.47642 70.99995 61 71 L 69 71 L 70 71 C 70.52358 70.99995 70.99995 70.52358 71 70 L 71 61 L 60 61 z "
           transform="translate(327.00021,-134.99995)"
           id="path129" />
      </g>
    </g>
  </g>
  <g
     id="menu">
    <rect
       style="opacity:0.001"
       width="15.999"
       height="15.999"
       x="40"
       y="20.02"
       id="rect138" />
    <path
       style="fill:url(#linearGradient166)"
       d="M 48 21 A 2 2 0 0 0 46 23 A 2 2 0 0 0 48 25 A 2 2 0 0 0 50 23 A 2 2 0 0 0 48 21 z M 48 26 A 2 2 0 0 0 46 28 A 2 2 0 0 0 48 30 A 2 2 0 0 0 50 28 A 2 2 0 0 0 48 26 z M 48 31 A 2 2 0 0 0 46 33 A 2 2 0 0 0 48 35 A 2 2 0 0 0 50 33 A 2 2 0 0 0 48 31 z"
       id="path140" />
  </g>
  <g
     id="close">
    <rect
       style="opacity:0.001"
       width="16"
       height="16"
       x="130"
       y="55.99"
       id="rect143" />
    <g
       style="enable-background:new"
       transform="matrix(1.4994104,0,0,1.4999561,36.042451,-724.97673)"
       id="g149">
      <g
         transform="translate(19,-242)"
         id="g147">
        <path
           style="fill:url(#linearGradient336)"
           d="m 45,764 1,0 c 0.01037,-1.2e-4 0.02079,-4.6e-4 0.03125,0 0.254951,0.0112 0.50987,0.12858 0.6875,0.3125 L 49,766.59375 51.3125,764.3125 C 51.578125,764.082 51.759172,764.007 52,764 l 1,0 0,1 c 0,0.28647 -0.03434,0.55065 -0.25,0.75 l -2.28125,2.28125 2.25,2.25 C 52.906938,770.46942 52.999992,770.7347 53,771 l 0,1 -1,0 c -0.265301,-10e-6 -0.530586,-0.0931 -0.71875,-0.28125 L 49,769.4375 46.71875,771.71875 C 46.530586,771.90694 46.26529,772 46,772 l -1,0 0,-1 c -3e-6,-0.26529 0.09306,-0.53058 0.28125,-0.71875 l 2.28125,-2.25 L 45.28125,765.75 C 45.070508,765.55537 44.97809,765.28075 45,765 l 0,-1 z"
           id="path145" />
      </g>
    </g>
  </g>
</svg>
