<?xml version="1.0" encoding="UTF-8" standalone="no"?>
<svg
   xmlns:dc="http://purl.org/dc/elements/1.1/"
   xmlns:cc="http://creativecommons.org/ns#"
   xmlns:rdf="http://www.w3.org/1999/02/22-rdf-syntax-ns#"
   xmlns:svg="http://www.w3.org/2000/svg"
   xmlns="http://www.w3.org/2000/svg"
   xmlns:xlink="http://www.w3.org/1999/xlink"
   xmlns:sodipodi="http://sodipodi.sourceforge.net/DTD/sodipodi-0.dtd"
   xmlns:inkscape="http://www.inkscape.org/namespaces/inkscape"
   width="128"
   height="128"
   version="1"
   id="svg132"
   sodipodi:docname="containment-controls.svg"
   inkscape:version="0.92.4 (5da689c313, 2019-01-14)">
  <metadata
     id="metadata136">
    <rdf:RDF>
      <cc:Work
         rdf:about="">
        <dc:format>image/svg+xml</dc:format>
        <dc:type
           rdf:resource="http://purl.org/dc/dcmitype/StillImage" />
        <dc:title></dc:title>
      </cc:Work>
    </rdf:RDF>
  </metadata>
  <sodipodi:namedview
     pagecolor="#ffffff"
     bordercolor="#666666"
     borderopacity="1"
     objecttolerance="10"
     gridtolerance="10"
     guidetolerance="10"
     inkscape:pageopacity="0"
     inkscape:pageshadow="2"
     inkscape:window-width="1920"
     inkscape:window-height="1000"
     id="namedview134"
     showgrid="false"
     inkscape:pagecheckerboard="false"
     inkscape:zoom="5.2149125"
     inkscape:cx="64"
     inkscape:cy="64"
     inkscape:window-x="0"
     inkscape:window-y="0"
     inkscape:window-maximized="1"
     inkscape:current-layer="svg132" />
  <defs
     id="defs19">
    <linearGradient
       inkscape:collect="always"
       id="linearGradient238">
      <stop
         style="stop-color:#ff00ff;stop-opacity:1"
         offset="0"
         id="stop234" />
      <stop
         style="stop-color:#00ffff;stop-opacity:1"
         offset="1"
         id="stop236" />
    </linearGradient>
    <linearGradient
       inkscape:collect="always"
       id="linearGradient230">
      <stop
         style="stop-color:#ff00ff;stop-opacity:1"
         offset="0"
         id="stop226" />
      <stop
         style="stop-color:#00ffff;stop-opacity:1"
         offset="1"
         id="stop228" />
    </linearGradient>
    <linearGradient
       inkscape:collect="always"
       id="linearGradient222">
      <stop
         style="stop-color:#00ffff;stop-opacity:1"
         offset="0"
         id="stop218" />
      <stop
         style="stop-color:#ff00ff;stop-opacity:1"
         offset="1"
         id="stop220" />
    </linearGradient>
    <linearGradient
       inkscape:collect="always"
       id="linearGradient206">
      <stop
         style="stop-color:#ff00ff;stop-opacity:1"
         offset="0"
         id="stop202" />
      <stop
         style="stop-color:#00ffff;stop-opacity:1"
         offset="1"
         id="stop204" />
    </linearGradient>
    <linearGradient
       inkscape:collect="always"
       id="linearGradient198">
      <stop
         style="stop-color:#00ffff;stop-opacity:1"
         offset="0"
         id="stop194" />
      <stop
         style="stop-color:#ff00ff;stop-opacity:1"
         offset="1"
         id="stop196" />
    </linearGradient>
    <linearGradient
       inkscape:collect="always"
       id="linearGradient190">
      <stop
         style="stop-color:#00ffff;stop-opacity:1"
         offset="0"
         id="stop186" />
      <stop
         style="stop-color:#ff00ff;stop-opacity:1"
         offset="1"
         id="stop188" />
    </linearGradient>
    <linearGradient
       inkscape:collect="always"
       id="linearGradient182">
      <stop
         style="stop-color:#ff00ff;stop-opacity:1"
         offset="0"
         id="stop178" />
      <stop
         style="stop-color:#00ffff;stop-opacity:1"
         offset="1"
         id="stop180" />
    </linearGradient>
    <linearGradient
       inkscape:collect="always"
       id="linearGradient174">
      <stop
         style="stop-color:#ff00ff;stop-opacity:1"
         offset="0"
         id="stop170" />
      <stop
         style="stop-color:#00ffff;stop-opacity:1"
         offset="1"
         id="stop172" />
    </linearGradient>
    <linearGradient
       inkscape:collect="always"
       id="linearGradient166">
      <stop
         style="stop-color:#ff00ff;stop-opacity:1"
         offset="0"
         id="stop162" />
      <stop
         style="stop-color:#00ffff;stop-opacity:1"
         offset="1"
         id="stop164" />
    </linearGradient>
    <linearGradient
       inkscape:collect="always"
       id="linearGradient158">
      <stop
         style="stop-color:#ff00ff;stop-opacity:1"
         offset="0"
         id="stop154" />
      <stop
         style="stop-color:#00ffff;stop-opacity:1"
         offset="1"
         id="stop156" />
    </linearGradient>
    <linearGradient
       inkscape:collect="always"
       id="linearGradient150">
      <stop
         style="stop-color:#ff00ff;stop-opacity:1"
         offset="0"
         id="stop146" />
      <stop
         style="stop-color:#00ffff;stop-opacity:1"
         offset="1"
         id="stop148" />
    </linearGradient>
    <linearGradient
       inkscape:collect="always"
       id="linearGradient142">
      <stop
         style="stop-color:#ff00ff;stop-opacity:1"
         offset="0"
         id="stop138" />
      <stop
         style="stop-color:#00ffff;stop-opacity:1"
         offset="1"
         id="stop140" />
    </linearGradient>
    <linearGradient
       id="linearGradient4303">
      <stop
         style="stop-color:#00635b"
         offset="0"
         id="stop2" />
      <stop
         style="stop-color:#00a698"
         offset="1"
         id="stop4" />
    </linearGradient>
    <linearGradient
       id="linearGradient4291">
      <stop
         style="stop-color:#007584"
         offset="0"
         id="stop7" />
      <stop
         style="stop-color:#00a698"
         offset="1"
         id="stop9" />
    </linearGradient>
    <linearGradient
       id="linearGradient4297"
       x1="266"
       x2="266"
       y1="108"
       y2="112"
       gradientUnits="userSpaceOnUse"
       xlink:href="#linearGradient4291" />
    <linearGradient
       id="linearGradient4301"
       x1="115"
       x2="115"
       y1="103"
       y2="107"
       gradientUnits="userSpaceOnUse"
       xlink:href="#linearGradient4303" />
    <linearGradient
       id="linearGradient4315"
       x1="266"
       x2="266"
       y1="121"
       y2="118"
       gradientUnits="userSpaceOnUse"
       xlink:href="#linearGradient4291" />
    <linearGradient
       id="linearGradient4317"
       x1="101"
       x2="101"
       y1="118"
       y2="114"
       gradientUnits="userSpaceOnUse"
       xlink:href="#linearGradient4303" />
    <linearGradient
       id="linearGradient4325"
       x1="268"
       x2="268"
       y1="112"
       y2="108"
       gradientUnits="userSpaceOnUse"
       xlink:href="#linearGradient4303" />
    <linearGradient
       id="linearGradient4333"
       x1="91"
       x2="95"
       y1="80.5"
       y2="80.5"
       gradientUnits="userSpaceOnUse"
       xlink:href="#linearGradient4303" />
    <linearGradient
       id="linearGradient4341"
       x1="106"
       x2="102"
       y1="67"
       y2="67"
       gradientUnits="userSpaceOnUse"
       xlink:href="#linearGradient4303" />
    <linearGradient
       inkscape:collect="always"
       xlink:href="#linearGradient142"
       id="linearGradient144"
       x1="406.9688"
       y1="-92.0032"
       x2="419"
       y2="-92.0032"
       gradientUnits="userSpaceOnUse" />
    <linearGradient
       inkscape:collect="always"
       xlink:href="#linearGradient150"
       id="linearGradient152"
       x1="406.9688"
       y1="-92.0032"
       x2="419"
       y2="-92.0032"
       gradientUnits="userSpaceOnUse" />
    <linearGradient
       inkscape:collect="always"
       xlink:href="#linearGradient158"
       id="linearGradient160"
       x1="406.9688"
       y1="-92.0032"
       x2="419"
       y2="-92.0032"
       gradientUnits="userSpaceOnUse" />
    <linearGradient
       inkscape:collect="always"
       xlink:href="#linearGradient166"
       id="linearGradient168"
       x1="406.9688"
       y1="-92.0032"
       x2="419"
       y2="-92.0032"
       gradientUnits="userSpaceOnUse" />
    <linearGradient
       inkscape:collect="always"
       xlink:href="#linearGradient174"
       id="linearGradient176"
       x1="325.0012"
       y1="-90.98745"
       x2="341.0012"
       y2="-90.98745"
       gradientUnits="userSpaceOnUse" />
    <linearGradient
       inkscape:collect="always"
       xlink:href="#linearGradient182"
       id="linearGradient184"
       x1="325.0012"
       y1="-90.98745"
       x2="341.0012"
       y2="-90.98745"
       gradientUnits="userSpaceOnUse" />
    <linearGradient
       inkscape:collect="always"
       xlink:href="#linearGradient190"
       id="linearGradient192"
       x1="325.0012"
       y1="-90.98745"
       x2="341.0012"
       y2="-90.98745"
       gradientUnits="userSpaceOnUse" />
    <linearGradient
       inkscape:collect="always"
       xlink:href="#linearGradient198"
       id="linearGradient200"
       x1="325.0012"
       y1="-90.98745"
       x2="341.0012"
       y2="-90.98745"
       gradientUnits="userSpaceOnUse" />
    <linearGradient
       inkscape:collect="always"
       xlink:href="#linearGradient206"
       id="linearGradient208"
       x1="306.9984"
       y1="-90.9829"
       x2="319.2109"
       y2="-90.9829"
       gradientUnits="userSpaceOnUse" />
    <linearGradient
       inkscape:collect="always"
       xlink:href="#linearGradient222"
       id="linearGradient224"
       x1="306.9984"
       y1="-90.9829"
       x2="319.2109"
       y2="-90.9829"
       gradientUnits="userSpaceOnUse" />
    <linearGradient
       inkscape:collect="always"
       xlink:href="#linearGradient230"
       id="linearGradient232"
       x1="387"
       y1="-90.10965"
       x2="399.0401"
       y2="-90.10965"
       gradientUnits="userSpaceOnUse" />
    <linearGradient
       inkscape:collect="always"
       xlink:href="#linearGradient238"
       id="linearGradient240"
       x1="387"
       y1="-90.10965"
       x2="399.0401"
       y2="-90.10965"
       gradientUnits="userSpaceOnUse" />
  </defs>
  <rect
     id="hint-stretch-borders"
     style="opacity:0.65;fill:#023812"
     width="5.221"
     height="5.403"
     x="-10"
     y="0" />
  <g
     id="north-center"
     transform="translate(-152,-4)">
    <path
       style="fill:#00a698"
       d="m 264,112 0,5 5,0 0,-5 -5,0 z"
       id="path22" />
  </g>
  <g
     id="north-top"
     style="fill:url(#linearGradient4297)"
     transform="translate(-152,-5)">
    <path
       style="fill:url(#linearGradient4301)"
       transform="translate(152,5)"
       d="m 112,103 0,1 0,1 0,2 5,0 0,-2 0,-1 0,-1 -5,0 z"
       id="path25" />
  </g>
  <g
     id="north-bottom"
     transform="translate(-152,-3)">
    <path
       style="fill:#00a698"
       transform="translate(152,3)"
       d="m 112,114 0,3 0,1 5,0 0,-1 0,-3 -5,0 z"
       id="path28" />
  </g>
  <g
     id="south-center"
     transform="translate(-165,-4)">
    <path
       style="fill:#00a698"
       d="m 264,112 0,5 5,0 0,-5 -5,0 z"
       id="path31" />
  </g>
  <g
     id="south-top"
     transform="translate(-165,-5)">
    <path
       style="fill:#00a698"
       transform="translate(165,5)"
       d="m 99,103 0,1 0,1 0,2 5,0 0,-2 0,-1 0,-1 -5,0 z"
       id="path34" />
  </g>
  <g
     id="south-bottom"
     style="fill:url(#linearGradient4315)"
     transform="translate(-165,-3)">
    <path
       style="fill:url(#linearGradient4317)"
       transform="translate(165,3)"
       d="m 99,114 0,3 0,1 5,0 0,-1 0,-3 -5,0 z"
       id="path37" />
  </g>
  <g
     id="east-center"
     transform="matrix(0,-1,1,0,-16,334)">
    <path
       style="fill:#00a698"
       d="m 264,112 0,5 5,0 0,-5 -5,0 z"
       id="path40" />
  </g>
  <g
     id="east-left"
     transform="matrix(0,-1,1,0,-17,334)">
    <path
       style="fill:#00a698"
       transform="matrix(0,1,-1,0,334,17)"
       d="m 91,65 0,5 1,0 3,0 0,-5 -3,0 -1,0 z"
       id="path43" />
  </g>
  <g
     id="east-right"
     transform="matrix(0,-1,1,0,-15,334)">
    <path
       style="fill:url(#linearGradient4341)"
       transform="matrix(0,1,-1,0,334,15)"
       d="m 102,65 0,5 3,0 1,0 0,-5 -1,0 -3,0 z"
       id="path46" />
  </g>
  <g
     id="west-center"
     transform="matrix(0,-1,1,0,-16,347)">
    <path
       style="fill:#00a698"
       d="m 264,112 0,5 5,0 0,-5 -5,0 z"
       id="path49" />
  </g>
  <g
     id="west-left"
     style="fill:url(#linearGradient4325)"
     transform="matrix(0,-1,1,0,-17,347)">
    <path
       style="fill:url(#linearGradient4333)"
       transform="matrix(0,1,-1,0,347,17)"
       d="m 91,78 0,5 1,0 3,0 0,-5 -3,0 -1,0 z"
       id="path52" />
  </g>
  <g
     id="west-right"
     transform="matrix(0,-1,1,0,-15,347)">
    <path
       style="fill:#00a698"
       transform="matrix(0,1,-1,0,347,15)"
       d="m 102,78 0,5 3,0 1,0 0,-5 -1,0 -3,0 z"
       id="path55" />
  </g>
  <g
     id="vertical-centerindicator"
     transform="translate(1,15)">
    <rect
       style="opacity:0.2"
       width="42"
       height="1"
       x="11"
       y="32"
       id="rect58" />
    <rect
       style="fill:#00a698"
       width="42"
       height="1"
       x="11"
       y="33"
       id="rect60" />
    <rect
       style="fill:#00a698"
       width="42"
       height="1"
       x="11"
       y="31"
       id="rect62" />
  </g>
  <g
     id="horizontal-centerindicator"
     transform="translate(-4,17)">
    <rect
       style="opacity:0.2"
       width="42"
       height="1"
       x="-31"
       y="8"
       transform="matrix(0,-1,1,0,0,0)"
       id="rect65" />
    <rect
       style="fill:#00a698"
       width="42"
       height="1"
       x="-31"
       y="9"
       transform="matrix(0,-1,1,0,0,0)"
       id="rect67" />
    <rect
       style="fill:#00a698"
       width="42"
       height="1"
       x="-31"
       y="7"
       transform="matrix(0,-1,1,0,0,0)"
       id="rect69" />
  </g>
  <g
     id="west-minslider"
     style="enable-background:new"
     transform="translate(5.0312,68.003199)">
    <g
       transform="translate(-405,100)"
       id="g74">
      <path
         style="fill:url(#linearGradient144)"
         d="m 419,-89.222 -1.375,1.4062 -3.6562,-3.6562 0.0312,7.4688 -2,0 -0.0312,-7.4688 -3.625,3.6562 -1.375,-1.4062 6.0312,-6 6,6 z m -4,-8.7812 c 0,1.1046 -0.89543,2 -2,2 -1.10457,0 -2,-0.89543 -2,-2 0,-1.10457 0.89543,-2 2,-2 1.10457,0 2,0.89543 2,2 z"
         id="path72" />
    </g>
  </g>
  <g
     id="north-offsetslider"
     style="enable-background:new"
     transform="translate(37,108.0004)">
    <g
       transform="translate(-385,98.003)"
       id="g79">
      <path
         style="fill:url(#linearGradient232)"
         d="m 387,-90.215 1.3858,1.3851 3.6348,-3.6349 -0.0211,8.4614 2,0 0.0211,-8.4614 3.6344,3.6349 1.3851,-1.3851 -6.0406,-6.0009 z"
         id="path77" />
    </g>
  </g>
  <g
     id="north-maxslider"
     style="enable-background:new"
     transform="translate(6.9988,89.968849)">
    <g
       transform="translate(-325,99.003)"
       id="g84">
      <path
         style="fill:url(#linearGradient176)"
         d="m 330.22,-97.003 -1.4062,1.375 3.6562,3.6562 -7.4688,-0.03125 0,2 7.4688,0.0312 -3.6562,3.625 1.4062,1.375 6,-6.0312 -6,-6 z m 8.7812,4 c -1.1046,0 -2,0.89543 -2,2 0,1.10457 0.89543,2 2,2 1.10457,0 2,-0.89543 2,-2 0,-1.10457 -0.89543,-2 -2,-2 z"
         id="path82" />
    </g>
  </g>
  <g
     id="east-offsetslider"
     style="enable-background:new"
     transform="translate(5.0016,107.9598)">
    <g
       transform="translate(-305,99.003)"
       id="g89">
      <path
         style="fill:url(#linearGradient208)"
         d="m 313.21,-97.003 -1.3851,1.3859 3.6349,3.6348 -8.4614,-0.0211 0,2 8.4614,0.0211 -3.6349,3.6344 1.3851,1.3851 6.0009,-6.0406 z"
         id="path87" />
    </g>
  </g>
  <g
     id="east-minslider"
     style="enable-background:new"
     transform="translate(22.0312,68.003199)">
    <g
       transform="translate(-405,100)"
       id="g94">
      <path
         style="fill:url(#linearGradient152)"
         d="m 419,-89.222 -1.375,1.4062 -3.6562,-3.6562 0.0312,7.4688 -2,0 -0.0312,-7.4688 -3.625,3.6562 -1.375,-1.4062 6.0312,-6 6,6 z m -4,-8.7812 c 0,1.1046 -0.89543,2 -2,2 -1.10457,0 -2,-0.89543 -2,-2 0,-1.10457 0.89543,-2 2,-2 1.10457,0 2,0.89543 2,2 z"
         id="path92" />
    </g>
  </g>
  <g
     id="west-maxslider"
     style="enable-background:new"
     transform="matrix(1,0,0,-1,38.0312,83.996799)">
    <g
       transform="translate(-405,100)"
       id="g99">
      <path
         style="fill:url(#linearGradient160)"
         d="m 419,-89.222 -1.375,1.4062 -3.6562,-3.6562 0.0312,7.4688 -2,0 -0.0312,-7.4688 -3.625,3.6562 -1.375,-1.4062 6.0312,-6 6,6 z m -4,-8.7812 c 0,1.1046 -0.89543,2 -2,2 -1.10457,0 -2,-0.89543 -2,-2 0,-1.10457 0.89543,-2 2,-2 1.10457,0 2,0.89543 2,2 z"
         id="path97" />
    </g>
  </g>
  <g
     id="east-maxslider"
     style="enable-background:new"
     transform="matrix(1,0,0,-1,55.0312,83.996799)">
    <g
       transform="translate(-405,100)"
       id="g104">
      <path
         style="fill:url(#linearGradient168)"
         d="m 419,-89.222 -1.375,1.4062 -3.6562,-3.6562 0.0312,7.4688 -2,0 -0.0312,-7.4688 -3.625,3.6562 -1.375,-1.4062 6.0312,-6 6,6 z m -4,-8.7812 c 0,1.1046 -0.89543,2 -2,2 -1.10457,0 -2,-0.89543 -2,-2 0,-1.10457 0.89543,-2 2,-2 1.10457,0 2,0.89543 2,2 z"
         id="path102" />
    </g>
  </g>
  <g
     id="south-maxslider"
     style="enable-background:new"
     transform="translate(25.9988,89.968849)">
    <g
       transform="translate(-325,99.003)"
       id="g109">
      <path
         style="fill:url(#linearGradient184)"
         d="m 330.22,-97.003 -1.4062,1.375 3.6562,3.6562 -7.4688,-0.03125 0,2 7.4688,0.0312 -3.6562,3.625 1.4062,1.375 6,-6.0312 -6,-6 z m 8.7812,4 c -1.1046,0 -2,0.89543 -2,2 0,1.10457 0.89543,2 2,2 1.10457,0 2,-0.89543 2,-2 0,-1.10457 -0.89543,-2 -2,-2 z"
         id="path107" />
    </g>
  </g>
  <g
     id="north-minslider"
     style="enable-background:new"
     transform="matrix(-1,0,0,1,61.0012,89.968849)">
    <g
       transform="translate(-325,99.003)"
       id="g114">
      <path
         style="fill:url(#linearGradient192)"
         d="m 330.22,-97.003 -1.4062,1.375 3.6562,3.6562 -7.4688,-0.03125 0,2 7.4688,0.0312 -3.6562,3.625 1.4062,1.375 6,-6.0312 -6,-6 z m 8.7812,4 c -1.1046,0 -2,0.89543 -2,2 0,1.10457 0.89543,2 2,2 1.10457,0 2,-0.89543 2,-2 0,-1.10457 -0.89543,-2 -2,-2 z"
         id="path112" />
    </g>
  </g>
  <g
     id="south-minslider"
     style="enable-background:new"
     transform="matrix(-1,0,0,1,80.0012,89.968849)">
    <g
       transform="translate(-325,99.003)"
       id="g119">
      <path
         style="fill:url(#linearGradient200)"
         d="m 330.22,-97.003 -1.4062,1.375 3.6562,3.6562 -7.4688,-0.03125 0,2 7.4688,0.0312 -3.6562,3.625 1.4062,1.375 6,-6.0312 -6,-6 z m 8.7812,4 c -1.1046,0 -2,0.89543 -2,2 0,1.10457 0.89543,2 2,2 1.10457,0 2,-0.89543 2,-2 0,-1.10457 -0.89543,-2 -2,-2 z"
         id="path117" />
    </g>
  </g>
  <g
     id="west-offsetslider"
     style="enable-background:new"
     transform="matrix(-1,0,0,1,37.2109,107.9598)">
    <g
       transform="translate(-305,99.003)"
       id="g124">
      <path
         style="fill:url(#linearGradient224)"
         d="m 313.21,-97.003 -1.3851,1.3859 3.6349,3.6348 -8.4614,-0.0211 0,2 8.4614,0.0211 -3.6349,3.6344 1.3851,1.3851 6.0009,-6.0406 z"
         id="path122" />
    </g>
  </g>
  <g
     id="south-offsetslider"
     style="enable-background:new"
     transform="matrix(1,0,0,-1,52,123.7871)">
    <g
       transform="translate(-385,98.003)"
       id="g129">
      <path
         style="fill:url(#linearGradient240)"
         d="m 387,-90.215 1.3858,1.3851 3.6348,-3.6349 -0.0211,8.4614 2,0 0.0211,-8.4614 3.6344,3.6349 1.3851,-1.3851 -6.0406,-6.0009 z"
         id="path127" />
    </g>
  </g>
</svg>
