<?xml version="1.0" encoding="UTF-8" standalone="no"?>
<svg
   xmlns:dc="http://purl.org/dc/elements/1.1/"
   xmlns:cc="http://creativecommons.org/ns#"
   xmlns:rdf="http://www.w3.org/1999/02/22-rdf-syntax-ns#"
   xmlns:svg="http://www.w3.org/2000/svg"
   xmlns="http://www.w3.org/2000/svg"
   xmlns:xlink="http://www.w3.org/1999/xlink"
   xmlns:sodipodi="http://sodipodi.sourceforge.net/DTD/sodipodi-0.dtd"
   xmlns:inkscape="http://www.inkscape.org/namespaces/inkscape"
   width="128"
   height="115"
   version="1"
   id="svg52"
   sodipodi:docname="listitem.svg"
   inkscape:version="0.92.4 (5da689c313, 2019-01-14)">
  <metadata
     id="metadata58">
    <rdf:RDF>
      <cc:Work
         rdf:about="">
        <dc:format>image/svg+xml</dc:format>
        <dc:type
           rdf:resource="http://purl.org/dc/dcmitype/StillImage" />
      </cc:Work>
    </rdf:RDF>
  </metadata>
  <defs
     id="defs56">
    <linearGradient
       inkscape:collect="always"
       id="linearGradient96">
      <stop
         style="stop-color:#ff00ff;stop-opacity:1"
         offset="0"
         id="stop92" />
      <stop
         style="stop-color:#00ffff;stop-opacity:1"
         offset="1"
         id="stop94" />
    </linearGradient>
    <linearGradient
       inkscape:collect="always"
       id="linearGradient87">
      <stop
         style="stop-color:#ff00ff;stop-opacity:1"
         offset="0"
         id="stop83" />
      <stop
         style="stop-color:#00ffff;stop-opacity:1"
         offset="1"
         id="stop85" />
    </linearGradient>
    <linearGradient
       inkscape:collect="always"
       id="linearGradient64">
      <stop
         style="stop-color:#ff00ff;stop-opacity:1"
         offset="0"
         id="stop60" />
      <stop
         style="stop-color:#00ffff;stop-opacity:1"
         offset="1"
         id="stop62" />
    </linearGradient>
    <linearGradient
       inkscape:collect="always"
       xlink:href="#linearGradient64"
       id="linearGradient66"
       x1="0"
       y1="3.0385"
       x2="2.033"
       y2="3.0385"
       gradientUnits="userSpaceOnUse" />
    <linearGradient
       inkscape:collect="always"
       xlink:href="#linearGradient87"
       id="linearGradient89"
       x1="26"
       y1="27.5"
       x2="45"
       y2="27.5"
       gradientUnits="userSpaceOnUse" />
    <linearGradient
       inkscape:collect="always"
       xlink:href="#linearGradient96"
       id="linearGradient98"
       x1="30"
       y1="70.5"
       x2="49"
       y2="70.5"
       gradientUnits="userSpaceOnUse" />
  </defs>
  <sodipodi:namedview
     pagecolor="#ffffff"
     bordercolor="#666666"
     borderopacity="1"
     objecttolerance="10"
     gridtolerance="10"
     guidetolerance="10"
     inkscape:pageopacity="0"
     inkscape:pageshadow="2"
     inkscape:window-width="1920"
     inkscape:window-height="1000"
     id="namedview54"
     showgrid="false"
     inkscape:zoom="32.834783"
     inkscape:cx="46.509962"
     inkscape:cy="45.872959"
     inkscape:window-x="0"
     inkscape:window-y="0"
     inkscape:window-maximized="1"
     inkscape:current-layer="svg52" />
  <rect
     id="hint-tile-center"
     style="fill:url(#linearGradient66)"
     width="2.033"
     height="2.077"
     x="0"
     y="2"
     rx="0"
     ry="2.077" />
  <g
     id="g72">
    <path
       style="fill:url(#linearGradient89)"
       d="M 34 18 L 34 22 L 36 22 L 36 18 L 34 18 z M 41 27 L 41 29 L 45 29 L 45 27 L 41 27 z M 26 28 L 26 30 L 30 30 L 30 28 L 26 28 z M 35 33 L 35 37 L 37 37 L 37 33 L 35 33 z "
       id="pressed-hint-top-margin" />
  </g>
  <path
     style="fill:url(#linearGradient98)"
     d="M 39 61 L 39 65 L 41 65 L 41 61 L 39 61 z M 30 70 L 30 72 L 34 72 L 34 70 L 30 70 z M 45 70 L 45 72 L 49 72 L 49 70 L 45 70 z M 39 76 L 39 80 L 41 80 L 41 76 L 39 76 z "
     id="normal-hint-left-margin" />
  <rect
     id="separator"
     style="opacity:0.001;fill:#000000;fill-opacity:1"
     width="40"
     height="1"
     x="82"
     y="-61"
     transform="scale(1,-1)" />
  <path
     id="normal-center"
     style="opacity:0.001"
     d="m 34,65.00034 0,11.00001 10.999999,0 0,-11.00001 -10.999999,0 z" />
  <path
     id="normal-right"
     style="opacity:0.001"
     d="m 45,65.00034 0,11.00001 2,0 c 6.68e-4,-0.0184 0,-0.0344 0,-0.0529 l 0,-10.89424 c 0,-0.0185 6.68e-4,-0.0345 0,-0.0529 l -2,0 z" />
  <path
     id="normal-top"
     style="opacity:0.001"
     d="m 34,63.0003 0,2.00004 10.999999,0 0,-2.00004 c -0.0041,-6.7e-4 0.0042,0 10e-7,0 l -10.98814,0 c -0.004,0 -0.008,-6.7e-4 -0.0119,0 z" />
  <path
     id="normal-left"
     style="opacity:0.001"
     d="m 32.0003,65.00034 c -6.7e-4,0.0183 0,0.0344 0,0.0529 l 0,10.89423 c 0,0.0185 -6.7e-4,0.0345 0,0.0529 l 2,0 0,-11 -2,0 z" />
  <path
     id="normal-bottom"
     style="opacity:0.001"
     d="m 34,76 0,2 11,0 0,-1.99966 z" />
  <path
     id="normal-topleft"
     style="opacity:0.001"
     d="m 31.999967,63.0003 0,2.00004 1.999771,0 0,-2.00004 c -7.46e-4,-6.7e-4 7.63e-4,0 0,0 l -1.997614,0 c -7.28e-4,0 -0.0015,-6.7e-4 -0.0022,0 z" />
  <path
     id="normal-topright"
     style="opacity:0.001"
     d="m 45.000007,63.00064 0,1.9997 1.999771,0 0,-1.9997 c -7.46e-4,-6.7e-4 7.63e-4,0 0,0 l -1.997614,0 c -7.28e-4,0 -0.0015,-6.7e-4 -0.0022,0 z" />
  <path
     id="normal-bottomright"
     style="opacity:0.001"
     d="m 45.000007,76.0003 0,1.9997 1.999771,0 0,-1.9997 c -7.46e-4,-6.7e-4 7.63e-4,0 0,0 l -1.997614,0 c -7.28e-4,0 -0.0015,-6.7e-4 -0.0022,0 z" />
  <path
     id="normal-bottomleft"
     style="opacity:0.001"
     d="m 32.000007,76.0003 0,1.9997 1.999771,0 0,-1.9997 c -7.46e-4,-6.7e-4 7.63e-4,0 0,0 l -1.997614,0 c -7.28e-4,0 -0.0015,-6.7e-4 -0.0022,0 z" />
  <path
     id="pressed-center"
     style="opacity:0.001"
     d="m 29.9997,22.00001 0,11.00001 10.999999,0 0,-11.00001 -10.999999,0 z" />
  <path
     id="pressed-right"
     style="opacity:0.001"
     d="m 40.9997,22.00001 0,11.00001 2,0 c 6.68e-4,-0.0183 0,-0.0344 0,-0.0529 l 0,-10.89423 c 0,-0.0185 6.68e-4,-0.0345 0,-0.0529 l -2,0 z" />
  <path
     id="pressed-top"
     style="opacity:0.001"
     d="m 29.9997,19.99997 0,2.00004 10.999999,0 0,-2.00004 c -0.0041,-6.7e-4 0.0045,0 3.01e-4,0 l -10.98844,0 c -0.004,0 -0.008,-6.7e-4 -0.0119,0 z" />
  <path
     id="pressed-left"
     style="opacity:0.001"
     d="m 28,22.00001 c -6.7e-4,0.0183 0,0.0344 0,0.0529 l 0,10.89423 c 0,0.0185 -6.7e-4,0.0345 0,0.0529 l 2,0 0,-11 -2,0 z" />
  <path
     id="pressed-bottom"
     style="opacity:0.001"
     d="m 30,33 0,2 11,0 0,-2 -11,0 z" />
  <path
     id="pressed-topleft"
     style="opacity:0.001"
     d="m 27.999667,19.99997 0,2.00004 1.999722,0 0,-2.00004 c -7.45e-4,-6.7e-4 8.18e-4,0 5.5e-5,0 l -1.997621,0 c -7.27e-4,0 -0.0015,-6.7e-4 -0.0022,0 z" />
  <path
     id="pressed-topright"
     style="opacity:0.001"
     d="m 41.000044,19.99997 0,2.00004 1.999722,0 0,-2.00004 c -7.45e-4,-6.7e-4 8.18e-4,0 5.5e-5,0 l -1.997621,0 c -7.27e-4,0 -0.0015,-6.7e-4 -0.0022,0 z" />
  <path
     id="pressed-bottomright"
     style="opacity:0.001"
     d="m 41.000044,32.99995 0,2.00005 1.999722,0 0,-2.00005 c -7.45e-4,-6.7e-4 8.18e-4,0 5.5e-5,0 l -1.997621,0 c -7.27e-4,0 -0.0015,-6.7e-4 -0.0022,0 z" />
  <path
     id="pressed-bottomleft"
     style="opacity:0.001"
     d="m 28.000044,32.99995 0,2.00005 1.999722,0 0,-2.00005 c -7.45e-4,-6.7e-4 8.18e-4,0 5.5e-5,0 l -1.997621,0 c -7.27e-4,0 -0.0015,-6.7e-4 -0.0022,0 z" />
  <path
     id="section-center"
     style="opacity:0.05;fill:#ffffff"
     d="m 31.9997,100 0,11 10.999999,0 0,-11 -10.999999,0 z" />
  <path
     id="section-right"
     style="opacity:0.05;fill:#ffffff"
     d="m 42.9997,100 0,11 2,0 c 6.68e-4,-0.0183 0,-0.0344 0,-0.0529 l 0,-10.89423 c 0,-0.0185 6.68e-4,-0.0345 0,-0.0529 l -2,0 z" />
  <path
     id="section-top"
     style="opacity:0.05;fill:#ffffff"
     d="m 31.9997,97.99995 0,2.00005 10.999999,0 0,-2.00005 c -0.0041,-6.7e-4 0.0042,0 10e-7,0 l -10.98814,0 c -0.004,0 -0.008,-6.7e-4 -0.0119,0 z" />
  <path
     id="section-left"
     style="opacity:0.05;fill:#ffffff"
     d="m 30,100 c -6.7e-4,0.0183 0,0.0344 0,0.0529 l 0,10.89423 c 0,0.0185 -6.7e-4,0.0345 0,0.0529 l 2,0 0,-11 -2,0 z" />
  <path
     id="section-bottom"
     style="opacity:0.05;fill:#ffffff"
     d="m 31.9997,110.99966 0,2 11,0 0,-1.99966 z" />
  <path
     id="section-topleft"
     style="opacity:0.05;fill:#ffffff"
     d="m 29.999667,97.99995 0,2.00005 1.999771,0 0,-2.00005 c -7.46e-4,-6.7e-4 7.63e-4,0 0,0 l -1.997614,0 c -7.28e-4,0 -0.0015,-6.7e-4 -0.0022,0 z" />
  <path
     id="section-topright"
     style="opacity:0.05;fill:#ffffff"
     d="m 42.999707,98.0003 0,1.9997 1.999771,0 0,-1.9997 c -7.46e-4,-6.7e-4 7.63e-4,0 0,0 l -1.997614,0 c -7.28e-4,0 -0.0015,-6.7e-4 -0.0022,0 z" />
  <path
     id="section-bottomright"
     style="opacity:0.05;fill:#ffffff"
     d="m 42.999707,110.99995 0,1.99971 1.999771,0 0,-1.99971 c -7.46e-4,-6.7e-4 7.63e-4,0 0,0 l -1.997614,0 c -7.28e-4,0 -0.0015,-6.7e-4 -0.0022,0 z" />
  <path
     id="section-bottomleft"
     style="opacity:0.05;fill:#ffffff"
     d="m 29.999707,110.99995 0,1.99971 1.999771,0 0,-1.99971 c -7.46e-4,-6.7e-4 7.63e-4,0 0,0 l -1.997614,0 c -7.28e-4,0 -0.0015,-6.7e-4 -0.0022,0 z" />
  <rect
     id="section-hint-top-margin"
     style="fill:#4e9a06"
     width="2"
     height="4"
     x="36"
     y="96" />
  <rect
     id="section-hint-left-margin"
     style="fill:#4e9a06"
     width="4"
     height="2"
     x="28"
     y="105" />
  <rect
     id="section-hint-right-margin"
     style="fill:#4e9a06"
     width="4"
     height="2"
     x="43"
     y="105" />
  <rect
     id="section-hint-bottom-margin"
     style="fill:#4e9a06"
     width="2"
     height="4"
     x="36"
     y="111" />
  <path
     id="hover-center"
     style="opacity:0.001"
     d="m 69.9997,19.38416 0,11 10.999999,0 0,-11 -10.999999,0 z" />
  <path
     id="hover-right"
     style="opacity:0.001"
     d="m 80.9997,19.38416 0,11 2,0 c 6.68e-4,-0.0183 0,-0.0344 0,-0.0529 l 0,-10.89423 c 0,-0.0185 6.68e-4,-0.0345 0,-0.0529 l -2,0 z" />
  <path
     id="hover-top"
     style="opacity:0.001"
     d="m 69.9997,17.38411 0,2.00005 10.999999,0 0,-2.00005 c -0.0041,-6.7e-4 0.0045,0 3.01e-4,0 l -10.98844,0 c -0.004,0 -0.008,-6.7e-4 -0.0119,0 z" />
  <path
     id="hover-left"
     style="opacity:0.001"
     d="m 68,19.38416 c -6.7e-4,0.0183 0,0.0344 0,0.0529 l 0,10.89423 c 0,0.0185 -6.7e-4,0.0345 0,0.0529 l 2,0 0,-11.00001 -2,0 z" />
  <path
     id="hover-bottom"
     style="opacity:0.001"
     d="m 70,30.38414 0,2 11,0 0,-2 -11,0 z" />
  <path
     id="hover-topleft"
     style="opacity:0.001"
     d="m 67.999667,17.38411 0,2.00005 1.999722,0 0,-2.00005 c -7.45e-4,-6.7e-4 8.18e-4,0 5.5e-5,0 l -1.997621,0 c -7.27e-4,0 -0.0015,-6.7e-4 -0.0022,0 z" />
  <path
     id="hover-topright"
     style="opacity:0.001"
     d="m 81.000044,17.38411 0,2.00005 1.999722,0 0,-2.00005 c -7.45e-4,-6.7e-4 8.18e-4,0 5.5e-5,0 l -1.997621,0 c -7.27e-4,0 -0.0015,-6.7e-4 -0.0022,0 z" />
  <path
     id="hover-bottomright"
     style="opacity:0.001"
     d="m 81.000044,30.3841 0,2.00004 1.999722,0 0,-2.00004 c -7.45e-4,-6.7e-4 8.18e-4,0 5.5e-5,0 l -1.997621,0 c -7.27e-4,0 -0.0015,-6.7e-4 -0.0022,0 z" />
  <path
     id="hover-bottomleft"
     style="opacity:0.001"
     d="m 68.000044,30.3841 0,2.00004 1.999722,0 0,-2.00004 c -7.45e-4,-6.7e-4 8.18e-4,0 5.5e-5,0 l -1.997621,0 c -7.27e-4,0 -0.0015,-6.7e-4 -0.0022,0 z" />
</svg>
