<?xml version="1.0" encoding="UTF-8" standalone="no"?>
<svg
   xmlns:dc="http://purl.org/dc/elements/1.1/"
   xmlns:cc="http://creativecommons.org/ns#"
   xmlns:rdf="http://www.w3.org/1999/02/22-rdf-syntax-ns#"
   xmlns:svg="http://www.w3.org/2000/svg"
   xmlns="http://www.w3.org/2000/svg"
   xmlns:xlink="http://www.w3.org/1999/xlink"
   xmlns:sodipodi="http://sodipodi.sourceforge.net/DTD/sodipodi-0.dtd"
   xmlns:inkscape="http://www.inkscape.org/namespaces/inkscape"
   id="svg129"
   width="205"
   height="210.939"
   version="1"
   sodipodi:docname="panel-background.svg"
   inkscape:version="0.92.4 (5da689c313, 2019-01-14)">
  <metadata
     id="metadata69">
    <rdf:RDF>
      <cc:Work
         rdf:about="">
        <dc:format>image/svg+xml</dc:format>
        <dc:type
           rdf:resource="http://purl.org/dc/dcmitype/StillImage" />
      </cc:Work>
    </rdf:RDF>
  </metadata>
  <sodipodi:namedview
     pagecolor="#ffffff"
     bordercolor="#666666"
     borderopacity="1"
     objecttolerance="10"
     gridtolerance="10"
     guidetolerance="10"
     inkscape:pageopacity="0"
     inkscape:pageshadow="2"
     inkscape:window-width="1920"
     inkscape:window-height="1000"
     id="namedview67"
     showgrid="false"
     inkscape:zoom="6.3289275"
     inkscape:cx="104.14727"
     inkscape:cy="200.54025"
     inkscape:window-x="0"
     inkscape:window-y="0"
     inkscape:window-maximized="1"
     inkscape:current-layer="svg129" />
  <defs
     id="defs15">
    <linearGradient
       inkscape:collect="always"
       id="linearGradient93">
      <stop
         style="stop-color:#ff00ff;stop-opacity:1"
         offset="0"
         id="stop89" />
      <stop
         style="stop-color:#00ffff;stop-opacity:1"
         offset="1"
         id="stop91" />
    </linearGradient>
    <linearGradient
       inkscape:collect="always"
       id="linearGradient85">
      <stop
         style="stop-color:#ff00ff;stop-opacity:1"
         offset="0"
         id="stop81" />
      <stop
         style="stop-color:#00ffff;stop-opacity:1"
         offset="1"
         id="stop83" />
    </linearGradient>
    <linearGradient
       inkscape:collect="always"
       id="linearGradient76">
      <stop
         style="stop-color:#ff00ff;stop-opacity:1"
         offset="0"
         id="stop72" />
      <stop
         style="stop-color:#00ffff;stop-opacity:1"
         offset="1"
         id="stop74" />
    </linearGradient>
    <radialGradient
       id="radialGradient4263"
       cx="984"
       cy="905.362"
       r="8.5"
       fx="984"
       fy="905.362"
       gradientTransform="matrix(-2.0000092,-4.2453419e-5,4.2452431e-5,-1.9999627,2105.9707,1910.6713)"
       gradientUnits="userSpaceOnUse"
       xlink:href="#linearGradient4465" />
    <linearGradient
       id="linearGradient4465">
      <stop
         id="stop3"
         style="stop-color:#000000;stop-opacity:0.50980395"
         offset="0" />
      <stop
         id="stop5"
         style="stop-color:#000000;stop-opacity:0"
         offset="1" />
    </linearGradient>
    <linearGradient
       id="linearGradient4259"
       x1="83.6"
       x2="83.6"
       y1="-969.362"
       y2="-952.362"
       gradientTransform="matrix(0.71428571,0,0,1,-317.71429,1250.3622)"
       gradientUnits="userSpaceOnUse"
       xlink:href="#linearGradient4465" />
    <radialGradient
       id="radialGradient3382"
       cx="984"
       cy="905.362"
       r="8.5"
       fx="984"
       fy="905.362"
       gradientTransform="matrix(-1.8927835e-5,1.9999979,-1.9999736,-1.8927605e-5,1998.719,-1868.0418)"
       gradientUnits="userSpaceOnUse"
       xlink:href="#linearGradient4465" />
    <linearGradient
       id="linearGradient4452"
       x1="-260"
       x2="-260"
       y1="281"
       y2="298"
       gradientUnits="userSpaceOnUse"
       xlink:href="#linearGradient4465" />
    <radialGradient
       id="radialGradient4255"
       cx="982.909"
       cy="906.453"
       r="8.5"
       fx="982.909"
       fy="906.453"
       gradientTransform="matrix(2.0000159,1.4152386e-5,-1.4152136e-5,1.9999805,-1777.8209,-1762.9634)"
       gradientUnits="userSpaceOnUse"
       xlink:href="#linearGradient4465" />
    <radialGradient
       id="radialGradient4275"
       cx="984"
       cy="905.362"
       r="8.5"
       fx="984"
       fy="905.362"
       gradientTransform="matrix(-9.4993794e-7,-2.0000005,1.9999801,-9.4992883e-7,-1672.7052,2017.9403)"
       gradientUnits="userSpaceOnUse"
       xlink:href="#linearGradient4465" />
    <linearGradient
       id="linearGradient4385"
       x1="83.6"
       x2="83.6"
       y1="-969.362"
       y2="-952.362"
       gradientTransform="matrix(0.71428571,0,0,1,-317.71429,1250.3622)"
       gradientUnits="userSpaceOnUse"
       xlink:href="#linearGradient4465" />
    <linearGradient
       id="linearGradient4387"
       x1="83.6"
       x2="83.6"
       y1="-969.362"
       y2="-952.362"
       gradientTransform="matrix(0.71428571,0,0,1,-317.71429,1250.3622)"
       gradientUnits="userSpaceOnUse"
       xlink:href="#linearGradient4465" />
    <linearGradient
       inkscape:collect="always"
       xlink:href="#linearGradient76"
       id="linearGradient78"
       x1="0"
       y1="76.939451"
       x2="64"
       y2="76.939451"
       gradientUnits="userSpaceOnUse" />
    <linearGradient
       inkscape:collect="always"
       xlink:href="#linearGradient85"
       id="linearGradient87"
       x1="121"
       y1="74.939451"
       x2="205"
       y2="74.939451"
       gradientUnits="userSpaceOnUse" />
    <linearGradient
       inkscape:collect="always"
       xlink:href="#linearGradient93"
       id="linearGradient95"
       x1="0"
       y1="2.44"
       x2="5"
       y2="2.44"
       gradientUnits="userSpaceOnUse" />
  </defs>
  <path
     id="shadow-topleft"
     style="fill:url(#radialGradient4275)"
     d="m 121,49.938995 h 10 v -2 c 0,-2.77 2.23,-5 5,-5 h 2 v -10 h -17 z" />
  <g
     id="shadow-left"
     transform="matrix(-1,0,0,1,419,-207.061)">
    <rect
       id="rect18"
       style="fill:url(#linearGradient4385)"
       width="50"
       height="10"
       x="-307"
       y="288"
       transform="rotate(-90)" />
    <rect
       id="rect20"
       style="opacity:0;fill:#3498db"
       width="7"
       height="1"
       x="278"
       y="257"
       transform="translate(3,2)" />
  </g>
  <path
     id="shadow-bottomright"
     style="fill:url(#radialGradient3382)"
     d="M 205,99.938998 H 195 V 101.939 c 0,2.77 -2.23,5 -5,5 h -2 v 10 h 17 z" />
  <g
     id="shadow-bottom"
     transform="rotate(90,313.03051,131.9695)">
    <rect
       id="rect24"
       style="fill:url(#linearGradient4387)"
       width="50"
       height="10"
       x="-307"
       y="288"
       transform="rotate(-90)" />
    <rect
       id="rect26"
       style="opacity:0;fill:#3498db"
       width="7"
       height="1"
       x="278"
       y="257"
       transform="translate(3,2)" />
  </g>
  <g
     id="shadow-right"
     transform="translate(-93,-207.061)">
    <rect
       id="rect29"
       style="fill:url(#linearGradient4452)"
       width="50"
       height="10"
       x="-307"
       y="288"
       transform="rotate(-90)" />
    <rect
       id="rect31"
       style="opacity:0;fill:#3498db"
       width="7"
       height="1"
       x="278"
       y="257"
       transform="translate(3,2)" />
  </g>
  <g
     id="shadow-top"
     transform="matrix(0,-1,-1,0,445,330.939)">
    <rect
       id="rect34"
       style="fill:url(#linearGradient4259)"
       width="50"
       height="10"
       x="-307"
       y="288"
       transform="rotate(-90)" />
    <rect
       id="rect36"
       style="opacity:0;fill:#3498db"
       width="7"
       height="1"
       x="278"
       y="257"
       transform="translate(3,2)" />
  </g>
  <path
     id="shadow-topright"
     style="fill:url(#radialGradient4255)"
     d="m 188,32.938995 v 10 h 2 c 2.77,0 5,2.23 5,5 v 2 h 10 v -17 z" />
  <path
     id="shadow-bottomleft"
     style="fill:url(#radialGradient4263)"
     d="m 138,116.939 v -10 h -2 c -2.77,0 -5,-2.23 -5,-5 V 99.938998 H 121 V 116.939 Z" />
  <rect
     id="center"
     style="fill:#262626"
     width="50"
     height="50"
     x="7"
     y="51.94" />
  <g
     id="topleft"
     transform="translate(-183,-207.06082)">
    <path
       id="path42"
       style="fill:#262626"
       d="m 190.00001,251.99982 v 7 h -7 v -2 c 0,-2.77 2.23,-5 5,-5 z" />
  </g>
  <g
     id="left"
     transform="translate(-183,-207.06082)">
    <path
       id="path45"
       style="fill:#262626"
       d="m 183.00002,258.99981 v 50 l 7,10e-6 v -50 z" />
  </g>
  <g
     id="right"
     transform="translate(-183,-207.06083)">
    <path
       id="path48"
       style="fill:#262626"
       d="m 247,258.99982 v 50 l -7,10e-6 v -50 z" />
  </g>
  <g
     id="bottomleft"
     transform="translate(-183,-207.06091)">
    <path
       id="path51"
       style="fill:#262626"
       d="m 190.00001,315.99991 v -7 h -7 v 2 c 0,2.77 2.23,5 5,5 z" />
  </g>
  <g
     id="bottom"
     transform="translate(-183,-207.06095)">
    <path
       id="path54"
       style="fill:#262626"
       d="M 189.99998,315.99995 H 240 v -7 h -50.00001 z" />
  </g>
  <g
     id="bottomright"
     transform="translate(-183,-207.06091)">
    <path
       id="path57"
       style="fill:#262626"
       d="m 240,315.99991 v -7 h 7 v 2 c 0,2.77 -2.23,5 -5,5 z" />
  </g>
  <g
     id="topright"
     transform="translate(-183,-207.06082)">
    <path
       id="path60"
       style="fill:#262626"
       d="m 240,251.99982 v 7 h 7 v -2 c 0,-2.77 -2.23,-5 -5,-5 z" />
  </g>
  <g
     id="top"
     transform="translate(-183,-207.06082)">
    <path
       id="path63"
       style="fill:#262626"
       d="M 189.99998,251.99982 H 240 v 7 h -50.00001 z" />
  </g>
  <path
     style="fill:url(#linearGradient87)"
     d="M 162 32.939453 L 162 42.939453 L 166 42.939453 L 166 32.939453 L 162 32.939453 z M 121 72.939453 L 121 76.939453 L 131 76.939453 L 131 72.939453 L 121 72.939453 z M 195 72.939453 L 195 76.939453 L 205 76.939453 L 205 72.939453 L 195 72.939453 z M 161 106.93945 L 161 116.93945 L 165 116.93945 L 165 106.93945 L 161 106.93945 z "
     id="shadow-hint-right-margin" />
  <path
     style="fill:url(#linearGradient78)"
     d="M 29 44.939453 L 29 46.939453 L 33 46.939453 L 33 44.939453 L 29 44.939453 z M 0 72.939453 L 0 76.939453 L 2 76.939453 L 2 72.939453 L 0 72.939453 z M 62 72.939453 L 62 76.939453 L 64 76.939453 L 64 72.939453 L 62 72.939453 z M 29 106.93945 L 29 108.93945 L 33 108.93945 L 33 106.93945 L 29 106.93945 z "
     id="hint-top-margin" />
  <rect
     id="mask-center"
     style="fill:#000000"
     width="50"
     height="50"
     x="70"
     y="144.94" />
  <path
     id="mask-topleft"
     style="fill:#000000"
     d="m 70,137.93887 v 7 h -7 v -2 c 0,-2.77 2.23,-5 5,-5 z" />
  <path
     id="mask-left"
     style="fill:#000000"
     d="m 63.00001,144.93886 v 50 l 7,1e-5 v -50 z" />
  <path
     id="mask-right"
     style="fill:#000000"
     d="m 126.99999,144.93887 v 50 l -7,1e-5 v -50 z" />
  <path
     id="mask-bottomleft"
     style="fill:#000000"
     d="m 70,201.93896 v -7 h -7 v 2 c 0,2.77 2.23,5 5,5 z" />
  <path
     id="mask-bottom"
     style="fill:#000000"
     d="m 69.99997,201.939 h 50.00002 v -7 H 69.99998 Z" />
  <path
     id="mask-bottomright"
     style="fill:#000000"
     d="m 119.99999,201.93896 v -7 h 7 v 2 c 0,2.77 -2.23,5 -5,5 z" />
  <path
     id="mask-topright"
     style="fill:#000000"
     d="m 119.99999,137.93887 v 7 h 7 v -2 c 0,-2.77 -2.23,-5 -5,-5 z" />
  <path
     id="mask-top"
     style="fill:#000000"
     d="m 69.99997,137.93887 h 50.00002 v 7 H 69.99998 Z" />
  <rect
     id="hint-tile-center"
     style="fill:url(#linearGradient95)"
     width="5"
     height="5"
     x="0"
     y="-.06" />
  <rect
     id="shadow-center"
     style="fill:none"
     width="50"
     height="50"
     x="138"
     y="50" />
</svg>
