<?xml version="1.0" encoding="UTF-8" standalone="no"?>
<svg
   xmlns:dc="http://purl.org/dc/elements/1.1/"
   xmlns:cc="http://creativecommons.org/ns#"
   xmlns:rdf="http://www.w3.org/1999/02/22-rdf-syntax-ns#"
   xmlns:svg="http://www.w3.org/2000/svg"
   xmlns="http://www.w3.org/2000/svg"
   xmlns:xlink="http://www.w3.org/1999/xlink"
   xmlns:sodipodi="http://sodipodi.sourceforge.net/DTD/sodipodi-0.dtd"
   xmlns:inkscape="http://www.inkscape.org/namespaces/inkscape"
   width="48"
   height="98"
   version="1"
   id="svg215"
   sodipodi:docname="scrollbar.svg"
   inkscape:version="0.92.4 (5da689c313, 2019-01-14)">
  <metadata
     id="metadata221">
    <rdf:RDF>
      <cc:Work
         rdf:about="">
        <dc:format>image/svg+xml</dc:format>
        <dc:type
           rdf:resource="http://purl.org/dc/dcmitype/StillImage" />
      </cc:Work>
    </rdf:RDF>
  </metadata>
  <defs
     id="defs219">
    <linearGradient
       inkscape:collect="always"
       id="linearGradient235">
      <stop
         style="stop-color:#ff00ff;stop-opacity:1"
         offset="0"
         id="stop231" />
      <stop
         style="stop-color:#00ffff;stop-opacity:1"
         offset="1"
         id="stop233" />
    </linearGradient>
    <linearGradient
       inkscape:collect="always"
       id="linearGradient227">
      <stop
         style="stop-color:#ff00ff;stop-opacity:1"
         offset="0"
         id="stop223" />
      <stop
         style="stop-color:#00ffff;stop-opacity:1"
         offset="1"
         id="stop225" />
    </linearGradient>
    <linearGradient
       inkscape:collect="always"
       xlink:href="#linearGradient227"
       id="linearGradient229"
       x1="4"
       y1="29"
       x2="12"
       y2="29"
       gradientUnits="userSpaceOnUse" />
    <linearGradient
       inkscape:collect="always"
       xlink:href="#linearGradient235"
       id="linearGradient237"
       x1="7"
       y1="13"
       x2="9"
       y2="13"
       gradientUnits="userSpaceOnUse" />
  </defs>
  <sodipodi:namedview
     pagecolor="#ffffff"
     bordercolor="#666666"
     borderopacity="1"
     objecttolerance="10"
     gridtolerance="10"
     guidetolerance="10"
     inkscape:pageopacity="0"
     inkscape:pageshadow="2"
     inkscape:window-width="1920"
     inkscape:window-height="1000"
     id="namedview217"
     showgrid="false"
     inkscape:zoom="19.265306"
     inkscape:cx="16.939369"
     inkscape:cy="41.85221"
     inkscape:window-x="0"
     inkscape:window-y="0"
     inkscape:window-maximized="1"
     inkscape:current-layer="svg215" />
  <g
     id="g213">
    <rect
       id="slider-center"
       style="fill:#979797"
       class="ColorScheme-Text"
       width="1"
       height="10"
       x="24"
       y="20" />
    <g
       id="slider-right"
       transform="matrix(0.75,0,0,1,19.25,13)">
      <path
         style="fill:#979797"
         class="ColorScheme-Text"
         d="m 9,7 v 10 h 2.666667 V 7 Z"
         id="path3" />
      <rect
         style="opacity:0.01;fill:#e4e6e8"
         width="1"
         height="10"
         x="29"
         y="20"
         transform="matrix(1.3333333,0,0,1,-25.666667,-13)"
         id="rect5" />
    </g>
    <g
       id="slider-topright"
       transform="matrix(0.75,0,0,0.75,19.25,13.75)">
      <rect
         style="opacity:0.01;fill:#e4e6e8"
         width="4"
         height="4"
         x="26"
         y="15"
         transform="matrix(1.3333333,0,0,1.3333333,-25.666667,-18.333333)"
         id="rect8" />
      <path
         style="fill:#979797"
         class="ColorScheme-Text"
         d="m 9,3 v 4 h 2.666667 C 11.666667,4.784 11.216,3 9,3 Z"
         id="path10" />
    </g>
    <g
       id="slider-bottomright"
       transform="matrix(0.75,0,0,0.75,19.25,18.25)">
      <rect
         style="opacity:0.01;fill:#e4e6e8"
         width="4"
         height="4"
         x="26"
         y="31"
         transform="matrix(1.3333333,0,0,1.3333333,-25.666667,-24.333333)"
         id="rect13" />
      <path
         style="fill:#979797"
         class="ColorScheme-Text"
         d="m 9,21 v -4 h 2.666667 c 0,2.216 -0.450667,4 -2.666667,4 z"
         id="path15" />
    </g>
    <g
       id="slider-left"
       transform="matrix(-0.75,0,0,1,29.75,13)">
      <path
         style="fill:#979797"
         class="ColorScheme-Text"
         d="m 9,7 v 10 h 2.666667 V 7 Z"
         id="path18" />
      <rect
         style="opacity:0.01;fill:#e4e6e8"
         width="1"
         height="10"
         x="19"
         y="20"
         transform="matrix(-1.3333333,0,0,1,39.666667,-13)"
         id="rect20" />
    </g>
    <g
       id="slider-topleft"
       transform="matrix(-0.75,0,0,0.75,29.75,13.75)">
      <rect
         style="fill:#e4e6e8;opacity:0.01"
         width="4"
         height="4"
         x="19"
         y="15"
         transform="matrix(-1.3333333,0,0,1.3333333,39.666667,-18.333333)"
         id="rect23" />
      <path
         style="fill:#979797"
         class="ColorScheme-Text"
         d="m 9,3 v 4 h 2.666667 C 11.666667,4.784 11.216,3 9,3 Z"
         id="path25" />
    </g>
    <g
       id="slider-bottomleft"
       transform="matrix(-0.75,0,0,0.75,29.75,18.25)">
      <rect
         style="opacity:0.01;fill:#e4e6e8"
         width="4"
         height="4"
         x="19"
         y="31"
         transform="matrix(-1.3333333,0,0,1.3333333,39.666667,-24.333333)"
         id="rect28" />
      <path
         style="fill:#979797"
         class="ColorScheme-Text"
         d="m 9,21 v -4 h 2.666667 c 0,2.216 -0.450667,4 -2.666667,4 z"
         id="path30" />
    </g>
    <g
       id="slider-top"
       transform="matrix(0,-0.75,-0.1,0,25.7,25.75)">
      <rect
         style="opacity:0.01;fill:#e4e6e8"
         width="1"
         height="4"
         x="24"
         y="15"
         transform="matrix(0,-10,-1.3333333,0,34.333333,257)"
         id="rect33" />
      <path
         style="fill:#979797"
         class="ColorScheme-Text"
         d="M 9,7 9,17 13,17 13,7 9,7 z"
         id="path35" />
    </g>
    <g
       id="slider-bottom"
       transform="matrix(0,0.75,-0.1,0,25.7,24.25)">
      <rect
         style="opacity:0.01;fill:#e4e6e8"
         width="1"
         height="4"
         x="24"
         y="31"
         transform="matrix(0,-10,1.3333333,0,-32.333333,257)"
         id="rect38" />
      <path
         style="fill:#979797"
         class="ColorScheme-Text"
         d="M 9,7 9,17 13,17 13,7 9,7 z"
         id="path40" />
    </g>
    <rect
       id="hint-scrollbar-size"
       style="fill:url(#linearGradient229)"
       width="8"
       height="8"
       x="4"
       y="25"
       rx="0"
       ry="8" />
    <rect
       id="hint-tile-center"
       style="fill:url(#linearGradient237)"
       width="2"
       height="2"
       x="7"
       y="12"
       rx="0"
       ry="2" />
    <g
       id="background-vertical-right"
       transform="matrix(0.75,0,0,1,33.25,13)">
      <path
         style="opacity:0.001"
         class="ColorScheme-Text"
         d="M 9,7 9,17 13,17 13,7 9,7 z"
         id="path45" />
      <rect
         style="opacity:0.01;fill:#e4e6e8"
         width="1"
         height="10"
         x="43"
         y="20"
         transform="matrix(1.3333333,0,0,1,-44.333333,-13)"
         id="rect47" />
    </g>
    <g
       id="background-vertical-topright"
       transform="matrix(0.75,0,0,0.75,33.25,13.75)">
      <rect
         style="opacity:0.01;fill:#e4e6e8"
         width="4"
         height="4"
         x="40"
         y="15"
         transform="matrix(1.3333333,0,0,1.3333333,-44.333333,-18.333333)"
         id="rect50" />
      <path
         style="opacity:0.001"
         class="ColorScheme-Text"
         d="m 9,3 0,4 4,0 C 13,4.784 11.216,3 9,3 z"
         id="path52" />
    </g>
    <g
       id="background-vertical-bottomright"
       transform="matrix(0.75,0,0,0.75,33.25,18.25)">
      <rect
         style="opacity:0.01;fill:#e4e6e8"
         width="4"
         height="4"
         x="40"
         y="31"
         transform="matrix(1.3333333,0,0,1.3333333,-44.333333,-24.333333)"
         id="rect55" />
      <path
         style="opacity:0.001"
         class="ColorScheme-Text"
         d="m 9,21 0,-4 4,0 c 0,2.216 -1.784,4 -4,4 z"
         id="path57" />
    </g>
    <g
       id="background-vertical-left"
       transform="matrix(-0.75,0,0,1,43.75,13)">
      <path
         style="opacity:0.001"
         class="ColorScheme-Text"
         d="M 9,7 9,17 13,17 13,7 9,7 z"
         id="path60" />
      <rect
         style="opacity:0.01;fill:#e4e6e8"
         width="1"
         height="10"
         x="33"
         y="20"
         transform="matrix(-1.3333333,0,0,1,58.333333,-13)"
         id="rect62" />
    </g>
    <g
       id="background-vertical-topleft"
       transform="matrix(-0.75,0,0,0.75,43.75,13.75)">
      <rect
         style="opacity:0.01;fill:#e4e6e8"
         width="4"
         height="4"
         x="33"
         y="15"
         transform="matrix(-1.3333333,0,0,1.3333333,58.333333,-18.333333)"
         id="rect65" />
      <path
         style="opacity:0.001"
         class="ColorScheme-Text"
         d="m 9,3 0,4 4,0 C 13,4.784 11.216,3 9,3 z"
         id="path67" />
    </g>
    <g
       id="background-vertical-bottomleft"
       transform="matrix(-0.75,0,0,0.75,43.75,18.25)">
      <rect
         style="opacity:0.01;fill:#e4e6e8"
         width="4"
         height="4"
         x="33"
         y="31"
         transform="matrix(-1.3333333,0,0,1.3333333,58.333333,-24.333333)"
         id="rect70" />
      <path
         style="opacity:0.001"
         class="ColorScheme-Text"
         d="m 9,21 0,-4 4,0 c 0,2.216 -1.784,4 -4,4 z"
         id="path72" />
    </g>
    <g
       id="background-vertical-top"
       transform="matrix(0,-0.75,-0.1,0,39.7,25.75)">
      <rect
         style="opacity:0.01;fill:#e4e6e8"
         width="1"
         height="4"
         x="38"
         y="15"
         transform="matrix(0,-10,-1.3333333,0,34.333333,397)"
         id="rect75" />
      <path
         style="opacity:0.001"
         class="ColorScheme-Text"
         d="M 9,7 9,17 13,17 13,7 9,7 z"
         id="path77" />
    </g>
    <g
       id="background-vertical-bottom"
       transform="matrix(0,0.75,-0.1,0,39.7,24.25)">
      <rect
         style="opacity:0.01;fill:#e4e6e8"
         width="1"
         height="4"
         x="38"
         y="31"
         transform="matrix(0,-10,1.3333333,0,-32.333333,397)"
         id="rect80" />
      <path
         style="opacity:0.001"
         class="ColorScheme-Text"
         d="M 9,7 9,17 13,17 13,7 9,7 z"
         id="path82" />
    </g>
    <rect
       id="sunken-slider-center"
       style="fill:#dedede"
       class="ColorScheme-ButtonHover"
       width="1"
       height="10"
       x="24"
       y="64" />
    <g
       id="sunken-slider-right"
       transform="matrix(0.75,0,0,1,19.25,57)">
      <path
         style="fill:#dedede"
         class="ColorScheme-ButtonHover"
         d="M 9,7 9,17 13,17 13,7 9,7 z"
         id="path86" />
      <rect
         style="opacity:0.01;fill:#e4e6e8"
         width="1"
         height="10"
         x="29"
         y="64"
         transform="matrix(1.3333333,0,0,1,-25.666667,-57)"
         id="rect88" />
    </g>
    <g
       id="sunken-slider-topright"
       transform="matrix(0.75,0,0,0.75,19.25,57.75)">
      <rect
         style="opacity:0.01;fill:#e4e6e8"
         width="4"
         height="4"
         x="26"
         y="59"
         transform="matrix(1.3333333,0,0,1.3333333,-25.666667,-77)"
         id="rect91" />
      <path
         style="fill:#dedede"
         class="ColorScheme-ButtonHover"
         d="m 9,3 0,4 4,0 C 13,4.784 11.216,3 9,3 z"
         id="path93" />
    </g>
    <g
       id="sunken-slider-bottomright"
       transform="matrix(0.75,0,0,0.75,19.25,62.25)">
      <rect
         style="opacity:0.01;fill:#e4e6e8"
         width="4"
         height="4"
         x="26"
         y="75"
         transform="matrix(1.3333333,0,0,1.3333333,-25.666667,-83)"
         id="rect96" />
      <path
         style="fill:#dedede"
         class="ColorScheme-ButtonHover"
         d="m 9,21 0,-4 4,0 c 0,2.216 -1.784,4 -4,4 z"
         id="path98" />
    </g>
    <g
       id="sunken-slider-left"
       transform="matrix(-0.75,0,0,1,29.75,57)">
      <path
         style="fill:#dedede"
         class="ColorScheme-ButtonHover"
         d="M 9,7 9,17 13,17 13,7 9,7 z"
         id="path101" />
      <rect
         style="opacity:0.01;fill:#e4e6e8"
         width="1"
         height="10"
         x="19"
         y="64"
         transform="matrix(-1.3333333,0,0,1,39.666667,-57)"
         id="rect103" />
    </g>
    <g
       id="sunken-slider-topleft"
       transform="matrix(-0.75,0,0,0.75,29.75,57.75)">
      <rect
         style="opacity:0.01;fill:#e4e6e8"
         width="4"
         height="4"
         x="19"
         y="59"
         transform="matrix(-1.3333333,0,0,1.3333333,39.666667,-77)"
         id="rect106" />
      <path
         style="fill:#dedede"
         class="ColorScheme-ButtonHover"
         d="m 9,3 0,4 4,0 C 13,4.784 11.216,3 9,3 z"
         id="path108" />
    </g>
    <g
       id="sunken-slider-bottomleft"
       transform="matrix(-0.75,0,0,0.75,29.75,62.25)">
      <rect
         style="opacity:0.01;fill:#e4e6e8"
         width="4"
         height="4"
         x="19"
         y="75"
         transform="matrix(-1.3333333,0,0,1.3333333,39.666667,-83)"
         id="rect111" />
      <path
         style="fill:#dedede"
         class="ColorScheme-ButtonHover"
         d="m 9,21 0,-4 4,0 c 0,2.216 -1.784,4 -4,4 z"
         id="path113" />
    </g>
    <g
       id="sunken-slider-top"
       transform="matrix(0,-0.75,-0.1,0,25.7,69.75)">
      <rect
         style="opacity:0.01;fill:#e4e6e8"
         width="1"
         height="4"
         x="24"
         y="59"
         transform="matrix(0,-10,-1.3333333,0,93,257)"
         id="rect116" />
      <path
         style="fill:#dedede"
         class="ColorScheme-ButtonHover"
         d="M 9,7 9,17 13,17 13,7 9,7 z"
         id="path118" />
    </g>
    <g
       id="sunken-slider-bottom"
       transform="matrix(0,0.75,-0.1,0,25.7,68.25)">
      <rect
         style="opacity:0.01;fill:#e4e6e8"
         width="1"
         height="4"
         x="24"
         y="75"
         transform="matrix(0,-10,1.3333333,0,-91,257)"
         id="rect121" />
      <path
         style="fill:#dedede"
         class="ColorScheme-ButtonHover"
         d="M 9,7 9,17 13,17 13,7 9,7 z"
         id="path123" />
    </g>
    <rect
       id="mouseover-slider-center"
       style="fill:#bfbfbf"
       class="ColorScheme-ButtonHover"
       width="1"
       height="10"
       x="24"
       y="42" />
    <g
       id="mouseover-slider-right"
       transform="matrix(0.75,0,0,1,19.250001,35)">
      <path
         style="fill:#bfbfbf"
         class="ColorScheme-ButtonHover"
         d="m 9,7 v 10 h 2.666665 V 7 Z"
         id="path127" />
      <rect
         style="opacity:0.01;fill:#e4e6e8"
         width="1"
         height="10"
         x="29"
         y="64"
         transform="matrix(1.3333333,0,0,1,-25.666667,-57)"
         id="rect129" />
    </g>
    <g
       id="mouseover-slider-topright"
       transform="matrix(0.75,0,0,0.75,19.250001,35.75)">
      <rect
         style="opacity:0.01;fill:#e4e6e8"
         width="4"
         height="4"
         x="26"
         y="59"
         transform="matrix(1.3333333,0,0,1.3333333,-25.666667,-77)"
         id="rect132" />
      <path
         style="fill:#bfbfbf"
         class="ColorScheme-ButtonHover"
         d="m 9,3 v 4 h 2.666665 C 11.666665,4.784 11.216,3 9,3 Z"
         id="path134" />
    </g>
    <g
       id="mouseover-slider-bottomright"
       transform="matrix(0.75,0,0,0.75,19.250001,40.25)">
      <rect
         style="opacity:0.01;fill:#e4e6e8"
         width="4"
         height="4"
         x="26"
         y="75"
         transform="matrix(1.3333333,0,0,1.3333333,-25.666667,-83)"
         id="rect137" />
      <path
         style="fill:#bfbfbf"
         class="ColorScheme-ButtonHover"
         d="m 9,21 v -4 h 2.666665 c 0,2.216 -0.450665,4 -2.666665,4 z"
         id="path139" />
    </g>
    <g
       id="mouseover-slider-left"
       transform="matrix(-0.75,0,0,1,29.750001,35)">
      <path
         style="fill:#bfbfbf"
         class="ColorScheme-ButtonHover"
         d="m 9,7 v 10 h 2.666668 V 7 Z"
         id="path142" />
      <rect
         style="opacity:0.01;fill:#e4e6e8"
         width="1"
         height="10"
         x="19"
         y="64"
         transform="matrix(-1.3333333,0,0,1,39.666667,-57)"
         id="rect144" />
    </g>
    <g
       id="mouseover-slider-topleft"
       transform="matrix(-0.75,0,0,0.75,29.750001,35.75)">
      <rect
         style="opacity:0.01;fill:#e4e6e8"
         width="4"
         height="4"
         x="19"
         y="59"
         transform="matrix(-1.3333333,0,0,1.3333333,39.666667,-77)"
         id="rect147" />
      <path
         style="fill:#bfbfbf"
         class="ColorScheme-ButtonHover"
         d="m 9,3 v 4 h 2.666668 C 11.666668,4.784 11.216,3 9,3 Z"
         id="path149" />
    </g>
    <g
       id="mouseover-slider-bottomleft"
       transform="matrix(-0.75,0,0,0.75,29.750001,40.25)">
      <rect
         style="opacity:0.01;fill:#e4e6e8"
         width="4"
         height="4"
         x="19"
         y="75"
         transform="matrix(-1.3333333,0,0,1.3333333,39.666667,-83)"
         id="rect152" />
      <path
         style="fill:#bfbfbf"
         class="ColorScheme-ButtonHover"
         d="m 9,21 v -4 h 2.666668 c 0,2.216 -0.450668,4 -2.666668,4 z"
         id="path154" />
    </g>
    <g
       id="mouseover-slider-top"
       transform="matrix(0,-0.75,-0.1,0,25.700001,47.75)">
      <rect
         style="opacity:0.01;fill:#e4e6e8"
         width="1"
         height="4"
         x="24"
         y="59"
         transform="matrix(0,-10,-1.3333333,0,93,257)"
         id="rect157" />
      <path
         style="fill:#bfbfbf"
         class="ColorScheme-ButtonHover"
         d="M 9,7 9,17 13,17 13,7 9,7 z"
         id="path159" />
    </g>
    <g
       id="mouseover-slider-bottom"
       transform="matrix(0,0.75,-0.1,0,25.700001,46.25)">
      <rect
         style="opacity:0.01;fill:#e4e6e8"
         width="1"
         height="4"
         x="24"
         y="75"
         transform="matrix(0,-10,1.3333333,0,-91,257)"
         id="rect162" />
      <path
         style="fill:#bfbfbf"
         class="ColorScheme-ButtonHover"
         d="M 9,7 9,17 13,17 13,7 9,7 z"
         id="path164" />
    </g>
    <g
       id="background-vertical-center">
      <rect
         style="opacity:0.001"
         class="ColorScheme-Text"
         width="1"
         height="10"
         x="38"
         y="20"
         id="rect167" />
    </g>
    <g
       id="background-horizontal-right"
       transform="matrix(0.75,0,0,1,33.250001,35.000001)">
      <path
         style="opacity:0.001"
         class="ColorScheme-Text"
         d="M 9,7 9,17 13,17 13,7 9,7 Z"
         id="path170" />
      <rect
         style="opacity:0.01;fill:#e4e6e8"
         width="1"
         height="10"
         x="43"
         y="20"
         transform="matrix(1.3333333,0,0,1,-44.333333,-13)"
         id="rect172" />
    </g>
    <g
       id="background-horizontal-topright"
       transform="matrix(0.75,0,0,0.75,33.250001,35.750001)">
      <rect
         style="opacity:0.01;fill:#e4e6e8"
         width="4"
         height="4"
         x="40"
         y="15"
         transform="matrix(1.3333333,0,0,1.3333333,-44.333333,-18.333333)"
         id="rect175" />
      <path
         style="opacity:0.001"
         class="ColorScheme-Text"
         d="m 9,3 0,4 4,0 C 13,4.784 11.216,3 9,3 Z"
         id="path177" />
    </g>
    <g
       id="background-horizontal-bottomright"
       transform="matrix(0.75,0,0,0.75,33.250001,40.250001)">
      <rect
         style="opacity:0.01;fill:#e4e6e8"
         width="4"
         height="4"
         x="40"
         y="31"
         transform="matrix(1.3333333,0,0,1.3333333,-44.333333,-24.333333)"
         id="rect180" />
      <path
         style="opacity:0.001"
         class="ColorScheme-Text"
         d="m 9,21 0,-4 4,0 c 0,2.216 -1.784,4 -4,4 z"
         id="path182" />
    </g>
    <g
       id="background-horizontal-left"
       transform="matrix(-0.75,0,0,1,43.750001,35.000001)">
      <path
         style="opacity:0.001"
         class="ColorScheme-Text"
         d="M 9,7 9,17 13,17 13,7 9,7 Z"
         id="path185" />
      <rect
         style="opacity:0.01;fill:#e4e6e8"
         width="1"
         height="10"
         x="33"
         y="20"
         transform="matrix(-1.3333333,0,0,1,58.333333,-13)"
         id="rect187" />
    </g>
    <g
       id="background-horizontal-topleft"
       transform="matrix(-0.75,0,0,0.75,43.750001,35.750001)">
      <rect
         style="opacity:0.01;fill:#e4e6e8"
         width="4"
         height="4"
         x="33"
         y="15"
         transform="matrix(-1.3333333,0,0,1.3333333,58.333333,-18.333333)"
         id="rect190" />
      <path
         style="opacity:0.001"
         class="ColorScheme-Text"
         d="m 9,3 0,4 4,0 C 13,4.784 11.216,3 9,3 Z"
         id="path192" />
    </g>
    <g
       id="background-horizontal-bottomleft"
       transform="matrix(-0.75,0,0,0.75,43.750001,40.250001)">
      <rect
         style="opacity:0.01;fill:#e4e6e8"
         width="4"
         height="4"
         x="33"
         y="31"
         transform="matrix(-1.3333333,0,0,1.3333333,58.333333,-24.333333)"
         id="rect195" />
      <path
         style="opacity:0.001"
         class="ColorScheme-Text"
         d="m 9,21 0,-4 4,0 c 0,2.216 -1.784,4 -4,4 z"
         id="path197" />
    </g>
    <g
       id="background-horizontal-top"
       transform="matrix(0,-0.75,-0.1,0,39.700001,47.750001)">
      <rect
         style="opacity:0.01;fill:#e4e6e8"
         width="1"
         height="4"
         x="38"
         y="15"
         transform="matrix(0,-10,-1.3333333,0,34.333333,397)"
         id="rect200" />
      <path
         style="opacity:0.001"
         class="ColorScheme-Text"
         d="M 9,7 9,17 13,17 13,7 9,7 Z"
         id="path202" />
    </g>
    <g
       id="background-horizontal-bottom"
       transform="matrix(0,0.75,-0.1,0,39.700001,46.250001)">
      <rect
         style="opacity:0.01;fill:#e4e6e8"
         width="1"
         height="4"
         x="38"
         y="31"
         transform="matrix(0,-10,1.3333333,0,-32.333333,397)"
         id="rect205" />
      <path
         style="opacity:0.001"
         class="ColorScheme-Text"
         d="M 9,7 9,17 13,17 13,7 9,7 Z"
         id="path207" />
    </g>
    <g
       id="background-horizontal-center"
       transform="translate(9.35e-7,22.000001)">
      <rect
         style="opacity:0.001"
         class="ColorScheme-Text"
         width="1"
         height="10"
         x="38"
         y="20"
         id="rect210" />
    </g>
  </g>
</svg>
