<?xml version="1.0" encoding="UTF-8" standalone="no"?>
<svg
   xmlns:dc="http://purl.org/dc/elements/1.1/"
   xmlns:cc="http://creativecommons.org/ns#"
   xmlns:rdf="http://www.w3.org/1999/02/22-rdf-syntax-ns#"
   xmlns:svg="http://www.w3.org/2000/svg"
   xmlns="http://www.w3.org/2000/svg"
   xmlns:xlink="http://www.w3.org/1999/xlink"
   xmlns:sodipodi="http://sodipodi.sourceforge.net/DTD/sodipodi-0.dtd"
   xmlns:inkscape="http://www.inkscape.org/namespaces/inkscape"
   width="76"
   height="66"
   version="1.1"
   id="svg60"
   sodipodi:docname="slider.svg"
   inkscape:version="0.92.4 (5da689c313, 2019-01-14)">
  <metadata
     id="metadata66">
    <rdf:RDF>
      <cc:Work
         rdf:about="">
        <dc:format>image/svg+xml</dc:format>
        <dc:type
           rdf:resource="http://purl.org/dc/dcmitype/StillImage" />
      </cc:Work>
    </rdf:RDF>
  </metadata>
  <defs
     id="defs64">
    <linearGradient
       inkscape:collect="always"
       id="linearGradient80">
      <stop
         style="stop-color:#ff00ff;stop-opacity:1"
         offset="0"
         id="stop76" />
      <stop
         style="stop-color:#00ffff;stop-opacity:1"
         offset="1"
         id="stop78" />
    </linearGradient>
    <linearGradient
       inkscape:collect="always"
       id="linearGradient72">
      <stop
         style="stop-color:#ff00ff;stop-opacity:1"
         offset="0"
         id="stop68" />
      <stop
         style="stop-color:#00ffff;stop-opacity:1"
         offset="1"
         id="stop70" />
    </linearGradient>
    <linearGradient
       inkscape:collect="always"
       xlink:href="#linearGradient72"
       id="linearGradient74"
       x1="54"
       y1="11"
       x2="76"
       y2="11"
       gradientUnits="userSpaceOnUse" />
    <linearGradient
       inkscape:collect="always"
       xlink:href="#linearGradient80"
       id="linearGradient82"
       x1="0"
       y1="37"
       x2="2"
       y2="37"
       gradientUnits="userSpaceOnUse" />
  </defs>
  <sodipodi:namedview
     pagecolor="#ffffff"
     bordercolor="#666666"
     borderopacity="1"
     objecttolerance="10"
     gridtolerance="10"
     guidetolerance="10"
     inkscape:pageopacity="0"
     inkscape:pageshadow="2"
     inkscape:window-width="1920"
     inkscape:window-height="1000"
     id="namedview62"
     showgrid="false"
     inkscape:zoom="20.227539"
     inkscape:cx="7.7004442"
     inkscape:cy="29.096303"
     inkscape:window-x="0"
     inkscape:window-y="0"
     inkscape:window-maximized="1"
     inkscape:current-layer="svg60" />
  <rect
     id="hint-tile-center"
     style="fill:url(#linearGradient82)"
     width="2"
     height="2"
     x="0"
     y="36" />
  <path
     id="groove-bottomright"
     style="opacity:0.3;fill:#ffffff"
     d="m 7,53 v 1 h 1 v -1 z" />
  <path
     id="groove-right"
     style="opacity:0.3;fill:#ffffff"
     d="m 7,51 v 1 h 1 v -1 z" />
  <path
     id="groove-topright"
     style="opacity:0.3;fill:#ffffff"
     d="m 7,49 v 1 h 1 v -1 z" />
  <path
     id="groove-bottomleft"
     style="opacity:0.3;fill:#ffffff"
     d="m 3,53 v 1 h 1 v -1 z" />
  <path
     id="groove-left"
     style="opacity:0.3;fill:#ffffff"
     d="m 3,51 v 1 h 1 v -1 z" />
  <path
     id="groove-topleft"
     style="opacity:0.3;fill:#ffffff"
     d="M 4,49 H 3 v 1 h 1 z" />
  <path
     id="groove-bottom"
     style="opacity:0.3;fill:#ffffff"
     d="m 5,53 v 1 h 1 v -1 z" />
  <path
     id="groove-center"
     style="opacity:0.3;fill:#ffffff"
     d="M 6,51 H 5 v 1 h 1 z" />
  <path
     id="groove-top"
     style="opacity:0.3;fill:#ffffff"
     d="m 5,49 v 1 h 1 v -1 z" />
  <path
     id="groove-highlight-bottomright"
     style="fill:#00a698"
     d="m 7,62 v 1 h 1 v -1 z" />
  <path
     id="groove-highlight-right"
     style="fill:#00a698"
     d="m 7,60 v 1 h 1 v -1 z" />
  <path
     id="groove-highlight-topright"
     style="fill:#00a698"
     d="m 7,58 v 1 h 1 v -1 z" />
  <path
     id="groove-highlight-bottomleft"
     style="fill:#00a698"
     d="m 3,62 v 1 h 1 v -1 z" />
  <path
     id="groove-highlight-left"
     style="fill:#00a698"
     d="m 3,60 v 1 h 1 v -1 z" />
  <path
     id="groove-highlight-topleft"
     style="fill:#00a698"
     d="M 4,58 H 3 v 1 h 1 z" />
  <path
     id="groove-highlight-bottom"
     style="fill:#00a698"
     d="m 5,62 v 1 h 1 v -1 z" />
  <path
     id="groove-highlight-center"
     style="fill:#00a698"
     d="M 6,60 H 5 v 1 h 1 z" />
  <path
     id="groove-highlight-top"
     style="fill:#00a698"
     d="m 5,58 v 1 h 1 v -1 z" />
  <g
     id="horizontal-slider-handle"
     transform="matrix(0.6875,0,0,0.6875,-7.187504,41.250002)">
    <rect
       style="opacity:0"
       width="32"
       height="32"
       x="25"
       y="4"
       id="rect21" />
    <circle
       style="fill:#00a698"
       cx="41"
       cy="20"
       r="7.273"
       id="circle23" />
  </g>
  <g
     id="horizontal-slider-hover"
     transform="matrix(0.6875,0,0,0.6875,14.8125,41.25)">
    <rect
       style="opacity:0"
       width="32"
       height="32"
       x="25"
       y="4"
       id="rect26" />
    <circle
       style="opacity:0.2;fill:#00a698"
       cx="41"
       cy="20"
       r="16"
       id="circle28" />
    <circle
       style="fill:#00a698"
       cx="41"
       cy="20"
       r="7.273"
       id="circle30" />
  </g>
  <g
     id="horizontal-slider-focus"
     transform="matrix(0.6875,0,0,0.6875,36.8125,41.25)">
    <rect
       style="opacity:0"
       width="32"
       height="32"
       x="25"
       y="4"
       id="rect33" />
    <circle
       style="opacity:0.3;fill:#00a698"
       cx="41"
       cy="20"
       r="16"
       id="circle35" />
    <circle
       style="fill:#00a698"
       cx="41"
       cy="20"
       r="7.273"
       id="circle37" />
  </g>
  <g
     id="vertical-slider-handle"
     transform="matrix(0.6875,0,0,0.6875,-7.1875,19.25)">
    <rect
       style="opacity:0"
       width="32"
       height="32"
       x="25"
       y="4"
       id="rect40" />
    <circle
       style="fill:#00a698"
       cx="41"
       cy="20"
       r="7.273"
       id="circle42" />
  </g>
  <g
     id="vertical-slider-hover"
     transform="matrix(0.6875,0,0,0.6875,14.8125,19.25)">
    <rect
       style="opacity:0"
       width="32"
       height="32"
       x="25"
       y="4"
       id="rect45" />
    <circle
       style="opacity:0.2;fill:#00a698"
       cx="41"
       cy="20"
       r="16"
       id="circle47" />
    <circle
       style="fill:#00a698"
       cx="41"
       cy="20"
       r="7.273"
       id="circle49" />
  </g>
  <g
     id="vertical-slider-focus"
     transform="matrix(0.6875,0,0,0.6875,36.8125,19.25)">
    <rect
       style="opacity:0"
       width="32"
       height="32"
       x="25"
       y="4"
       id="rect52" />
    <circle
       style="opacity:0.3;fill:#00a698"
       cx="41"
       cy="20"
       r="16"
       id="circle54" />
    <circle
       style="fill:#00a698"
       cx="41"
       cy="20"
       r="7.273"
       id="circle56" />
  </g>
  <circle
     id="hint-handle-size"
     style="fill:url(#linearGradient74)"
     cx="65"
     cy="11"
     r="11" />
</svg>
