<?xml version="1.0" encoding="UTF-8" standalone="no"?>
<svg
   xmlns:dc="http://purl.org/dc/elements/1.1/"
   xmlns:cc="http://creativecommons.org/ns#"
   xmlns:rdf="http://www.w3.org/1999/02/22-rdf-syntax-ns#"
   xmlns:svg="http://www.w3.org/2000/svg"
   xmlns="http://www.w3.org/2000/svg"
   xmlns:xlink="http://www.w3.org/1999/xlink"
   xmlns:sodipodi="http://sodipodi.sourceforge.net/DTD/sodipodi-0.dtd"
   xmlns:inkscape="http://www.inkscape.org/namespaces/inkscape"
   width="32"
   height="32"
   version="1.1"
   id="svg7"
   sodipodi:docname="bookmarks.svg"
   inkscape:version="0.92.4 (5da689c313, 2019-01-14)">
  <metadata
     id="metadata13">
    <rdf:RDF>
      <cc:Work
         rdf:about="">
        <dc:format>image/svg+xml</dc:format>
        <dc:type
           rdf:resource="http://purl.org/dc/dcmitype/StillImage" />
      </cc:Work>
    </rdf:RDF>
  </metadata>
  <defs
     id="defs11">
    <linearGradient
       inkscape:collect="always"
       id="linearGradient19">
      <stop
         style="stop-color:#ff00ff;stop-opacity:1"
         offset="0"
         id="stop15" />
      <stop
         style="stop-color:#00ffff;stop-opacity:1"
         offset="1"
         id="stop17" />
    </linearGradient>
    <linearGradient
       inkscape:collect="always"
       xlink:href="#linearGradient19"
       id="linearGradient21"
       x1="2"
       y1="16"
       x2="30"
       y2="16"
       gradientUnits="userSpaceOnUse" />
  </defs>
  <sodipodi:namedview
     pagecolor="#ffffff"
     bordercolor="#666666"
     borderopacity="1"
     objecttolerance="10"
     gridtolerance="10"
     guidetolerance="10"
     inkscape:pageopacity="0"
     inkscape:pageshadow="2"
     inkscape:window-width="1920"
     inkscape:window-height="1000"
     id="namedview9"
     showgrid="false"
     inkscape:zoom="7.375"
     inkscape:cx="16"
     inkscape:cy="16"
     inkscape:window-x="0"
     inkscape:window-y="0"
     inkscape:window-maximized="1"
     inkscape:current-layer="svg7" />
  <g
     id="bookmarks">
    <rect
       style="opacity:0.001"
       width="32"
       height="32"
       x="0"
       y="0"
       id="rect2" />
    <path
       style="fill:url(#linearGradient21)"
       d="M 9.9570312 2 C 5.5629267 2 2 6.1162805 2 11.193359 C 2 12.557477 2.2089285 13.869485 2.5742188 15.123047 C 2.5742188 15.123047 2.9057869 16.25431 3.1992188 16.876953 C 6.5528775 24.837929 16 30 16 30 C 16 30 25.447122 24.837929 28.800781 16.876953 C 29.094213 16.25431 29.425781 15.123047 29.425781 15.123047 C 29.791071 13.869485 30 12.557477 30 11.193359 C 30 6.1162805 26.437073 2 22.042969 2 C 19.738504 2 17.453413 3.1910383 16 5 C 14.546587 3.1910383 12.261496 2 9.9570312 2 z M 9.9570312 5 C 11.227817 5 12.767613 5.7655887 13.662109 6.8789062 L 16 9.7890625 L 18.337891 6.8789062 C 19.232387 5.7655888 20.772183 5 22.042969 5 C 24.563526 5 27 7.5198151 27 11.193359 C 27 12.251156 26.838875 13.274446 26.544922 14.283203 C 26.542522 14.290403 26.155269 15.454683 26.087891 15.597656 L 26.060547 15.654297 L 26.035156 15.712891 C 23.704555 21.245306 17.96869 25.08024 16 26.333984 C 14.031309 25.08024 8.2954396 21.245301 5.9648438 15.712891 L 5.9394531 15.654297 L 5.9121094 15.597656 C 5.8447311 15.454678 5.4574978 14.290453 5.4550781 14.283203 C 5.1611248 13.274447 5 12.251157 5 11.193359 C 5 7.5198149 7.4364734 5 9.9570312 5 z"
       id="path4" />
  </g>
</svg>
