<?xml version="1.0" encoding="UTF-8" standalone="no"?>
<svg
   xmlns:dc="http://purl.org/dc/elements/1.1/"
   xmlns:cc="http://creativecommons.org/ns#"
   xmlns:rdf="http://www.w3.org/1999/02/22-rdf-syntax-ns#"
   xmlns:svg="http://www.w3.org/2000/svg"
   xmlns="http://www.w3.org/2000/svg"
   xmlns:xlink="http://www.w3.org/1999/xlink"
   xmlns:sodipodi="http://sodipodi.sourceforge.net/DTD/sodipodi-0.dtd"
   xmlns:inkscape="http://www.inkscape.org/namespaces/inkscape"
   width="32"
   height="32"
   version="1.1"
   id="svg52"
   sodipodi:docname="go.svg"
   inkscape:version="0.92.4 (5da689c313, 2019-01-14)">
  <metadata
     id="metadata58">
    <rdf:RDF>
      <cc:Work
         rdf:about="">
        <dc:format>image/svg+xml</dc:format>
        <dc:type
           rdf:resource="http://purl.org/dc/dcmitype/StillImage" />
      </cc:Work>
    </rdf:RDF>
  </metadata>
  <defs
     id="defs56">
    <linearGradient
       inkscape:collect="always"
       id="linearGradient136">
      <stop
         style="stop-color:#ff00ff;stop-opacity:1"
         offset="0"
         id="stop132" />
      <stop
         style="stop-color:#00ffff;stop-opacity:1"
         offset="1"
         id="stop134" />
    </linearGradient>
    <linearGradient
       inkscape:collect="always"
       id="linearGradient128">
      <stop
         style="stop-color:#ff00ff;stop-opacity:1"
         offset="0"
         id="stop124" />
      <stop
         style="stop-color:#00ffff;stop-opacity:1"
         offset="1"
         id="stop126" />
    </linearGradient>
    <linearGradient
       inkscape:collect="always"
       id="linearGradient120">
      <stop
         style="stop-color:#ff00ff;stop-opacity:1"
         offset="0"
         id="stop116" />
      <stop
         style="stop-color:#00ffff;stop-opacity:1"
         offset="1"
         id="stop118" />
    </linearGradient>
    <linearGradient
       inkscape:collect="always"
       id="linearGradient112">
      <stop
         style="stop-color:#ff00ff;stop-opacity:1"
         offset="0"
         id="stop108" />
      <stop
         style="stop-color:#00ffff;stop-opacity:1"
         offset="1"
         id="stop110" />
    </linearGradient>
    <linearGradient
       inkscape:collect="always"
       id="linearGradient104">
      <stop
         style="stop-color:#ff00ff;stop-opacity:1"
         offset="0"
         id="stop100" />
      <stop
         style="stop-color:#00ffff;stop-opacity:1"
         offset="1"
         id="stop102" />
    </linearGradient>
    <linearGradient
       inkscape:collect="always"
       id="linearGradient96">
      <stop
         style="stop-color:#ff00ff;stop-opacity:1"
         offset="0"
         id="stop92" />
      <stop
         style="stop-color:#00ffff;stop-opacity:1"
         offset="1"
         id="stop94" />
    </linearGradient>
    <linearGradient
       inkscape:collect="always"
       id="linearGradient88">
      <stop
         style="stop-color:#ff00ff;stop-opacity:1"
         offset="0"
         id="stop84" />
      <stop
         style="stop-color:#00ffff;stop-opacity:1"
         offset="1"
         id="stop86" />
    </linearGradient>
    <linearGradient
       inkscape:collect="always"
       id="linearGradient80">
      <stop
         style="stop-color:#ff00ff;stop-opacity:1"
         offset="0"
         id="stop76" />
      <stop
         style="stop-color:#00ffff;stop-opacity:1"
         offset="1"
         id="stop78" />
    </linearGradient>
    <linearGradient
       inkscape:collect="always"
       id="linearGradient72">
      <stop
         style="stop-color:#ff00ff;stop-opacity:1"
         offset="0"
         id="stop68" />
      <stop
         style="stop-color:#00ffff;stop-opacity:1"
         offset="1"
         id="stop70" />
    </linearGradient>
    <linearGradient
       inkscape:collect="always"
       id="linearGradient64">
      <stop
         style="stop-color:#ff00ff;stop-opacity:1"
         offset="0"
         id="stop60" />
      <stop
         style="stop-color:#00ffff;stop-opacity:1"
         offset="1"
         id="stop62" />
    </linearGradient>
    <linearGradient
       inkscape:collect="always"
       xlink:href="#linearGradient64"
       id="linearGradient66"
       x1="3.9999999"
       y1="16"
       x2="28"
       y2="16"
       gradientUnits="userSpaceOnUse" />
    <linearGradient
       inkscape:collect="always"
       xlink:href="#linearGradient72"
       id="linearGradient74"
       x1="4.1582031"
       y1="16.65"
       x2="27.841797"
       y2="16.65"
       gradientUnits="userSpaceOnUse" />
    <linearGradient
       inkscape:collect="always"
       xlink:href="#linearGradient80"
       id="linearGradient82"
       x1="4.1582031"
       y1="16.65"
       x2="27.841797"
       y2="16.65"
       gradientUnits="userSpaceOnUse" />
    <linearGradient
       inkscape:collect="always"
       xlink:href="#linearGradient88"
       id="linearGradient90"
       x1="4.1582031"
       y1="16.65"
       x2="27.841797"
       y2="16.65"
       gradientUnits="userSpaceOnUse" />
    <linearGradient
       inkscape:collect="always"
       xlink:href="#linearGradient96"
       id="linearGradient98"
       x1="4.1582031"
       y1="16.65"
       x2="27.841797"
       y2="16.65"
       gradientUnits="userSpaceOnUse" />
    <linearGradient
       inkscape:collect="always"
       xlink:href="#linearGradient104"
       id="linearGradient106"
       x1="468.0004"
       y1="-94.00336"
       x2="484.0004"
       y2="-94.00336"
       gradientUnits="userSpaceOnUse" />
    <linearGradient
       inkscape:collect="always"
       xlink:href="#linearGradient112"
       id="linearGradient114"
       x1="491.5004"
       y1="-94.003361"
       x2="507.5004"
       y2="-94.003361"
       gradientUnits="userSpaceOnUse" />
    <linearGradient
       inkscape:collect="always"
       xlink:href="#linearGradient120"
       id="linearGradient122"
       x1="491.5004"
       y1="-94.003361"
       x2="507.5004"
       y2="-94.003361"
       gradientUnits="userSpaceOnUse" />
    <linearGradient
       inkscape:collect="always"
       xlink:href="#linearGradient128"
       id="linearGradient130"
       x1="548.02679"
       y1="-102.50336"
       x2="548.02679"
       y2="-86.503357"
       gradientUnits="userSpaceOnUse" />
    <linearGradient
       inkscape:collect="always"
       xlink:href="#linearGradient136"
       id="linearGradient138"
       x1="548.02679"
       y1="-102.50336"
       x2="548.02679"
       y2="-86.503357"
       gradientUnits="userSpaceOnUse" />
  </defs>
  <sodipodi:namedview
     pagecolor="#ffffff"
     bordercolor="#666666"
     borderopacity="1"
     objecttolerance="10"
     gridtolerance="10"
     guidetolerance="10"
     inkscape:pageopacity="0"
     inkscape:pageshadow="2"
     inkscape:window-width="1920"
     inkscape:window-height="1000"
     id="namedview54"
     showgrid="false"
     inkscape:zoom="7.375"
     inkscape:cx="49.966108"
     inkscape:cy="16"
     inkscape:window-x="0"
     inkscape:window-y="0"
     inkscape:window-maximized="1"
     inkscape:current-layer="svg52" />
  <g
     id="22-22-go-home"
     transform="translate(-465.0004,83.003354)">
    <path
       style="opacity:0.001"
       d="m 465.0004,-105.00336 h 22 v 22.000003 h -22 z"
       id="path2" />
    <path
       style="fill:url(#linearGradient106)"
       d="m 468.0004,-94.00336 h 2 v 8 h 5 v -4 h 2 v 4 h 5 v -8 h 2 l -8,-8 z"
       id="path4" />
  </g>
  <g
     id="22-22-go-up"
     transform="translate(-457.0004,83.003357)">
    <path
       style="opacity:0.001"
       d="m 489.0004,-105.00336 v 22 h 22 v -22 z"
       id="path7" />
    <path
       style="fill:url(#linearGradient114)"
       d="m 491.5004,-93.976987 2.11644,2.123305 4.36736,-4.379438 v 10.229758 h 2.99342 v -10.264919 l 4.40439,4.414599 2.11839,-2.123305 -8,-8.026373 z"
       id="path9" />
  </g>
  <g
     id="22-22-go-down"
     transform="matrix(1,0,0,-1,-425.0004,-105.00336)">
    <path
       style="opacity:0.001"
       d="m 489.0004,-105.00336 v 22 h 22 v -22 z"
       id="path12" />
    <path
       style="fill:url(#linearGradient122)"
       d="m 491.5004,-93.976987 2.11644,2.123305 4.36736,-4.379438 v 10.229758 h 2.99342 v -10.264919 l 4.40439,4.414599 2.11839,-2.123305 -8,-8.026373 z"
       id="path14" />
  </g>
  <g
     id="22-22-go-previous"
     transform="translate(-441.0004,83.003357)">
    <path
       style="opacity:0.001"
       d="m 537.0004,-105.00336 h 22 v 22 h -22 z"
       id="path17" />
    <path
       style="fill:url(#linearGradient130)"
       d="m 548.02677,-102.50336 2.12331,2.11644 -4.37944,4.36736 h 10.22976 v 2.99342 h -10.26492 l 4.4146,4.40439 -2.12331,2.11839 -8.02637,-8 z"
       id="path19" />
  </g>
  <g
     id="22-22-go-next"
     transform="matrix(-1,0,0,1,687.0004,83.003357)">
    <path
       style="opacity:0.001"
       d="m 537.0004,-105.00336 h 22 v 22 h -22 z"
       id="path22" />
    <path
       style="fill:url(#linearGradient138)"
       d="m 548.02677,-102.50336 2.12331,2.11644 -4.37944,4.36736 h 10.22976 v 2.99342 h -10.26492 l 4.4146,4.40439 -2.12331,2.11839 -8.02637,-8 z"
       id="path24" />
  </g>
  <g
     id="go-home"
     transform="translate(3.4089999e-7,1.88644e-6)">
    <path
       style="opacity:0.001"
       d="M -6.8179997e-7,-4.77288e-6 H 32 V 32.000001 H -6.8179997e-7 Z"
       id="path27" />
    <path
       style="fill:url(#linearGradient66)"
       d="m 3.9999999,16 h 3 V 28 H 14 v -6 h 4 v 6 h 7 V 16 h 3 L 16,4 Z"
       id="path29" />
  </g>
  <g
     id="go-up"
     transform="translate(31.999999,1.88644e-6)">
    <path
       style="opacity:0.001"
       d="M 1.3182e-6,-4.77288e-6 V 31.999996 H 32.000002 V -4.77288e-6 Z"
       id="path32" />
    <path
       style="fill:url(#linearGradient74)"
       d="M 14.658203,6.5175781 4.1582031,16.017578 6.8417969,18.982422 14,12.505859 V 28 h 4 V 12.505859 l 7.158203,6.476563 2.683594,-2.964844 -10.5,-9.4999999 L 16,5.3 Z"
       id="path34" />
  </g>
  <g
     id="go-down"
     transform="matrix(1,0,0,-1,64,31.999993)">
    <path
       style="opacity:0.001"
       d="M 1.3182e-6,-4.77288e-6 V 31.999996 H 32.000002 V -4.77288e-6 Z"
       id="path37" />
    <path
       style="fill:url(#linearGradient82)"
       d="M 14.658203,6.5175781 4.1582031,16.017578 6.8417969,18.982422 14,12.505859 V 28 h 4 V 12.505859 l 7.158203,6.476563 2.683594,-2.964844 -10.5,-9.4999999 L 16,5.3 Z"
       id="path39" />
  </g>
  <g
     id="go-previous"
     transform="matrix(0,1,1,0,96.000007,-4.22712e-6)">
    <path
       style="opacity:0.001"
       d="M 1.3182e-6,-4.77288e-6 V 31.999996 H 32.000002 V -4.77288e-6 Z"
       id="path42" />
    <path
       style="fill:url(#linearGradient90)"
       d="M 14.658203,6.5175781 4.1582031,16.017578 6.8417969,18.982422 14,12.505859 V 28 h 4 V 12.505859 l 7.158203,6.476563 2.683594,-2.964844 -10.5,-9.4999999 L 16,5.3 Z"
       id="path44" />
  </g>
  <g
     id="go-next"
     transform="rotate(90,80.000003,79.999999)">
    <path
       style="opacity:0.001"
       d="M 1.3182e-6,-4.77288e-6 V 31.999996 H 32.000002 V -4.77288e-6 Z"
       id="path47" />
    <path
       style="fill:url(#linearGradient98)"
       d="M 14.658203,6.5175781 4.1582031,16.017578 6.8417969,18.982422 14,12.505859 V 28 h 4 V 12.505859 l 7.158203,6.476563 2.683594,-2.964844 -10.5,-9.4999999 L 16,5.3 Z"
       id="path49" />
  </g>
</svg>
