<?xml version="1.0" encoding="UTF-8" standalone="no"?>
<svg
   xmlns:dc="http://purl.org/dc/elements/1.1/"
   xmlns:cc="http://creativecommons.org/ns#"
   xmlns:rdf="http://www.w3.org/1999/02/22-rdf-syntax-ns#"
   xmlns:svg="http://www.w3.org/2000/svg"
   xmlns="http://www.w3.org/2000/svg"
   xmlns:xlink="http://www.w3.org/1999/xlink"
   xmlns:sodipodi="http://sodipodi.sourceforge.net/DTD/sodipodi-0.dtd"
   xmlns:inkscape="http://www.inkscape.org/namespaces/inkscape"
   width="32"
   height="32"
   version="1.1"
   id="svg26"
   sodipodi:docname="list.svg"
   inkscape:version="0.92.4 (5da689c313, 2019-01-14)">
  <metadata
     id="metadata32">
    <rdf:RDF>
      <cc:Work
         rdf:about="">
        <dc:format>image/svg+xml</dc:format>
        <dc:type
           rdf:resource="http://purl.org/dc/dcmitype/StillImage" />
      </cc:Work>
    </rdf:RDF>
  </metadata>
  <defs
     id="defs30">
    <linearGradient
       inkscape:collect="always"
       id="linearGradient62">
      <stop
         style="stop-color:#ff00ff;stop-opacity:1"
         offset="0"
         id="stop58" />
      <stop
         style="stop-color:#00ffff;stop-opacity:1"
         offset="1"
         id="stop60" />
    </linearGradient>
    <linearGradient
       inkscape:collect="always"
       id="linearGradient54">
      <stop
         style="stop-color:#ff00ff;stop-opacity:1"
         offset="0"
         id="stop50" />
      <stop
         style="stop-color:#00ffff;stop-opacity:1"
         offset="1"
         id="stop52" />
    </linearGradient>
    <linearGradient
       inkscape:collect="always"
       id="linearGradient46">
      <stop
         style="stop-color:#ff00ff;stop-opacity:1"
         offset="0"
         id="stop42" />
      <stop
         style="stop-color:#00ffff;stop-opacity:1"
         offset="1"
         id="stop44" />
    </linearGradient>
    <linearGradient
       inkscape:collect="always"
       id="linearGradient38">
      <stop
         style="stop-color:#ff00ff;stop-opacity:1"
         offset="0"
         id="stop34" />
      <stop
         style="stop-color:#00ffff;stop-opacity:1"
         offset="1"
         id="stop36" />
    </linearGradient>
    <linearGradient
       inkscape:collect="always"
       xlink:href="#linearGradient38"
       id="linearGradient40"
       x1="4.0000001"
       y1="16"
       x2="28"
       y2="16"
       gradientUnits="userSpaceOnUse" />
    <linearGradient
       inkscape:collect="always"
       xlink:href="#linearGradient46"
       id="linearGradient48"
       x1="3"
       y1="11"
       x2="19"
       y2="11"
       gradientUnits="userSpaceOnUse" />
    <linearGradient
       inkscape:collect="always"
       xlink:href="#linearGradient54"
       id="linearGradient56"
       x1="4.001818"
       y1="15.999432"
       x2="27.998182"
       y2="15.999432"
       gradientUnits="userSpaceOnUse" />
    <linearGradient
       inkscape:collect="always"
       xlink:href="#linearGradient62"
       id="linearGradient64"
       x1="448.00041"
       y1="-114.00336"
       x2="464.00039"
       y2="-114.00336"
       gradientUnits="userSpaceOnUse" />
  </defs>
  <sodipodi:namedview
     pagecolor="#ffffff"
     bordercolor="#666666"
     borderopacity="1"
     objecttolerance="10"
     gridtolerance="10"
     guidetolerance="10"
     inkscape:pageopacity="0"
     inkscape:pageshadow="2"
     inkscape:window-width="1920"
     inkscape:window-height="1000"
     id="namedview28"
     showgrid="false"
     inkscape:zoom="7.375"
     inkscape:cx="16"
     inkscape:cy="16"
     inkscape:window-x="0"
     inkscape:window-y="0"
     inkscape:window-maximized="1"
     inkscape:current-layer="svg26" />
  <g
     id="22-22-list-remove"
     transform="translate(-253,-17)">
    <rect
       style="opacity:0.001"
       width="22"
       height="22"
       x="285"
       y="-5"
       id="rect2" />
    <g
       transform="translate(285.00081,-5.00334)"
       id="g8">
      <g
         transform="translate(-445.0004,125.00336)"
         id="g6">
        <path
           style="fill:url(#linearGradient64)"
           d="m 461.65725,-119.66021 a 8,8 0 0 0 -11.3137,0 8,8 0 0 0 0,11.3137 8,8 0 0 0 11.3137,0 8,8 0 0 0 0,-11.3137 z m -1.22362,3.34494 a 5,5 0 0 1 -0.8977,5.84744 5,5 0 0 1 -5.84329,0.89355 z m -2.12547,-2.11717 -6.74099,6.74099 a 5,5 0 0 1 0.8977,-5.84744 5,5 0 0 1 5.84329,-0.89355 z"
           id="path4" />
      </g>
    </g>
  </g>
  <g
     id="22-22-list-add"
     transform="translate(-285.00081,-16.99666)">
    <path
       style="opacity:0.001"
       d="m 285.00081,-5.00334 h 22 v 22 h -22 z"
       id="path11" />
    <path
       style="fill:url(#linearGradient48)"
       transform="translate(285.00081,-5.00334)"
       d="M 9,3 V 9 H 3 v 4 h 6 v 6 h 4 v -6 h 6 V 9 H 13 V 3 Z"
       id="path13" />
  </g>
  <g
     id="list-add"
     transform="translate(3.6590725e-6)">
    <path
       style="opacity:0.001"
       d="M -4.318145e-6,-4.8197e-7 H 31.999997 V 32.000001 H -4.318145e-6 Z"
       id="path16" />
    <path
       style="fill:url(#linearGradient40)"
       d="m 13,4 v 9 H 4.0000001 v 6 H 13 v 9 h 6 v -9 h 9 V 13 H 19 V 4 Z"
       id="path18" />
  </g>
  <g
     id="list-remove"
     transform="translate(32.000003)">
    <rect
       style="opacity:0.001"
       width="32"
       height="32"
       x="0"
       y="0"
       id="rect21" />
    <path
       style="fill:url(#linearGradient56)"
       d="m 15.824219,4.0019531 a 12.000013,12.000013 0 0 0 -8.308594,3.5136719 12.000013,12.000013 0 0 0 0,16.96875 12.000013,12.000013 0 0 0 16.96875,0 12.000013,12.000013 0 0 0 0,-16.96875 12.000013,12.000013 0 0 0 -8.660156,-3.5136719 z m 0.294922,4.0058594 a 7.9999018,7.9999018 0 0 1 3.572265,0.9042969 L 8.90625,19.699219 a 7.9999018,7.9999018 0 0 1 1.4375,-9.355469 7.9999018,7.9999018 0 0 1 5.775391,-2.3359375 z m 6.974609,4.2910155 a 7.9999018,7.9999018 0 0 1 -1.4375,9.357422 7.9999018,7.9999018 0 0 1 -9.347656,1.431641 z"
       id="path23" />
  </g>
</svg>
