<?xml version="1.0" encoding="UTF-8" standalone="no"?>
<svg
   xmlns:dc="http://purl.org/dc/elements/1.1/"
   xmlns:cc="http://creativecommons.org/ns#"
   xmlns:rdf="http://www.w3.org/1999/02/22-rdf-syntax-ns#"
   xmlns:svg="http://www.w3.org/2000/svg"
   xmlns="http://www.w3.org/2000/svg"
   xmlns:xlink="http://www.w3.org/1999/xlink"
   xmlns:sodipodi="http://sodipodi.sourceforge.net/DTD/sodipodi-0.dtd"
   xmlns:inkscape="http://www.inkscape.org/namespaces/inkscape"
   width="32"
   height="32"
   version="1.1"
   id="svg32"
   sodipodi:docname="slc.svg"
   inkscape:version="0.92.4 (5da689c313, 2019-01-14)">
  <metadata
     id="metadata38">
    <rdf:RDF>
      <cc:Work
         rdf:about="">
        <dc:format>image/svg+xml</dc:format>
        <dc:type
           rdf:resource="http://purl.org/dc/dcmitype/StillImage" />
      </cc:Work>
    </rdf:RDF>
  </metadata>
  <defs
     id="defs36">
    <linearGradient
       inkscape:collect="always"
       id="linearGradient84">
      <stop
         style="stop-color:#ff00ff;stop-opacity:1"
         offset="0"
         id="stop80" />
      <stop
         style="stop-color:#00ffff;stop-opacity:1"
         offset="1"
         id="stop82" />
    </linearGradient>
    <linearGradient
       inkscape:collect="always"
       id="linearGradient76">
      <stop
         style="stop-color:#ff00ff;stop-opacity:1"
         offset="0"
         id="stop72" />
      <stop
         style="stop-color:#00ffff;stop-opacity:1"
         offset="1"
         id="stop74" />
    </linearGradient>
    <linearGradient
       inkscape:collect="always"
       id="linearGradient68">
      <stop
         style="stop-color:#ff00ff;stop-opacity:1"
         offset="0"
         id="stop64" />
      <stop
         style="stop-color:#00ffff;stop-opacity:1"
         offset="1"
         id="stop66" />
    </linearGradient>
    <linearGradient
       inkscape:collect="always"
       id="linearGradient60">
      <stop
         style="stop-color:#ff00ff;stop-opacity:1"
         offset="0"
         id="stop56" />
      <stop
         style="stop-color:#00ffff;stop-opacity:1"
         offset="1"
         id="stop58" />
    </linearGradient>
    <linearGradient
       inkscape:collect="always"
       id="linearGradient52">
      <stop
         style="stop-color:#ff00ff;stop-opacity:1"
         offset="0"
         id="stop48" />
      <stop
         style="stop-color:#00ffff;stop-opacity:1"
         offset="1"
         id="stop50" />
    </linearGradient>
    <linearGradient
       inkscape:collect="always"
       id="linearGradient44">
      <stop
         style="stop-color:#ff00ff;stop-opacity:1"
         offset="0"
         id="stop40" />
      <stop
         style="stop-color:#00ffff;stop-opacity:1"
         offset="1"
         id="stop42" />
    </linearGradient>
    <linearGradient
       inkscape:collect="always"
       xlink:href="#linearGradient44"
       id="linearGradient46"
       x1="3"
       y1="16"
       x2="29"
       y2="16"
       gradientUnits="userSpaceOnUse" />
    <linearGradient
       inkscape:collect="always"
       xlink:href="#linearGradient52"
       id="linearGradient54"
       x1="2"
       y1="16"
       x2="29"
       y2="16"
       gradientUnits="userSpaceOnUse" />
    <linearGradient
       inkscape:collect="always"
       xlink:href="#linearGradient60"
       id="linearGradient62"
       x1="4.0000004"
       y1="16"
       x2="28"
       y2="16"
       gradientUnits="userSpaceOnUse" />
    <linearGradient
       inkscape:collect="always"
       xlink:href="#linearGradient68"
       id="linearGradient70"
       x1="3"
       y1="12"
       x2="21"
       y2="12"
       gradientUnits="userSpaceOnUse" />
    <linearGradient
       inkscape:collect="always"
       xlink:href="#linearGradient76"
       id="linearGradient78"
       x1="3"
       y1="12"
       x2="21"
       y2="12"
       gradientUnits="userSpaceOnUse" />
    <linearGradient
       inkscape:collect="always"
       xlink:href="#linearGradient84"
       id="linearGradient86"
       x1="3.9999999"
       y1="12"
       x2="20"
       y2="12"
       gradientUnits="userSpaceOnUse" />
  </defs>
  <sodipodi:namedview
     pagecolor="#ffffff"
     bordercolor="#666666"
     borderopacity="1"
     objecttolerance="10"
     gridtolerance="10"
     guidetolerance="10"
     inkscape:pageopacity="0"
     inkscape:pageshadow="2"
     inkscape:window-width="1920"
     inkscape:window-height="1000"
     id="namedview34"
     showgrid="false"
     inkscape:zoom="7.375"
     inkscape:cx="16"
     inkscape:cy="16"
     inkscape:window-x="0"
     inkscape:window-y="0"
     inkscape:window-maximized="1"
     inkscape:current-layer="svg32" />
  <g
     id="22-22-slc-like"
     transform="translate(31,-23)">
    <rect
       style="opacity:0.001"
       width="22"
       height="22"
       x="1"
       y="1"
       id="rect2" />
    <path
       style="fill:url(#linearGradient78)"
       d="M 8,4 C 5.2385763,4 3,6.2385763 3,9 c 0,5 7,9 9,11 2,-2 9,-6 9,-11 C 21,6.2385763 18.761424,4 16,4 14.360405,4 12.911811,4.7807653 12,6 11.088189,4.7807653 9.6395954,4 8,4 Z"
       id="path4" />
  </g>
  <g
     id="22-22-slc-share"
     transform="translate(-1.0000005,-23)">
    <rect
       style="opacity:0.001"
       width="22"
       height="22"
       x="1"
       y="1"
       id="rect7" />
    <path
       style="fill:url(#linearGradient70)"
       d="m 18,4 c -1.656854,0 -3,1.3431458 -3,3 0,0.087382 0.02393,0.1645141 0.03125,0.25 l -6.75,2.8125 C 7.730971,9.4152177 6.9161429,9 6,9 4.3431458,9 3,10.343146 3,12 c 0,1.656854 1.3431458,3 3,3 0.9161429,0 1.730971,-0.415218 2.28125,-1.0625 l 6.75,2.8125 C 15.023929,16.835486 15,16.912618 15,17 c 0,1.656854 1.343146,3 3,3 1.656854,0 3,-1.343146 3,-3 0,-1.656854 -1.343146,-3 -3,-3 -0.916143,0 -1.730971,0.415218 -2.28125,1.0625 L 8.96875,12.25 C 8.9760708,12.164514 9,12.087382 9,12 9,11.912618 8.9760708,11.835486 8.96875,11.75 l 6.75,-2.8125 C 16.269029,9.5847823 17.083857,10 18,10 19.656854,10 21,8.6568542 21,7 21,5.3431458 19.656854,4 18,4 Z m 0,2 c 0.552285,0 1,0.4477153 1,1 0,0.5522847 -0.447715,1 -1,1 C 17.447715,8 17,7.5522847 17,7 17,6.4477153 17.447715,6 18,6 Z M 6,11 c 0.5522847,0 1,0.447715 1,1 0,0.552285 -0.4477153,1 -1,1 -0.5522847,0 -1,-0.447715 -1,-1 0,-0.552285 0.4477153,-1 1,-1 z m 12,5 c 0.552285,0 1,0.447715 1,1 0,0.552285 -0.447715,1 -1,1 -0.552285,0 -1,-0.447715 -1,-1 0,-0.552285 0.447715,-1 1,-1 z"
       id="path9" />
  </g>
  <g
     id="22-22-slc-connect"
     transform="translate(63,-23)">
    <rect
       style="opacity:0.001"
       width="22"
       height="22"
       x="1"
       y="1"
       id="rect12" />
    <path
       style="fill:url(#linearGradient86)"
       d="M 14,4 C 13.221497,4.7785032 13.063294,6.1686877 13.96875,7.6875 L 9.7187499,10.53125 C 9.1903432,10.318042 8.6231562,10.159067 8.0624999,10.15625 7.3337401,10.15255 6.6249999,10.375 5.9999999,11 l 3,3 -4,4 -1,2 2,-1 4,-4 L 13,18 c 1.106964,-1.106964 0.964749,-2.507767 0.46875,-3.71875 l 2.84375,-4.25 C 17.831312,10.936706 19.221497,10.778503 20,10 Z"
       id="path14" />
  </g>
  <g
     id="slc-share">
    <rect
       style="opacity:0.001"
       width="32"
       height="32"
       x="0"
       y="0"
       id="rect17" />
    <path
       style="fill:url(#linearGradient46)"
       d="M 24.5,4 A 4.5,4.5 0 0 0 20,8.5 4.5,4.5 0 0 0 20.011719,8.7265625 L 10.845703,12.5 A 4.5,4.5 0 0 0 7.5,11 4.5,4.5 0 0 0 3,15.5 4.5,4.5 0 0 0 7.5,20 4.5,4.5 0 0 0 10.699219,18.662109 l 9.328125,4.390625 A 4.5,4.5 0 0 0 20,23.5 4.5,4.5 0 0 0 24.5,28 4.5,4.5 0 0 0 29,23.5 4.5,4.5 0 0 0 24.5,19 4.5,4.5 0 0 0 21.300781,20.337891 L 11.972656,15.947266 A 4.5,4.5 0 0 0 12,15.5 4.5,4.5 0 0 0 11.988281,15.273438 L 21.152344,11.5 A 4.5,4.5 0 0 0 24.5,13 4.5,4.5 0 0 0 29,8.5 4.5,4.5 0 0 0 24.5,4 Z m 0,3 A 1.5,1.5 0 0 1 26,8.5 1.5,1.5 0 0 1 24.5,10 1.5,1.5 0 0 1 23,8.5 1.5,1.5 0 0 1 24.5,7 Z m -17,7 A 1.5,1.5 0 0 1 9,15.5 1.5,1.5 0 0 1 7.5,17 1.5,1.5 0 0 1 6,15.5 1.5,1.5 0 0 1 7.5,14 Z m 17,8 A 1.5,1.5 0 0 1 26,23.5 1.5,1.5 0 0 1 24.5,25 1.5,1.5 0 0 1 23,23.5 1.5,1.5 0 0 1 24.5,22 Z"
       id="path19" />
  </g>
  <g
     id="slc-like"
     transform="translate(32)">
    <rect
       style="opacity:0.001"
       width="32"
       height="32"
       x="0"
       y="0"
       id="rect22" />
    <path
       style="fill:url(#linearGradient54)"
       d="M 9.5000003,4 C 5.3578645,4 2,7.3578645 2,11.500001 2,19 12.5,25 15.5,28 18.5,25 29,19 29,11.500001 29,7.3578645 25.642136,4 21.5,4 19.040607,4 16.867716,5.171148 15.5,7 14.132283,5.171148 11.959392,4 9.5000003,4 Z"
       id="path24" />
  </g>
  <g
     id="slc-connect"
     transform="translate(64)">
    <rect
       style="opacity:0.001"
       width="32"
       height="32"
       x="0"
       y="0"
       id="rect27" />
    <path
       style="fill:url(#linearGradient62)"
       d="m 19.000005,4 c -1.167754,1.1677548 -1.405058,3.2530315 -0.04688,5.53125 l -6.174562,4.065438 c -0.792611,-0.319811 -1.643391,-0.558275 -2.484375,-0.5625 -1.0931404,-0.0056 -2.1562509,0.328125 -3.0937508,1.265625 l 4.4999998,4.5 L 5.5000004,25 l -1.5,3 3,-1.500001 6.2004376,-6.200186 4.5,4.5 c 1.660446,-1.660446 1.447124,-3.761651 0.703125,-5.578125 l 4.065186,-6.174812 C 24.746968,14.405059 26.832245,14.167755 28,12.999996 Z"
       id="path29" />
  </g>
</svg>
