<?xml version="1.0" encoding="UTF-8" standalone="no"?>
<svg
   xmlns:dc="http://purl.org/dc/elements/1.1/"
   xmlns:cc="http://creativecommons.org/ns#"
   xmlns:rdf="http://www.w3.org/1999/02/22-rdf-syntax-ns#"
   xmlns:svg="http://www.w3.org/2000/svg"
   xmlns="http://www.w3.org/2000/svg"
   xmlns:xlink="http://www.w3.org/1999/xlink"
   xmlns:sodipodi="http://sodipodi.sourceforge.net/DTD/sodipodi-0.dtd"
   xmlns:inkscape="http://www.inkscape.org/namespaces/inkscape"
   width="32"
   height="32"
   version="1.1"
   id="svg12"
   sodipodi:docname="TeamViewer.svg"
   inkscape:version="0.92.4 (5da689c313, 2019-01-14)">
  <metadata
     id="metadata18">
    <rdf:RDF>
      <cc:Work
         rdf:about="">
        <dc:format>image/svg+xml</dc:format>
        <dc:type
           rdf:resource="http://purl.org/dc/dcmitype/StillImage" />
      </cc:Work>
    </rdf:RDF>
  </metadata>
  <defs
     id="defs16">
    <linearGradient
       inkscape:collect="always"
       id="linearGradient32">
      <stop
         style="stop-color:#ff00ff;stop-opacity:1"
         offset="0"
         id="stop28" />
      <stop
         style="stop-color:#00ffff;stop-opacity:1"
         offset="1"
         id="stop30" />
    </linearGradient>
    <linearGradient
       inkscape:collect="always"
       id="linearGradient24">
      <stop
         style="stop-color:#ff00ff;stop-opacity:1"
         offset="0"
         id="stop20" />
      <stop
         style="stop-color:#00ffff;stop-opacity:1"
         offset="1"
         id="stop22" />
    </linearGradient>
    <linearGradient
       inkscape:collect="always"
       xlink:href="#linearGradient24"
       id="linearGradient26"
       x1="4"
       y1="16"
       x2="28"
       y2="16"
       gradientUnits="userSpaceOnUse" />
    <linearGradient
       inkscape:collect="always"
       xlink:href="#linearGradient32"
       id="linearGradient34"
       x1="3"
       y1="11"
       x2="19"
       y2="11"
       gradientUnits="userSpaceOnUse" />
  </defs>
  <sodipodi:namedview
     pagecolor="#ffffff"
     bordercolor="#666666"
     borderopacity="1"
     objecttolerance="10"
     gridtolerance="10"
     guidetolerance="10"
     inkscape:pageopacity="0"
     inkscape:pageshadow="2"
     inkscape:window-width="1920"
     inkscape:window-height="1000"
     id="namedview14"
     showgrid="false"
     inkscape:zoom="7.375"
     inkscape:cx="16"
     inkscape:cy="16"
     inkscape:window-x="0"
     inkscape:window-y="0"
     inkscape:window-maximized="1"
     inkscape:current-layer="svg12" />
  <g
     id="22-22-TeamViewer"
     transform="translate(32.000001,10.000001)">
    <rect
       style="opacity:0.001"
       width="22"
       height="22"
       x="0"
       y="0"
       id="rect2" />
    <path
       style="fill:url(#linearGradient34)"
       d="m 11,3 c -4.4179185,-10e-8 -8.0000001,3.5820815 -8,8 -10e-8,4.417918 3.5820815,8 8,8 4.417918,0 8,-3.582082 8,-8 C 19,6.5820815 15.417918,2.9999999 11,3 Z M 9,8 v 2 h 4 V 8 l 3,3 -3,3 V 12 H 9 v 2 L 6,11 Z"
       id="path4" />
  </g>
  <g
     id="TeamViewer">
    <rect
       style="opacity:0.001"
       width="32"
       height="32"
       x="0"
       y="0"
       id="rect7" />
    <path
       style="fill:url(#linearGradient26)"
       d="M 16 4 C 9.3731226 3.9999999 3.9999998 9.3731223 4 16 C 3.9999999 22.626877 9.3731226 28 16 28 C 22.626878 28 28 22.626877 28 16 C 28 9.3731223 22.626878 3.9999999 16 4 z M 13 11 L 13 14 L 19 14 L 19 11 L 24 16 L 19 21 L 19 18 L 13 18 L 13 21 L 8 16 L 13 11 z"
       id="path9" />
  </g>
</svg>
